SplineFontDB: 3.0
FontName: CosmicSansNeueMono
FullName: Cosmic Sans Neue Mono
FamilyName: CosmicSansNeueMono
Weight: Regular
Copyright: Created by Jany Belluz with FontForge 2.0 (http://fontforge.sf.net)
UComments: "2013-9-13: Created." 
Version: 1.2.1
ItalicAngle: 0
UnderlinePosition: -192
UnderlineWidth: 96
Ascent: 1650
Descent: 398
LayerCount: 2
Layer: 0 0 "Back"  1
Layer: 1 0 "Fore"  0
XUID: [1021 607 50037791 3178130]
FSType: 8
OS2Version: 3
OS2_WeightWidthSlopeOnly: 0
OS2_UseTypoMetrics: 1
CreationTime: 1379052706
ModificationTime: 1385165025
PfmFamily: 49
TTFWeight: 400
TTFWidth: 5
LineGap: 360
VLineGap: 0
Panose: 2 11 5 9 2 2 4 3 2 4
OS2TypoAscent: 1750
OS2TypoAOffset: 0
OS2TypoDescent: -394
OS2TypoDOffset: 0
OS2TypoLinegap: 350
OS2WinAscent: 1708
OS2WinAOffset: 0
OS2WinDescent: 418
OS2WinDOffset: 0
HheadAscent: 1750
HheadAOffset: 0
HheadDescent: -394
HheadDOffset: 0
OS2FamilyClass: 2057
OS2Vendor: 'PfEd'
MarkAttachClasses: 1
DEI: 91125

StartChar: a
Encoding: 97 97 0
Width: 1120
VWidth: 6
Flags: W
HStem: -10 21G<876 915.95> -6 152<315.367 581.736> 504 153<364.522 699.622> 877 151<356.149 659.625>
VStem: 118 156<186.95 423.616> 736 157<285.558 463.324 597 791.012>
LayerCount: 2
Fore
SplineSet
274 311 m 0x7c
 274 206 330 146 423 146 c 0
 603 146 710 304 736 345 c 1
 736 440 l 1
 679 475 599 504 529 504 c 0
 393 504 274 429 274 311 c 0x7c
893 318 m 0
 893 283 893 190 906 173 c 0
 919 155 956 132 985 109 c 1
 902 -10 l 1xbc
 850 30 790 55 772 156 c 1
 694 81 605 -6 423 -6 c 0
 252 -6 118 135 118 301 c 0
 118 377 148 466 207 527 c 0
 302 624 412 657 530 657 c 0
 615 657 681 630 735 597 c 1
 735 792 668 877 516 877 c 0
 378 877 323 828 243 685 c 1
 113 767 l 1
 209 949 336 1025 514 1028 c 1
 739 1028 889 878 889 657 c 0
 893 318 l 0
EndSplineSet
Validated: 1
EndChar

StartChar: b
Encoding: 98 98 1
Width: 1120
VWidth: -2
Flags: W
HStem: -7 154<402.022 701.177> 858 155<385.305 665.934> 1392 20G<136 299.5>
VStem: 133 165<5.34919 81.4914 1156.27 1403.8> 152 157<241.719 785.775 949 1399.8> 789 157<249.683 713.724>
LayerCount: 2
Fore
SplineSet
789 478 m 0xec
 789 761 672 858 509 858 c 0
 418 858 361 795 309 744 c 1
 309 307 l 1
 380 193 427 147 564 147 c 0
 734 147 789 274 789 478 c 0xec
946 459 m 0
 946 191 839 -7 564 -7 c 0
 452 -7 372 28 309 84 c 1xec
 308 42 303 20 298 -12 c 1
 133 7 l 1xf4
 143 73 152 160 152 243 c 0
 152 251 152 259 152 267 c 0
 152 516 151 877 151 1157 c 0
 151 1251 143 1335 136 1403 c 1
 295 1412 l 1
 304 1339 309 1243 309 1152 c 2
 309 949 l 1
 357 985 395 1013 495 1013 c 0
 818 1013 946 795 946 459 c 0
EndSplineSet
Validated: 1
EndChar

StartChar: c
Encoding: 99 99 2
Width: 1120
VWidth: 4
Flags: W
HStem: -7 157<399.683 780.344> 865 153<393.88 739.499>
VStem: 111 159<292.678 736.59>
LayerCount: 2
Fore
SplineSet
270 527 m 0
 270 157 477 150 587 150 c 2
 600 150 l 2
 756 150 831 215 883 302 c 1
 1009 211 l 1
 976 169 883 -7 604 -7 c 0
 500 -7 377 1 281 73 c 1
 151 174 111 328 111 527 c 0
 111 894 289 1018 604 1018 c 0
 699 1018 773 994 833 948 c 0
 894 901 925 841 947 789 c 1
 793 729 l 1
 782 770 753 865 593 865 c 0
 372 865 270 766 270 527 c 0
EndSplineSet
Validated: 1
EndChar

StartChar: d
Encoding: 100 100 3
Width: 1120
VWidth: -2
Flags: W
HStem: -7 154<368.142 667.56> 858 155<409.251 683.98> 1391 20G<745 909.5>
VStem: 124 158<241.806 717.436> 761 157<241.719 785.775 949 1399.8>
LayerCount: 2
Fore
SplineSet
282 478 m 4
 282 274 335 147 505 147 c 4
 642 147 690 193 761 307 c 5
 761 744 l 5
 709 795 651 858 560 858 c 4
 397 858 282 761 282 478 c 4
918 267 m 5
 918 241 l 6
 918 158 926 72 936 7 c 5
 772 -12 l 5
 767 20 762 42 761 84 c 5
 698 28 617 -7 505 -7 c 4
 230 -7 124 191 124 459 c 4
 124 795 251 1013 574 1013 c 4
 674 1013 712 980 760 949 c 5
 760 1156 l 6
 760 1250 752 1335 745 1403 c 5
 905 1411 l 5
 914 1338 919 1243 919 1152 c 6
 918 267 l 5
EndSplineSet
Validated: 1
EndChar

StartChar: e
Encoding: 101 101 4
Width: 1120
VWidth: 32
Flags: W
HStem: -10 153<386.975 718.993> 460 150<480.379 804> 869 152<401.998 691.11>
VStem: 118 158<258.732 429.895 580 738.031> 804 159<611 749.303>
LayerCount: 2
Fore
SplineSet
276 580 m 5
 384 591 626 606 769 610 c 6
 804 611 l 5
 798 767 686 869 550 869 c 0
 380 869 277 734 276 580 c 5
549 1021 m 0
 926 1021 963 641 963 503 c 0
 963 483 963 468 962 460 c 1
 677 456 441 439 276 427 c 1
 276 274 359 143 545 143 c 0
 702 143 790 230 825 286 c 1
 946 183 l 1
 933 161 821 -10 541 -10 c 0
 255 -10 118 203 118 516 c 0
 118 802 266 1021 549 1021 c 0
EndSplineSet
Validated: 1
EndChar

StartChar: f
Encoding: 102 102 5
Width: 1120
VWidth: -2
Flags: W
HStem: 859 153<152 295 452 854.016> 1266 152<488.036 864.583>
VStem: 295 157<0 859 1013 1231.57>
LayerCount: 2
Fore
SplineSet
608 1266 m 0
 461 1266 452 1168 452 1060 c 2
 452 1013 l 1
 520 1013 650 1012 723 1012 c 1
 827 1009 854 1001 884 992 c 1
 855 846 l 1
 834 853 813 859 757 859 c 2
 452 859 l 1
 453 705 455 4 455 0 c 1
 298 0 l 1
 298 25 297 712 295 859 c 1
 152 859 l 1
 152 1012 l 1
 296 1012 l 1
 296 1028 295 1045 295 1064 c 0
 295 1207 323 1418 600 1418 c 0
 819 1418 967 1392 1051 1225 c 1
 925 1148 l 1
 875 1246 813 1266 608 1266 c 0
EndSplineSet
Validated: 1
EndChar

StartChar: g
Encoding: 103 103 6
Width: 1120
VWidth: 14
Flags: W
HStem: -346 156<299.07 807.902> 69 153<305.055 828.211> 351 153<371.679 698.877> 889 152<374.355 714.546 894.713 1004>
VStem: 120 157<-165.163 42.3412 234.782 397.316> 135 158<578.656 807.783> 765 156<572.531 838.407> 851 157<-151.81 42.8716>
LayerCount: 2
Fore
SplineSet
484 -190 m 4xf9
 513 -190 540 -190 565 -190 c 0
 764 -190 851 -181 851 -28 c 0
 851 55 773 69 594 69 c 0
 540 69 434 67 361 66 c 1
 312 47 277 4 277 -62 c 0
 277 -181 345 -190 484 -190 c 4xf9
765 720 m 0xf6
 765 840 688 889 537 889 c 0
 369 889 293 795 293 682 c 0
 293 583 394 504 523 504 c 0
 729 504 765 607 765 720 c 0xf6
894 857 m 1
 912 816 921 783 921 725 c 0xf6
 921 509 820 351 519 351 c 2
 516 351 l 2
 441 351 372 370 310 399 c 1
 291 377 279 364 279 320 c 0
 279 230 313 220 459 220 c 0
 502 220 597 222 661 222 c 0
 824 222 1008 174 1008 -27 c 0
 1008 -308 846 -346 480 -346 c 4
 276 -346 120 -282 120 -67 c 0xf9
 120 34 154 88 207 135 c 1
 160 170 122 229 122 315 c 0
 122 416 159 455 196 496 c 1
 159 543 135 601 135 669 c 0
 135 672 135 675 135 678 c 0
 135 913 283 1041 537 1041 c 0
 637 1041 731 1028 807 981 c 1
 856 1027 888 1042 1004 1042 c 1
 1004 879 l 1
 992 881 981 882 971 882 c 0
 937 882 909 872 894 857 c 1
EndSplineSet
Validated: 1
EndChar

StartChar: p
Encoding: 112 112 7
Width: 1120
VWidth: -2
Flags: W
HStem: -7 155<391.305 671.934> 858 155<408.237 707.54> 998 20G<140 306.5>
VStem: 159 156<-393.801 56 220.225 763.281> 795 157<291.52 763.3>
LayerCount: 2
Fore
SplineSet
795 527 m 0xd8
 795 731 741 858 571 858 c 0
 434 858 386 812 315 698 c 1
 315 262 l 1
 367 211 424 148 515 148 c 0
 678 148 795 244 795 527 c 0xd8
159 739 m 2
 159 747 159 755 159 763 c 0
 159 846 150 932 140 998 c 1
 304 1018 l 1xb8
 309 986 314 964 315 922 c 1
 378 978 458 1013 570 1013 c 0
 845 1013 952 814 952 546 c 0
 952 210 824 -7 501 -7 c 0
 401 -7 363 25 315 56 c 1
 315 -151 l 2
 315 -245 324 -329 331 -397 c 1
 172 -406 l 1
 163 -333 158 -237 158 -146 c 2
 159 739 l 2
EndSplineSet
Validated: 1
EndChar

StartChar: h
Encoding: 104 104 8
Width: 1120
VWidth: -2
Flags: W
HStem: -4 21G<118 278.5 872 927.043> 858 153<371.877 704.129> 1382 20G<130 288.043>
VStem: 131 157<4 785.233 940 1401> 758 157<130.048 802.125>
LayerCount: 2
Fore
SplineSet
758 576 m 2
 758 803 722 858 521 858 c 0
 420 858 319 793 288 731 c 1
 288 198 l 2
 288 119 281 42 276 -4 c 1
 118 4 l 1
 126 76 131 127 131 204 c 0
 131 708 130 1401 130 1401 c 1
 288 1402 l 1
 289 940 l 1
 354 981 426 1011 528 1011 c 0
 649 1011 759 1011 838 915 c 1
 910 830 915 752 915 642 c 2
 915 576 l 2
 915 412 914 335 914 223 c 0
 914 168 940 139 1000 100 c 1
 912 -17 l 1
 832 28 758 81 758 208 c 2
 758 576 l 2
EndSplineSet
Validated: 1
EndChar

StartChar: i
Encoding: 105 105 9
Width: 1120
VWidth: 0
Flags: W
HStem: -18 142<627.434 990.467> 857 156<204.467 458> 1178 225<394 629>
VStem: 394 235<1178 1400> 458 160<133.613 857>
LayerCount: 2
Fore
SplineSet
394 1403 m 1xf0
 629 1400 l 1
 629 1175 l 1
 394 1178 l 1
 394 1403 l 1xf0
EndSplineSet
Refer: 177 305 N 1 0 0 1 40 0 2
Validated: 1
EndChar

StartChar: j
Encoding: 106 106 10
Width: 1120
VWidth: 0
Flags: W
HStem: -387 156<406.311 671.621> 864 155<454.191 706> 1179 225<640 874>
VStem: 640 234<1179 1401> 707 156<-196.669 864>
LayerCount: 2
Fore
SplineSet
640 1404 m 1xf0
 874 1401 l 1
 874 1176 l 1
 640 1179 l 1
 640 1404 l 1xf0
EndSplineSet
Refer: 321 567 N 1 0 0 1 40 0 2
Validated: 1
EndChar

StartChar: k
Encoding: 107 107 11
Width: 1120
VWidth: -2
Flags: W
HStem: 872 144<540.523 758.984> 1407 20G<236.455 310.5>
VStem: 176 157<0 469 611.15 735.644 880 1381.07> 782 157<618.956 848.248>
LayerCount: 2
Fore
SplineSet
626 566 m 0
 727 566 782 657 782 745 c 0
 782 763 780 780 775 795 c 0
 765 828 733 872 670 872 c 0
 646 872 618 866 585 850 c 0
 486 803 407 758 333 708 c 1
 333 618 l 1
 417 605 482 590 531 579 c 0
 568 571 599 566 626 566 c 0
333 880 m 1
 405 929 555 1016 661 1016 c 0
 797 1016 920 933 934 814 c 4
 937 791 939 761 939 732 c 4
 939 699 936 665 931 639 c 4
 925 605 873 503 770 454 c 1
 868 381 866 261 919 173 c 0
 943 134 969 113 1002 89 c 1
 918 -19 l 1
 795 41 760 159 733 238 c 0
 683 383 458 455 334 469 c 1
 334 469 332 279 332 129 c 0
 332 79 333 33 333 0 c 1
 176 0 l 1
 176 1228 l 2
 176 1289 166 1342 153 1383 c 1
 306 1427 l 1
 315 1404 333 1359 333 1293 c 2
 333 880 l 1
EndSplineSet
Validated: 1
EndChar

StartChar: l
Encoding: 108 108 12
Width: 1120
VWidth: -2
Flags: W
HStem: -16 142<568.434 931.467> 1273 155<143.466 396>
VStem: 399 160<135.613 1273>
LayerCount: 2
Fore
SplineSet
436 1428 m 2
 556 1428 l 1
 556 1155 559 212 559 212 c 1
 564 130 604 126 696 126 c 0
 789 126 913 147 982 199 c 1
 1050 85 l 1
 964 14 821 -16 697 -16 c 0
 612 -16 536 -2 492 22 c 0
 407 69 399 149 399 208 c 2
 396 1273 l 1
 347 1273 234 1266 139 1244 c 1
 111 1387 l 1
 223 1413 332 1428 436 1428 c 2
EndSplineSet
Validated: 1
EndChar

StartChar: m
Encoding: 109 109 13
Width: 1120
VWidth: 4
Flags: W
HStem: 853 167<366.785 474.055 647.325 777.486>
VStem: 129 157<0 758.452> 475 141<0 823.106> 787 156<123.69 856.389>
LayerCount: 2
Fore
SplineSet
974 -21 m 5
 903 -7 787 48 787 189 c 6
 787 191 l 5
 788 721 l 6
 788 825 757 861 730 861 c 4
 718 861 658 846 615 760 c 1
 616 0 l 1
 475 0 l 1
 475 814 l 1
 468 844 445 853 427 853 c 0
 424 853 422 852 419 852 c 0
 400 849 337 797 286 666 c 1
 286 0 l 1
 129 0 l 1
 126 809 l 2
 126 902 113 952 96 1001 c 1
 255 1041 l 1
 270 1009 284 972 286 926 c 1
 316 977 360 1020 430 1020 c 0
 504 1020 545 990 575 928 c 1
 600 969 656 1016 747 1016 c 6
 755 1016 l 6
 798 1016 845 1014 888 954 c 4
 931 894 943 834 943 739 c 6
 943 201 l 6
 943 150 994 113 1035 97 c 5
 974 -21 l 5
EndSplineSet
Validated: 1
EndChar

StartChar: o
Encoding: 111 111 14
Width: 1120
VWidth: 6
Flags: W
HStem: 1 155<383.159 670.662> 878 154<392.497 679.881>
VStem: 112 158<272.944 736.885> 783 159<279.587 758.636>
LayerCount: 2
Fore
SplineSet
694 215 m 5
 759 276 783 382 783 530 c 4
 783 536 783 542 783 548 c 4
 781 732 717 878 540 878 c 4
 332 878 270 713 270 469 c 4
 270 274 357 156 524 156 c 5
 600 157 644 173 694 215 c 5
522 1 m 5
 250 2 112 184 112 464 c 4
 112 756 214 1032 506 1032 c 4
 703 1032 813 963 883 831 c 4
 924 752 942 639 942 543 c 4
 942 258 846 1 524 1 c 6
 522 1 l 5
EndSplineSet
Validated: 1
EndChar

StartChar: n
Encoding: 110 110 15
Width: 1120
VWidth: 6
Flags: W
HStem: 872 150<449.07 710.196>
VStem: 153 158<0 778.144> 737 159<129.808 841.083>
LayerCount: 2
Fore
SplineSet
311 927 m 1
 437 993 497 1022 607 1022 c 0
 728 1022 896 945 896 796 c 2
 896 211 l 2
 896 145 946 123 1002 93 c 1
 918 -19 l 1
 829 24 737 75 737 204 c 2
 737 765 l 2
 737 839 652 872 585 872 c 0
 522 872 457 830 312 760 c 1
 311 0 l 1
 153 -1 l 1
 153 705 l 2
 153 883 145 909 121 1003 c 1
 281 1040 l 1
 291 1016 304 976 311 927 c 1
EndSplineSet
Validated: 1
EndChar

StartChar: q
Encoding: 113 113 16
Width: 1120
VWidth: -2
Flags: W
HStem: -7 155<439.119 719.98> 858 155<403.869 703.56> 998 20G<805.5 972>
VStem: 160 156<291.52 755.414> 797 156<-393.801 56 220.225 763.281>
LayerCount: 2
Fore
SplineSet
316 527 m 0xd8
 316 244 433 148 596 148 c 0
 687 148 745 211 797 262 c 1
 797 698 l 1
 726 812 678 858 541 858 c 0
 371 858 316 731 316 527 c 0xd8
953 739 m 2
 954 -146 l 2
 954 -237 949 -333 940 -406 c 1
 781 -397 l 1
 788 -329 796 -245 796 -151 c 2
 796 56 l 1
 748 25 710 -7 610 -7 c 0
 287 -7 160 210 160 546 c 0
 160 814 266 1013 541 1013 c 0xd8
 653 1013 734 978 797 922 c 1
 798 964 803 986 808 1018 c 1
 972 998 l 1xb8
 962 932 953 846 953 763 c 0
 953 755 953 747 953 739 c 2
EndSplineSet
Validated: 1
EndChar

StartChar: r
Encoding: 114 114 17
Width: 1120
VWidth: 4
Flags: W
HStem: 876 160<566.393 791.826>
VStem: 234 156<1 689.995> 802 157<734 869.776>
LayerCount: 2
Fore
SplineSet
394 886 m 1
 487 1000 591 1036 746 1036 c 0
 913 1036 959 922 959 740 c 0
 959 738 959 736 959 734 c 1
 802 734 l 1
 798 815 810 876 718 876 c 0
 617 876 490 829 390 606 c 1
 390 0 l 1
 234 1 l 1
 234 775 l 2
 234 832 194 861 132 916 c 1
 236 1057 l 1
 297 1008 357 970 394 886 c 1
EndSplineSet
Validated: 1
EndChar

StartChar: s
Encoding: 115 115 18
Width: 1120
VWidth: 6
Flags: W
HStem: -20 143<355.391 685.341> 881 148<353.448 689.835>
VStem: 132 157<192.72 329> 166 160<706.04 850.139> 755 155<188.544 389.011>
LayerCount: 2
Fore
SplineSet
283 571 m 0xe8
 218 606 166 672 166 783 c 0
 167 956 329 1029 504 1029 c 0
 626 1029 802 989 884 888 c 1
 771 777 l 1
 718 839 604 881 518 881 c 0
 412 881 326 847 326 787 c 0xd8
 326 739 343 716 383 698 c 1
 648 586 910 565 910 281 c 0
 910 119 796 28 689 0 c 1
 633 -13 573 -20 516 -20 c 0
 260 -20 132 115 132 330 c 1
 289 329 l 1
 289 195 358 123 513 123 c 0
 636 123 755 176 755 286 c 0
 755 359 724 385 669 426 c 1
 592 481 388 516 283 571 c 0xe8
EndSplineSet
Validated: 1
EndChar

StartChar: t
Encoding: 116 116 19
Width: 1120
VWidth: 0
Flags: W
HStem: -6 155<423.71 798.905> 872 145<172 200>
VStem: 202 159<209.621 865 1017 1245>
LayerCount: 2
Fore
SplineSet
361 437 m 1
 361 397 l 2
 361 264 397 163 508 152 c 0
 526 150 603 149 616 149 c 0
 681 149 745 159 770 173 c 0
 827 203 845 258 852 277 c 1
 978 221 l 1
 968 193 945 102 833 37 c 0
 775 3 703 -6 618 -6 c 0
 434 -6 312 13 241 161 c 0
 206 233 202 308 202 394 c 2
 202 437 l 1
 206 541 208 672 214 865 c 1
 200 865 l 2
 172 865 144 861 118 854 c 1
 98 1000 l 1
 122 1009 167 1012 200 1012 c 2
 215 1012 l 1
 215 1082 216 1176 216 1246 c 1
 374 1245 l 1
 374 1179 373 1085 372 1017 c 1
 494 1017 l 1
 639 1018 793 1019 793 1019 c 1
 811 1019 l 1
 811 872 l 1
 494 872 l 2
 448 872 421 869 375 869 c 1
 366 665 365 537 361 437 c 1
EndSplineSet
Validated: 1
EndChar

StartChar: u
Encoding: 117 117 20
Width: 1120
VWidth: 6
Flags: W
HStem: -10 21G<917.5 960.017> -10 21G<917.5 960.017> 2 154<360.683 625.04> 1001 20G<172.481 302>
VStem: 154 156<180.892 701.424> 779 158<276.783 1001>
LayerCount: 2
Fore
SplineSet
946 -10 m 1x9c
 889 31 835 72 813 158 c 1
 729 72 632 5 482 2 c 1
 473 2 l 2
 411 2 326 3 266 44 c 0
 221 75 154 132 154 214 c 0
 151 482 158 911 131 994 c 1
 291 1021 l 1
 313 929 308 616 310 250 c 1
 316 216 338 190 360 174 c 0
 374 164 425 156 466 156 c 1x3c
 533 159 574 167 625 198 c 0
 672 226 741 256 779 344 c 1
 780 1001 l 1
 938 1001 l 1
 937 239 l 1
 939 187 988 139 1028 107 c 1
 946 -10 l 1x9c
EndSplineSet
Validated: 1
EndChar

StartChar: v
Encoding: 118 118 21
Width: 1120
VWidth: 6
Flags: W
HStem: -3 21G<407 460>
VStem: 796 155<587.532 1011>
LayerCount: 2
Fore
SplineSet
193 1048 m 1
 263 973 285 924 311 849 c 0
 356 723 530 281 541 177 c 1
 665 320 789 610 795 817 c 0
 796 845 796 881 796 914 c 0
 796 955 796 993 794 1011 c 1
 946 1015 l 1
 949 999 951 879 951 821 c 0
 949 576 799 251 654 71 c 0
 597 0 513 -3 407 -3 c 1
 407 137 206 685 144 839 c 0
 136 860 90 927 64 952 c 1
 193 1048 l 1
EndSplineSet
Validated: 1
EndChar

StartChar: w
Encoding: 119 119 22
Width: 1160
Flags: WO
HStem: 0 176<380.012 433.887 691.84 761.542> 998 20G<827 991.5>
VStem: 481 141<411.109 823> 832 164<326.951 1018>
LayerCount: 2
Fore
SplineSet
57 984 m 1
 192 1061 l 1
 227 1002 257 913 283 794 c 0
 309 675 343 469 386 175 c 1
 449 175 481 339 481 666 c 2
 481 731 l 1
 481 745 l 2
 481 774 480 800 478 823 c 1
 622 823 l 1
 626 738 651 522 696 176 c 1
 713 176 728 182 741 194 c 0
 754 206 765 223 774 247 c 0
 783 271 791 295 798 320 c 0
 805 345 811 378 815 418 c 0
 819 458 822 491 825 520 c 0
 828 549 829 587 830 632 c 0
 831 677 832 712 832 735 c 0
 832 758 832 790 832 831 c 0
 832 909 830 971 827 1018 c 1
 989 1018 l 1
 994 971 996 907 996 827 c 0
 996 603 980 417 948 270 c 0
 939 226 927 189 912 158 c 0
 897 127 878 99 853 74 c 0
 828 49 797 30 758 18 c 0
 719 6 673 0 620 0 c 2
 586 0 l 1
 572 140 563 239 559 297 c 1
 545 218 533 164 522 136 c 1
 485 48 419 4 322 3 c 1
 317 3 l 1
 290 4 267 8 250 15 c 1
 242 82 222 221 188 430 c 0
 154 639 129 775 112 839 c 0
 97 898 78 947 57 984 c 1
EndSplineSet
Validated: 1
EndChar

StartChar: x
Encoding: 120 120 23
Width: 1120
VWidth: 4
Flags: W
HStem: 3 153<869.536 990> 1009 20G<790 945>
VStem: 790 158<912.879 1028>
LayerCount: 2
Fore
SplineSet
900 863 m 0
 850 778 732 595 652 488 c 1
 730 385 864 178 884 165 c 0
 888 162 904 156 938 156 c 0
 956 156 974 159 990 162 c 1
 990 9 l 1
 970 6 948 3 928 3 c 0
 888 3 848 15 808 43 c 1
 736 90 632 261 548 379 c 1
 398 184 241 0 226 -18 c 1
 105 84 l 1
 113 95 294 323 450 511 c 1
 366 629 252 786 120 960 c 1
 250 1061 l 1
 374 891 476 740 558 624 c 1
 630 711 686 807 756 930 c 0
 776 965 786 1011 790 1028 c 1
 948 1029 l 1
 942 980 932 914 900 863 c 0
EndSplineSet
Validated: 1
EndChar

StartChar: y
Encoding: 121 121 24
Width: 1120
VWidth: 14
Flags: W
HStem: -376 153<246.201 393.113> 889 152<60 135.747>
VStem: 46 156<-179.577 0> 778 158<748.803 1043>
LayerCount: 2
Fore
SplineSet
312 -223 m 0
 418 -223 472 -38 510 68 c 1
 416 396 233 776 136 880 c 0
 131 885 100 889 75 889 c 0
 70 889 65 888 60 888 c 1
 60 1041 l 1
 93 1041 132 1040 160 1036 c 0
 327 1011 489 612 602 287 c 1
 676 504 770 816 778 1043 c 1
 936 1043 l 1
 936 983 931 926 922 875 c 0
 857 522 728 169 596 -142 c 1
 543 -277 465 -376 316 -376 c 0
 141 -376 51 -173 46 0 c 1
 202 0 l 1
 206 -95 232 -223 312 -223 c 0
EndSplineSet
Validated: 1
EndChar

StartChar: z
Encoding: 122 122 25
Width: 1120
VWidth: 6
Flags: W
HStem: -9 21G<878.5 906.517> -9 21G<878.5 906.517> 13 156<286 898.911> 854 157<164 712>
LayerCount: 2
Fore
SplineSet
137 866 m 1xb0
 164 1017 l 1
 210 1012 321 1011 445 1011 c 0
 631 1011 847 1014 917 1016 c 1
 941 901 l 1
 930 890 797 736 592 523 c 1
 469 398 361 302 286 169 c 1
 772 168 l 2
 828 168 880 156 941 136 c 1
 901 -9 l 1
 856 4 839 13 774 13 c 2
 111 13 l 1
 111 33 l 2
 111 106 112 158 133 202 c 0
 209 361 339 469 476 618 c 0
 572 723 650 799 712 857 c 1
 644 856 543 854 442 854 c 0
 317 854 194 857 137 866 c 1xb0
EndSplineSet
Validated: 1
EndChar

StartChar: A
Encoding: 65 65 26
Width: 1120
VWidth: 0
Flags: W
HStem: 355 178<384.946 732> 1395 20G<498.498 629.344>
LayerCount: 2
Fore
SplineSet
732 534 m 5
 564 1070 l 5
 382 512 l 5
 445 526 498 529 585 533 c 5
 732 534 l 5
505 1415 m 5
 623 1415 l 5
 1068 12 l 5
 896 -21 l 5
 792 355 l 5
 644 352 439 353 322 324 c 5
 215 -26 l 5
 45 0 l 5
 505 1415 l 5
EndSplineSet
Validated: 1
EndChar

StartChar: B
Encoding: 66 66 27
Width: 1120
VWidth: 0
Flags: W
HStem: -5 165<285 726.63> 705 170<291 569.453> 1254 162<291.221 577.025>
VStem: 123 166<167 705 875 1246.12> 642 165<935.771 1191.68> 843 167<281.078 594.295>
LayerCount: 2
Fore
SplineSet
123 897 m 4
 123 1086 119 1263 110 1401 c 5
 195 1408 246 1416 365 1416 c 4
 371 1416 378 1416 384 1416 c 4
 600 1416 807 1327 807 1092 c 4
 807 987 780 897 716 836 c 5
 879 779 1010 635 1010 428 c 4
 1010 183 853 25 678 3 c 4
 637 -2 594 -5 553 -5 c 4
 464 -5 369 3 256 3 c 6
 113 3 l 5
 113 214 123 444 123 897 c 4
642 1081 m 6
 642 1204 540 1254 396 1254 c 6
 378 1254 l 6
 337 1254 321 1251 289 1248 c 5
 292 1208 293 1160 293 1109 c 4
 293 1036 291 956 291 875 c 5
 444 878 496 871 591 931 c 4
 619 948 642 1009 642 1073 c 6
 642 1081 l 6
764 630 m 4
 687 696 624 707 524 707 c 4
 473 707 412 705 335 705 c 6
 289 705 l 5
 287 447 286 250 285 167 c 5
 398 167 440 160 519 160 c 4
 561 160 597 162 634 167 c 4
 745 181 843 289 843 446 c 4
 843 532 819 583 764 630 c 4
EndSplineSet
Validated: 1
EndChar

StartChar: C
Encoding: 67 67 28
Width: 1120
VWidth: 0
Flags: W
HStem: -3 168<426.747 755.712> 1256 168<460.84 743.776>
VStem: 80 167<385.758 982.633>
LayerCount: 2
Fore
SplineSet
618 1256 m 0
 497 1256 404 1185 354 1112 c 1
 307 1041 247 914 247 681 c 0
 247 502 279 343 382 244 c 0
 447 181 498 165 584 165 c 2
 598 165 l 1
 752 170 843 251 897 373 c 1
 1043 290 l 1
 965 121 825 -3 625 -3 c 2
 622 -3 l 2
 505 -3 367 24 268 124 c 1
 142 257 80 436 80 679 c 0
 80 956 164 1126 219 1209 c 0
 295 1325 438 1424 622 1424 c 0
 769 1424 903 1332 995 1159 c 1
 853 1070 l 1
 789 1201 708 1256 618 1256 c 0
EndSplineSet
Validated: 1
EndChar

StartChar: D
Encoding: 68 68 29
Width: 1120
VWidth: 0
Flags: W
HStem: -11 165<262 703.178> 1256 166<269.885 577.506>
VStem: 101 166<157 1252.71> 872 167<342.739 893.533>
LayerCount: 2
Fore
SplineSet
345 1256 m 2
 314 1256 l 2
 297 1256 285 1257 267 1254 c 1
 268 1227 268 1193 268 1160 c 0
 268 1092 267 1018 267 944 c 0
 267 617 263 262 262 157 c 1
 354 154 402 154 465 154 c 0
 642 154 775 182 843 377 c 0
 860 426 872 522 872 581 c 0
 872 754 833 936 765 1040 c 0
 672 1180 577 1256 345 1256 c 2
94 136 m 1
 94 195 101 619 101 962 c 2
 101 1043 l 2
 101 1180 96 1313 87 1407 c 1
 172 1416 219 1422 323 1422 c 0
 608 1422 772 1334 901 1139 c 1
 989 1004 1039 812 1039 619 c 0
 1039 545 1030 472 1016 401 c 0
 966 144 797 16 608 -3 c 0
 550 -8 497 -11 439 -11 c 0
 351 -11 211 -3 91 -3 c 1
 91 33 91 31 94 136 c 1
EndSplineSet
Validated: 1
EndChar

StartChar: E
Encoding: 69 69 30
Width: 1120
VWidth: 0
Flags: W
HStem: -3 164<291 964.953> 726 164<294 754> 1247 167<294 954>
VStem: 128 166<161 726 890 1247>
LayerCount: 2
Fore
SplineSet
128 1409 m 5
 187 1413 260 1414 342 1414 c 4
 375 1414 409 1414 445 1414 c 6
 561 1414 l 6
 717 1414 860 1410 938 1410 c 6
 954 1410 l 5
 954 1247 l 5
 294 1247 l 5
 294 890 l 5
 754 890 l 5
 754 726 l 5
 294 726 l 5
 294 693 l 6
 294 472 291 245 291 161 c 5
 842 162 l 6
 901 162 965 191 965 191 c 5
 1011 29 l 5
 961 15 924 -3 844 -3 c 6
 128 -3 l 5
 128 1409 l 5
EndSplineSet
Validated: 1
EndChar

StartChar: F
Encoding: 70 70 31
Width: 1120
VWidth: 0
Flags: W
HStem: 728 164<307 766.161> 1248 167<307 968.737>
VStem: 143 164<3 725 888 1246>
LayerCount: 2
Fore
SplineSet
312 -1 m 1
 143 3 l 1
 143 1415 l 1
 862 1415 l 1
 943 1412 993 1396 1029 1377 c 1
 970 1218 l 1
 943 1233 920 1247 817 1248 c 1
 743 1248 l 2
 634 1248 499 1247 307 1246 c 1
 307 888 l 1
 433 888 503 892 631 892 c 0
 723 892 785 876 786 876 c 2
 805 871 l 1
 768 713 l 1
 729 723 675 728 628 728 c 0
 517 728 420 728 307 725 c 1
 307 593 312 100 312 -1 c 1
EndSplineSet
Validated: 1
EndChar

StartChar: G
Encoding: 71 71 32
Width: 1120
VWidth: 0
Flags: W
HStem: -9 169<409.757 765.806> 638 164<481.39 888> 1254 166<404.093 755.188>
VStem: 42 170<386.374 1008.04> 888 174<306.886 640>
LayerCount: 2
Fore
SplineSet
925 799 m 0
 973 799 1018 803 1062 807 c 1
 1062 659 l 2
 1062 185 934 53 747 3 c 1
 700 -8 632 -9 588 -9 c 0
 206 -9 42 306 42 685 c 0
 42 943 97 1155 235 1293 c 1
 340 1389 460 1420 581 1420 c 2
 602 1420 l 1
 827 1415 967 1296 1046 1118 c 1
 896 1043 l 1
 841 1167 753 1254 590 1254 c 0
 502 1254 438 1247 356 1174 c 0
 239 1070 212 860 212 673 c 0
 212 391 294 160 598 160 c 0
 628 160 659 162 686 170 c 0
 815 201 888 288 888 640 c 1
 861 638 836 638 812 638 c 0
 779 638 748 639 718 639 c 0
 643 639 571 633 477 597 c 1
 435 755 l 1
 536 794 645 802 751 802 c 0
 810 802 868 799 925 799 c 0
EndSplineSet
Validated: 1
EndChar

StartChar: H
Encoding: 72 72 33
Width: 1120
VWidth: 0
Flags: W
HStem: 681 166<256.831 813> 1393 15G<84 251.966 812 979>
VStem: 84 167<0 659.026 816 1410> 813 166<0 681 847 1408>
LayerCount: 2
Fore
SplineSet
252 1413 m 5
 251 816 l 5
 348 839 447 847 573 847 c 6
 813 847 l 5
 813 1146 812 1231 812 1408 c 5
 979 1408 l 5
 979 0 l 5
 813 0 l 5
 813 681 l 5
 768 681 722 681 677 681 c 4
 524 681 375 678 251 651 c 5
 251 277 253 197 253 0 c 5
 84 0 l 5
 84 1410 l 5
 252 1413 l 5
EndSplineSet
Validated: 1
EndChar

StartChar: K
Encoding: 75 75 34
Width: 1120
VWidth: 0
Flags: W
HStem: -5 21G<143 309> 1406 20G<143 309 915 946.172>
VStem: 143 166<-5 550.647 766 1426>
LayerCount: 2
Fore
SplineSet
529 790 m 5
 655 662 1019 211 1073 64 c 5
 932 -19 l 5
 884 100 565 517 428 654 c 5
 428 654 341 547 309 470 c 5
 309 -5 l 5
 143 -5 l 5
 143 1426 l 5
 309 1426 l 5
 309 766 l 5
 393 887 467 974 571 1086 c 5
 772 1299 904 1405 926 1428 c 5
 1043 1312 l 5
 852 1168 592 870 529 790 c 5
EndSplineSet
Validated: 1
EndChar

StartChar: L
Encoding: 76 76 35
Width: 1120
VWidth: 0
Flags: W
HStem: -3 168<338 1009.86> 1395 20G<169 338>
VStem: 169 169<165 1415>
LayerCount: 2
Fore
SplineSet
169 -3 m 5
 169 1415 l 5
 338 1415 l 5
 338 165 l 5
 885 165 l 5
 947 168 966 173 1012 189 c 5
 1055 29 l 5
 1006 12 966 -3 887 -3 c 6
 169 -3 l 5
EndSplineSet
Validated: 1
EndChar

StartChar: M
Encoding: 77 77 36
Width: 1120
VWidth: 31
Flags: W
HStem: -5 21G<43.9579 210 746.94 912> 1411 20G<41 182 746.5 910.028>
VStem: 44 166<-5 981> 747 165<-5 1003>
LayerCount: 2
Fore
SplineSet
41 1421 m 5
 147 1431 l 5
 217 1325 296 1155 368 1022 c 4
 420 924 447 868 467 827 c 5
 554 996 704 1289 789 1431 c 5
 910 1431 l 5
 912 -5 l 5
 747 -5 l 5
 744 1003 l 5
 666 849 544 627 532 588 c 5
 404 591 l 5
 396 608 335 728 243 912 c 5
 221 960 226 950 210 981 c 5
 210 -5 l 5
 44 -5 l 5
 41 1421 l 5
EndSplineSet
Validated: 1
EndChar

StartChar: N
Encoding: 78 78 37
Width: 1120
VWidth: 0
Flags: W
HStem: -3 17G<100 267 725.5 978> 1395 19G<100 267 816.5 983>
VStem: 100 166<-3 1091> 808 166<-5 100.796 389 1414>
LayerCount: 2
Fore
SplineSet
811 -7 m 5
 640 382 478 706 266 1091 c 5
 266 869 l 6
 266 550 267 163 267 -3 c 5
 100 -3 l 5
 100 1415 l 5
 267 1410 l 5
 399 1209 689 659 812 389 c 5
 810 531 808 679 808 825 c 4
 808 1028 812 1228 821 1414 c 5
 983 1414 l 5
 977 1291 974 1128 974 950 c 4
 974 704 979 428 979 177 c 4
 979 115 978 53 978 -5 c 5
 811 -7 l 5
EndSplineSet
Validated: 1
EndChar

StartChar: O
Encoding: 79 79 38
Width: 1120
VWidth: 0
Flags: W
HStem: -17 167<389.535 701.41> 1275 167<422.109 706.308>
VStem: 64 167<352.638 994.501> 876 166<389.013 1008.4>
LayerCount: 2
Fore
SplineSet
569 1442 m 5
 699 1442 1037 1362 1042 689 c 5
 1042 677 l 6
 1042 498 995 331 945 230 c 4
 866 73 729 -17 556 -17 c 4
 428 -17 294 29 209 138 c 4
 115 258 64 424 64 620 c 4
 64 996 144 1158 218 1262 c 4
 287 1360 405 1439 569 1442 c 5
319 264 m 4
 370 193 443 150 556 150 c 4
 678 150 754 223 801 313 c 5
 843 383 875 563 876 680 c 5
 876 701 l 6
 876 826 857 993 801 1105 c 4
 740 1229 666 1275 574 1275 c 4
 474 1275 416 1245 355 1162 c 4
 283 1065 231 911 231 625 c 4
 231 512 260 344 319 264 c 4
EndSplineSet
Validated: 1
EndChar

StartChar: P
Encoding: 80 80 39
Width: 1120
VWidth: 0
Flags: W
HStem: -11 21G<130 296> 501 166<297 713.04> 1255 165<298 736.704>
VStem: 130 168<-10 505 668 1249> 877 170<805.437 1138.95>
LayerCount: 2
Fore
SplineSet
877 981 m 4
 877 1208 715 1248 457 1255 c 5
 393 1255 345 1250 298 1249 c 5
 298 1112 l 6
 298 913 297 668 297 668 c 5
 335 667 370 667 405 667 c 4
 705 667 877 732 877 981 c 4
296 -11 m 5
 130 -10 l 5
 130 1410 l 5
 254 1410 294 1420 434 1420 c 4
 670 1420 849 1405 970 1255 c 4
 1027 1184 1047 1086 1047 988 c 4
 1047 889 1039 780 976 685 c 4
 873 532 709 501 458 501 c 4
 408 501 354 503 297 505 c 5
 297 218 296 159 296 -11 c 5
EndSplineSet
Validated: 1
EndChar

StartChar: Q
Encoding: 81 81 40
Width: 1120
VWidth: 0
Flags: W
HStem: -143 165<824.964 1043> -3 160<424.256 646.005> 306 162<442.763 622.587> 1256 167<393.276 678.591>
VStem: 74 167<371.778 1055.07> 843 167<383.688 1057.54>
LayerCount: 2
Fore
SplineSet
954 -143 m 0xbc
 833 -143 702 -122 675 16 c 1
 632 4 589 -3 547 -3 c 0x7c
 425 -3 312 44 229 132 c 0
 124 245 74 445 74 686 c 0
 74 912 104 1121 204 1254 c 0
 302 1385 405 1423 534 1423 c 0
 709 1423 832 1352 915 1198 c 0
 1005 1031 1010 861 1010 740 c 0
 1010 575 988 385 912 252 c 0
 870 180 848 146 813 106 c 1
 825 26 859 23 943 22 c 1
 954 22 l 2
 993 22 1018 26 1043 33 c 1
 1043 -133 l 1
 1020 -138 1001 -143 954 -143 c 0xbc
525 468 m 0
 650 468 736 414 771 312 c 1
 830 389 843 545 843 724 c 0
 843 734 843 743 843 753 c 0
 843 867 840 993 771 1115 c 0
 723 1199 638 1256 532 1256 c 0
 342 1256 241 1071 241 753 c 0
 241 642 242 472 306 314 c 1
 341 437 475 468 525 468 c 0
647 181 m 1
 634 271 610 306 533 306 c 0
 472 306 422 260 422 199 c 0
 422 198 422 197 422 196 c 0
 449 167 496 157 536 157 c 0
 569 157 609 165 647 181 c 1
EndSplineSet
Validated: 1
EndChar

StartChar: R
Encoding: 82 82 41
Width: 1120
VWidth: 0
Flags: W
HStem: 618 166<281 513.98> 1254 167<278.446 674.376>
VStem: 116 165<0 618 775.349 1252> 852 163<824.071 1120.21>
LayerCount: 2
Fore
SplineSet
706 589 m 1
 788 456 905 260 964 189 c 1
 983 172 1015 134 1059 122 c 1
 998 -24 l 1
 937 -14 880 27 844 73 c 1
 742 190 577 480 518 582 c 1
 432 591 361 604 281 618 c 1
 281 0 l 1
 116 0 l 1
 116 1213 l 2
 116 1286 114 1338 110 1404 c 1
 154 1408 275 1421 339 1421 c 0
 602 1421 799 1406 927 1242 c 0
 977 1178 1015 1083 1015 991 c 0
 1015 751 891 621 706 589 c 1
852 976 m 0
 852 1187 657 1254 344 1254 c 0
 317 1254 308 1253 278 1252 c 1
 281 784 l 1
 385 764 467 739 553 739 c 0
 570 739 588 740 605 742 c 0
 752 762 852 799 852 976 c 0
EndSplineSet
Validated: 1
EndChar

StartChar: S
Encoding: 83 83 42
Width: 1120
VWidth: 0
Flags: W
HStem: -10 165<365.752 744.469> 1251 168<336.832 723.64>
VStem: 66 166<277.016 450> 97 167<968.253 1182.26> 810 167<1104.34 1165.79> 849 168<253.008 561.312>
LayerCount: 2
Fore
SplineSet
280 773 m 5xe4
 184 820 97 919 97 1078 c 4
 97 1313 292 1419 514 1419 c 4
 517 1419 521 1419 524 1419 c 4
 758 1416 937 1333 977 1107 c 5
 810 1076 l 5
 770 1214 682 1251 520 1251 c 4
 413 1251 348 1228 300 1179 c 5
 275 1152 264 1120 264 1083 c 4xd8
 264 994 312 951 371 923 c 4
 494 862 658 863 797 798 c 5
 910 741 1017 613 1017 423 c 4
 1017 130 820 -10 568 -10 c 6
 548 -10 l 5
 177 0 66 207 66 450 c 5
 232 450 l 5
 232 277 319 155 554 155 c 4
 769 155 849 258 849 414 c 4
 849 531 788 605 705 642 c 4
 583 696 420 708 280 773 c 5xe4
EndSplineSet
Validated: 1
EndChar

StartChar: T
Encoding: 84 84 43
Width: 1120
VWidth: 0
Flags: W
HStem: -10 21G<444 612> -10 21G<444 612> 1247 169<62 444 612 975.953>
VStem: 444 168<-10 1247>
LayerCount: 2
Fore
SplineSet
444 -10 m 5xb0
 444 1247 l 5
 236 1247 142 1246 62 1246 c 5
 62 1415 l 5
 190 1415 667 1416 864 1416 c 4
 941 1416 992 1403 1011 1400 c 5
 976 1234 l 5
 976 1234 911 1247 859 1247 c 6
 612 1247 l 5
 612 -10 l 5
 444 -10 l 5xb0
EndSplineSet
Validated: 1
EndChar

StartChar: U
Encoding: 85 85 44
Width: 1120
VWidth: 0
Flags: W
HStem: -11 165<376.688 692.021> 1411 8G<91 260 832 1002>
VStem: 85 167<311.039 1419> 823 169<307.281 1417.39>
LayerCount: 2
Fore
SplineSet
837 1431 m 1
 1002 1417 l 1
 993 1352 992 1305 992 1246 c 0
 992 1088 994 949 994 828 c 2
 994 765 l 2
 994 512 991 271 873 130 c 0
 787 26 673 -6 538 -11 c 1
 215 -11 111 170 92 487 c 0
 87 569 85 702 85 849 c 0
 85 1036 88 1247 94 1419 c 1
 260 1419 l 1
 256 1239 252 996 252 794 c 0
 252 660 254 544 259 479 c 0
 278 250 364 154 524 154 c 1
 635 159 690 184 747 245 c 1
 817 326 828 550 828 765 c 0
 828 899 823 1059 823 1244 c 0
 823 1321 827 1363 837 1431 c 1
EndSplineSet
Validated: 1
EndChar

StartChar: V
Encoding: 86 86 45
Width: 1120
VWidth: 0
Flags: W
HStem: -5 21G<442.5 624>
VStem: 455 169<-4 181.631>
LayerCount: 2
Fore
SplineSet
455 -5 m 1
 430 204 128 1159 29 1402 c 1
 189 1460 l 1
 295 1185 437 755 540 354 c 1
 618 696 794 1174 900 1444 c 1
 1058 1386 l 1
 955 1134 643 214 624 -4 c 1
 455 -5 l 1
EndSplineSet
Validated: 1
EndChar

StartChar: W
Encoding: 87 87 46
Width: 1120
VWidth: 0
Flags: W
HStem: -3 21G<232.5 395.5 686.827 851.5> 1417 20G<103 221 844 964.108>
VStem: 255 138<-3 171.878> 461 175<809.296 1043> 691 143<-3 192.462> 876 163<1181.77 1399.25>
LayerCount: 2
Fore
SplineSet
393 -3 m 1
 255 -3 l 1
 210 182 82 1128 34 1402 c 1
 195 1437 l 1
 247 1151 303 718 351 370 c 1
 399 609 455 966 461 1043 c 1
 508 1043 600 1043 636 1056 c 1
 674 848 720 563 760 360 c 1
 796 672 812 1179 876 1433 c 1
 1039 1396 l 1
 984 1122 869 191 834 -3 c 1
 691 -3 l 1
 691 -3 585 467 551 668 c 1
 502 423 398 10 393 -3 c 1
EndSplineSet
Validated: 1
EndChar

StartChar: X
Encoding: 88 88 47
Width: 1120
VWidth: 0
Flags: W
LayerCount: 2
Fore
SplineSet
855 1461 m 5
 995 1368 l 5
 617 716 l 5
 797 425 899 233 1048 84 c 5
 939 -39 l 5
 779 121 683 290 523 554 c 5
 189 -34 l 5
 50 59 l 5
 420 713 l 5
 294 935 192 1179 45 1349 c 5
 176 1451 l 5
 312 1292 412 1058 520 871 c 5
 855 1461 l 5
EndSplineSet
Validated: 1
EndChar

StartChar: Y
Encoding: 89 89 48
Width: 1120
VWidth: 0
Flags: W
HStem: -7 21G<440 608>
VStem: 440 168<-7 697.852>
LayerCount: 2
Fore
SplineSet
440 -7 m 5
 440 147 l 6
 440 245 447 525 447 655 c 5
 364 776 110 1254 56 1370 c 5
 203 1448 l 5
 245 1364 447 976 538 827 c 5
 641 979 850 1367 890 1462 c 5
 1036 1376 l 5
 987 1274 910 1118 800 935 c 5
 709 792 635 671 615 643 c 5
 615 592 613 540 613 481 c 5
 610 337 608 182 608 136 c 6
 608 -7 l 5
 440 -7 l 5
EndSplineSet
Validated: 1
EndChar

StartChar: Z
Encoding: 90 90 49
Width: 1120
VWidth: 0
Flags: W
HStem: -3 167<297 990.841> 1254 166<114 814>
LayerCount: 2
Fore
SplineSet
150 -5 m 5
 50 90 l 5
 814 1254 l 5
 589 1254 234 1248 114 1248 c 5
 113 1415 l 5
 239 1415 683 1420 880 1420 c 4
 959 1420 1007 1405 1027 1402 c 5
 1024 1366 1012 1277 1008 1252 c 5
 297 165 l 5
 808 164 l 6
 897 164 926 168 994 191 c 5
 1036 29 l 5
 989 12 949 -3 870 -3 c 6
 615 -3 l 6
 392 -3 208 -5 158 -5 c 6
 150 -5 l 5
EndSplineSet
Validated: 1
EndChar

StartChar: I
Encoding: 73 73 50
Width: 1120
VWidth: 0
Flags: W
HStem: 5 161<162 464 632 912> 1247 168<166 464 632 917>
VStem: 464 168<166 1255>
LayerCount: 2
Fore
SplineSet
160 1415 m 5
 324 1419 429 1419 530 1419 c 4
 640 1419 746 1418 917 1416 c 5
 917 1250 l 5
 788 1250 733 1256 632 1256 c 5
 632 166 l 5
 680 166 707 166 761 166 c 4
 808 166 857 165 912 162 c 5
 912 -1 l 5
 823 4 758 5 692 5 c 4
 643 5 591 4 529 4 c 4
 451 4 325 -3 162 -3 c 5
 162 159 l 5
 251 163 325 165 385 165 c 6
 464 165 l 5
 464 1255 l 5
 395 1254 277 1254 166 1247 c 5
 160 1415 l 5
EndSplineSet
Validated: 1
EndChar

StartChar: J
Encoding: 74 74 51
Width: 1120
VWidth: 0
Flags: W
HStem: -9 163<330.692 575.285> 1249 166<334.302 659.11 828 1023>
VStem: 63 168<270.368 463> 686 166<303.145 1213.67>
LayerCount: 2
Fore
SplineSet
456 -9 m 0
 167 -9 65 229 63 464 c 1
 231 463 l 1
 237 299 293 154 454 154 c 0
 649 154 686 356 686 718 c 0
 686 822 669 1098 656 1247 c 1
 605 1247 522 1249 483 1249 c 1
 374 1246 361 1237 333 1230 c 1
 293 1391 l 1
 325 1399 357 1412 481 1415 c 1
 633 1415 861 1414 1025 1414 c 1
 1023 1247 l 1
 973 1247 880 1248 828 1248 c 1
 845 1054 852 834 852 700 c 0
 852 314 802 -9 456 -9 c 0
EndSplineSet
Validated: 1
EndChar

StartChar: zero
Encoding: 48 48 52
Width: 1120
VWidth: 0
Flags: W
HStem: -16 153<437.926 623.853> 1155 153<450.079 617.077>
VStem: 153 155<455.741 932.998> 752 155<334.427 814.352>
LayerCount: 2
Fore
SplineSet
320 455 m 1
 709 953 l 1
 678 1053 604 1155 531 1155 c 0
 480 1155 416 1090 378 1006 c 0
 340 924 308 745 308 598 c 0
 308 548 316 479 320 455 c 1
746 818 m 1
 354 317 l 1
 380 222 460 137 533 137 c 0
 592 137 649 191 687 277 c 0
 726 366 752 520 752 679 c 0
 752 728 750 777 746 818 c 1
247 1088 m 1
 305 1215 402 1308 530 1308 c 0
 652 1308 749 1226 810 1108 c 1
 872 994 907 839 907 660 c 0
 907 481 874 318 815 196 c 1
 754 75 661 -16 533 -16 c 0
 415 -16 312 56 250 169 c 0
 188 282 153 436 153 616 c 0
 153 799 186 963 247 1088 c 1
EndSplineSet
Validated: 1
EndChar

StartChar: period
Encoding: 46 46 53
Width: 1120
VWidth: 26
Flags: W
HStem: 0 269<437 688>
VStem: 437 251<0 269>
LayerCount: 2
Fore
SplineSet
437 269 m 1
 688 269 l 1
 688 0 l 1
 437 0 l 1
 437 269 l 1
EndSplineSet
Validated: 1
EndChar

StartChar: comma
Encoding: 44 44 54
Width: 1120
VWidth: 26
Flags: W
HStem: -393 667
VStem: 441 258<5 274> 529 170<-164.236 5>
LayerCount: 2
Fore
SplineSet
441 274 m 1xc0
 692 274 l 1
 699 11 l 1
 699 8 l 2xc0
 699 -189 615 -317 448 -393 c 1
 387 -254 l 1
 479 -203 529 -133 529 5 c 1xa0
 441 5 l 1
 441 274 l 1xc0
EndSplineSet
Validated: 1
EndChar

StartChar: ae
Encoding: 230 230 65
Width: 1120
VWidth: 6
Flags: W
HStem: 4 158<246.037 421.669 648.828 866.862> 465 150<634 865> 508 153<259.84 479.103> 869 154<226.656 431.379 668.541 827.909>
VStem: 63 154<188.584 466.602> 481 153<226.97 465 629 818.014> 865 151<623 834.062>
LayerCount: 2
Fore
SplineSet
217 324 m 0xbe
 217 216 258 162 341 162 c 0
 431 162 470 299 481 327 c 1
 481 474 l 1
 438 499 396 508 342 508 c 0
 264 508 217 425 217 324 c 0xbe
634 615 m 1xde
 723 621 781 623 865 623 c 1
 865 729 843 869 773 869 c 0
 645 869 634 777 634 615 c 1xde
545 97 m 1
 515 63 455 4 352 4 c 0
 289 4 224 19 170 57 c 0
 89 114 63 211 63 309 c 0
 63 476 127 661 331 661 c 0xbe
 408 661 443 645 481 629 c 1
 481 726 459 870 340 870 c 2
 331 870 l 2
 279 870 249 867 183 767 c 1
 173 753 l 1
 56 827 l 1
 67 845 l 1
 152 979 217 1023 340 1023 c 0
 396 1023 442 1015 503 968 c 1
 522 952 541 928 553 909 c 1
 594 970 642 1023 764 1023 c 0
 1008 1023 1016 674 1016 475 c 1
 634 465 l 1
 634 220 l 1
 659 191 710 161 773 161 c 0
 832 161 883 217 921 270 c 1
 1028 170 l 1
 935 44 831 5 754 5 c 0
 673 5 601 38 545 97 c 1
EndSplineSet
Validated: 1
EndChar

StartChar: exclam
Encoding: 33 33 68
Width: 1120
VWidth: 0
Flags: W
HStem: 0 270<428 678> 1356 20G<455 653>
VStem: 428 250<0 270> 455 198<557.952 1376> 471 166<463 1280.84>
LayerCount: 2
Fore
SplineSet
653 1376 m 1xd0
 637 463 l 1
 471 461 l 1xc8
 455 1376 l 1
 653 1376 l 1xd0
428 270 m 1xe0
 678 270 l 1
 678 0 l 1
 428 0 l 1
 428 270 l 1xe0
EndSplineSet
Validated: 1
EndChar

StartChar: quotesingle
Encoding: 39 39 70
Width: 1120
VWidth: -25
Flags: W
HStem: 816 651
VStem: 592 253<1278.81 1435.87>
LayerCount: 2
Fore
SplineSet
592 1467 m 1
 845 1434 l 1
 809 1135 627 925 498 816 c 1
 362 956 l 1
 429 1013 568 1239 592 1467 c 1
EndSplineSet
Validated: 1
EndChar

StartChar: Aring
Encoding: 197 197 76
Width: 1120
VWidth: -8
Flags: W
HStem: 355 178<384.946 732> 1571 124<485.557 646.087>
VStem: 351 129<1439.93 1560.63> 652 132<1439.93 1561.04>
LayerCount: 2
Fore
SplineSet
351 1500 m 0
 351 1611 453 1695 568 1695 c 0
 683 1695 784 1611 784 1500 c 0
 784 1417 729 1350 653 1321 c 1
 1068 12 l 1
 896 -21 l 1
 792 355 l 1
 644 352 439 353 322 324 c 1
 215 -26 l 1
 45 0 l 1
 476 1324 l 1
 404 1355 351 1421 351 1500 c 0
480 1502 m 0
 480 1467 516 1430 567 1430 c 0
 618 1430 652 1467 652 1502 c 0
 652 1537 619 1571 567 1571 c 0
 515 1571 480 1537 480 1502 c 0
732 534 m 1
 564 1070 l 1
 382 512 l 1
 445 526 498 529 585 533 c 1
 732 534 l 1
EndSplineSet
Validated: 1
EndChar

StartChar: ccedilla
Encoding: 231 231 81
Width: 1120
VWidth: 12
Flags: W
HStem: -358 125<475.445 680.66> -119 269<523.228 661.168> 865 153<393.88 739.499>
VStem: 111 159<292.678 736.59> 684 136<-226.217 -127.936>
LayerCount: 2
Fore
SplineSet
270 527 m 0
 270 157 477 150 587 150 c 2
 600 150 l 2
 756 150 831 215 883 302 c 1
 1009 211 l 1
 979 172 897 19 665 -4 c 1
 665 -19 l 1
 762 -24 820 -86 820 -190 c 0
 820 -291 720 -358 636 -358 c 0
 570 -358 498 -333 442 -297 c 1
 480 -191 l 1
 513 -209 553 -233 604 -233 c 0
 640 -233 681 -213 684 -175 c 1
 684 -173 l 2
 684 -144 646 -119 598 -119 c 0
 550 -119 548 -126 520 -136 c 1
 520 -4 l 1
 438 2 352 20 281 73 c 1
 151 174 111 328 111 527 c 0
 111 894 289 1018 604 1018 c 0
 699 1018 773 994 833 948 c 0
 894 901 925 841 947 789 c 1
 793 729 l 1
 782 770 753 865 593 865 c 0
 372 865 270 766 270 527 c 0
EndSplineSet
Validated: 1
EndChar

StartChar: AE
Encoding: 198 198 82
Width: 1120
VWidth: 0
Flags: W
HStem: -5 169<671.238 1009> 29 135<675.453 1009> 535 153<367.568 471> 742 166<624 925> 1273 169<582 1028>
LayerCount: 2
Fore
SplineSet
1049 29 m 1x78
 1002 12 962 -5 883 -5 c 2
 524 -5 l 1
 524 131 l 1
 514 263 495 397 483 532 c 1
 460 534 440 535 421 535 c 0
 393 535 368 532 335 524 c 1
 181 -17 l 1
 44 39 l 1
 179 503 272 971 372 1439 c 1
 459 1439 l 1
 534 1442 642 1442 755 1442 c 2
 1028 1442 l 1
 1028 1275 l 1
 1010 1275 l 2
 923 1275 903 1273 774 1273 c 2
 582 1273 l 1
 582 1224 l 2
 582 1201 600 989 608 903 c 1
 662 904 725 908 814 908 c 2
 925 908 l 1
 925 742 l 1
 814 742 l 2
 728 742 671 738 624 737 c 1
 626 727 626 716 626 706 c 1
 653 468 669 249 674 164 c 1
 1009 164 l 1xb8
 1049 29 l 1x78
471 688 m 1
 471 703 l 1
 459 831 447 967 439 1087 c 1
 366 681 l 1
 400 684 398 686 454 688 c 1
 471 688 l 1
EndSplineSet
Validated: 1
EndChar

StartChar: Ccedilla
Encoding: 199 199 83
Width: 1120
VWidth: 6
Flags: W
HStem: -403 125<505.445 710.66> 0 164<424.286 550 696 761.221> 1256 168<460.84 743.776>
VStem: 80 167<385.758 982.633> 550 145<-70.4613 5.70376> 714 136<-271.217 -172.936>
LayerCount: 2
Fore
SplineSet
618 1256 m 0
 497 1256 404 1185 354 1112 c 1
 307 1041 247 914 247 681 c 0
 247 502 279 343 382 244 c 0
 447 181 498 164 584 164 c 2
 598 164 l 1
 752 169 843 251 897 373 c 1
 1043 290 l 1
 975 142 858 28 696 2 c 1
 695 -18 695 -62 695 -64 c 1
 792 -69 850 -131 850 -235 c 0
 850 -336 750 -403 666 -403 c 0
 600 -403 528 -378 472 -342 c 1
 510 -236 l 1
 543 -254 583 -278 634 -278 c 0
 670 -278 711 -258 714 -220 c 1
 714 -218 l 2
 714 -189 676 -164 628 -164 c 0
 580 -164 578 -171 550 -181 c 1
 550 0 l 1
 451 10 347 44 268 124 c 1
 142 257 80 436 80 679 c 0
 80 956 164 1126 219 1209 c 0
 295 1325 438 1424 622 1424 c 0
 769 1424 903 1332 995 1159 c 1
 853 1070 l 1
 789 1201 708 1256 618 1256 c 0
EndSplineSet
Validated: 1
EndChar

StartChar: quotedbl
Encoding: 34 34 92
Width: 1120
VWidth: -25
Flags: W
HStem: 802 662
VStem: 296 211<969.534 1452.38> 730 211<967.534 1450.38>
LayerCount: 2
Fore
SplineSet
296 1352 m 0
 296 1387 292 1419 288 1452 c 1
 497 1464 l 1
 503 1423 507 1388 507 1345 c 0
 507 1077 470 934 383 802 c 1
 230 890 l 1
 270 953 296 1141 296 1352 c 0
730 1350 m 0
 730 1385 726 1417 722 1450 c 1
 931 1462 l 1
 937 1421 941 1386 941 1343 c 0
 941 1075 904 932 817 800 c 1
 664 888 l 1
 704 951 730 1139 730 1350 c 0
EndSplineSet
Validated: 1
EndChar

StartChar: numbersign
Encoding: 35 35 93
Width: 1120
VWidth: 6
Flags: W
HStem: 356 147<119.124 245.523> 385 158<431 595 762 941> 795 160<132.652 295 475 639 810 945> 1312 20G<434 462.5 695.5 868>
VStem: 330 163<957.794 1331>
LayerCount: 2
Fore
SplineSet
457 795 m 1x78
 451 715 440 623 431 541 c 1
 472 543 503 543 537 543 c 2
 611 543 l 1
 622 627 630 720 639 798 c 1
 568 798 525 796 457 795 c 1x78
381 -19 m 1
 212 -18 l 1
 219 95 229 208 248 375 c 1
 195 374 152 365 124 356 c 1
 74 503 l 1xb8
 130 523 193 529 259 534 c 1
 274 614 286 711 295 790 c 1
 281 790 l 1
 216 786 166 781 131 768 c 1
 78 915 l 1
 143 940 226 944 310 949 c 1
 319 1025 330 1145 330 1146 c 0
 338 1217 338 1278 341 1331 c 1
 370 1331 415 1332 453 1332 c 0
 472 1332 489 1332 503 1331 c 1
 500 1279 501 1212 493 1133 c 1
 492 1113 481 1014 475 955 c 1
 657 955 l 1
 676 1118 686 1207 705 1326 c 1
 868 1324 l 1
 843 1203 829 1114 810 956 c 1
 945 956 l 1
 945 795 l 1
 917 796 884 799 792 799 c 1
 784 720 772 629 762 544 c 1
 941 544 l 1
 941 383 l 1
 914 384 858 386 744 386 c 1
 722 189 722 99 713 -22 c 1
 549 -21 l 1
 560 91 575 209 595 385 c 1
 566 385 l 2
 512 385 462 383 412 380 c 1
 397 230 381 -19 381 -19 c 1
EndSplineSet
Validated: 1
EndChar

StartChar: dollar
Encoding: 36 36 94
Width: 1120
VWidth: 0
Flags: W
HStem: 57 160<354.154 420 570 713.625> 671 147<363.434 470> 1114 159<658 742.6> 1130 156<346.953 506> 1391 20G<526.4 668>
VStem: 115 172<289.279 439> 142 158<875.871 1082.68> 790 144<1013.81 1068.36> 796 164<289.909 523.603>
LayerCount: 2
Fore
SplineSet
528 1411 m 1xda
 668 1400 l 1
 658 1273 l 1
 792 1242 908 1162 934 1017 c 1
 790 985 l 1xeb
 783 1069 690 1110 646 1114 c 1
 620 790 l 1
 662 780 722 762 764 743 c 1
 865 693 960 581 960 415 c 0
 960 166 776 49 560 43 c 1
 556 -13 550 -69 546 -125 c 1
 406 -114 l 1
 420 57 l 1
 206 109 115 261 115 439 c 1
 287 439 l 1xec80
 287 327 334 246 432 217 c 1
 470 671 l 1
 424 685 353 698 305 720 c 1
 220 761 142 848 142 987 c 0
 142 1186 328 1281 518 1286 c 1
 528 1411 l 1xda
606 628 m 1
 570 207 l 1
 692 220 796 290 796 403 c 0xc880
 796 505 712 582 638 615 c 0
 628 619 616 624 606 628 c 1
480 818 m 1
 506 1130 l 1
 402 1123 300 1098 300 990 c 0xda
 300 879 360 864 412 839 c 0
 430 831 462 825 480 818 c 1
EndSplineSet
Validated: 1
EndChar

StartChar: oe
Encoding: 339 339 95
Width: 1120
VWidth: 6
Flags: W
HStem: 0 154<276.141 441.389 644.569 835.768> 486 156<628 855> 863 154<295.121 454.291 645.104 801.757>
VStem: 64 152<230.029 754.4> 475 153<186.445 474 631 843.974>
LayerCount: 2
Fore
SplineSet
1010 187 m 1
 1010 187 951 0 748 0 c 0
 656 0 580 40 527 95 c 1
 503 63 450 0 376 0 c 0
 320 0 251 5 171 91 c 0
 68 202 64 380 64 459 c 0
 64 505 65 585 75 635 c 1
 96 758 158 1017 367 1017 c 0
 446 1017 485 990 526 954 c 0
 537 945 544 937 549 931 c 1
 572 968 616 1018 731 1018 c 0
 932 1018 1007 796 1015 570 c 1
 1015 486 l 1
 947 486 l 1
 847 483 710 478 628 474 c 1
 626 215 l 1
 665 176 713 154 752 154 c 0
 827 154 855 221 871 256 c 1
 1010 187 l 1
628 652 m 2
 628 631 l 1
 716 636 779 635 855 642 c 1
 849 746 809 862 731 862 c 0
 691 862 652 851 639 805 c 1
 628 770 628 709 628 652 c 2
370 154 m 0
 422 154 473 227 473 286 c 2
 475 754 l 2
 475 776 461 863 368 863 c 0
 274 863 219 687 216 474 c 0
 216 468 216 462 216 456 c 0
 216 385 229 269 281 191 c 0
 299 164 337 154 370 154 c 0
EndSplineSet
Validated: 1
EndChar

StartChar: bracketleft
Encoding: 91 91 96
Width: 1120
VWidth: 66
Flags: W
HStem: -259 162<512 888> 1316 154<512 844.303>
VStem: 352 160<-101 1316>
LayerCount: 2
Fore
SplineSet
844 1483 m 1
 876 1329 l 1
 775 1320 679 1320 512 1316 c 1
 512 -101 l 1
 608 -98 713 -97 732 -97 c 2
 745 -97 l 2
 808 -97 874 -103 888 -106 c 1
 888 -268 l 1
 863 -265 823 -259 752 -259 c 0
 693 -259 447 -264 354 -264 c 1
 354 -86 356 -3 356 177 c 0
 356 267 355 388 354 567 c 0
 354 742 352 918 352 1049 c 2
 352 1470 l 1
 445 1470 689 1477 740 1477 c 1
 812 1480 821 1481 844 1483 c 1
EndSplineSet
Validated: 1
EndChar

StartChar: bracketright
Encoding: 93 93 97
Width: 1120
VWidth: 66
Flags: W
HStem: -259 162<155 531> 1329 154<196.021 531>
VStem: 531 160<-101 1316>
LayerCount: 2
Fore
SplineSet
199 1483 m 1
 222 1481 231 1480 303 1477 c 1
 354 1477 598 1470 691 1470 c 1
 691 1049 l 2
 691 918 689 742 689 567 c 0
 688 388 687 267 687 177 c 0
 687 -3 689 -86 689 -264 c 1
 596 -264 350 -259 291 -259 c 0
 220 -259 180 -265 155 -268 c 1
 155 -106 l 1
 169 -103 235 -97 298 -97 c 2
 311 -97 l 2
 330 -97 435 -98 531 -101 c 1
 531 1316 l 1
 364 1320 268 1320 167 1329 c 1
 199 1483 l 1
EndSplineSet
Validated: 1
EndChar

StartChar: parenleft
Encoding: 40 40 98
Width: 1120
VWidth: 66
Flags: W
HStem: -262 166<754.166 932> 1326 158<729.982 933>
VStem: 288 160<306.626 948.43>
LayerCount: 2
Fore
SplineSet
933 1326 m 1
 930 1326 927 1326 924 1326 c 0
 585 1326 448 992 448 612 c 0
 448 232 636 -95 932 -96 c 1
 932 -262 l 1
 572 -259 288 55 288 612 c 0
 288 1144 502 1471 933 1484 c 1
 933 1326 l 1
EndSplineSet
Validated: 1
EndChar

StartChar: parenright
Encoding: 41 41 99
Width: 1120
VWidth: 66
Flags: W
HStem: -262 166<187 364.834> 1326 158<186 389.018>
VStem: 671 160<306.626 948.43>
LayerCount: 2
Fore
SplineSet
186 1326 m 1
 186 1484 l 1
 617 1471 831 1144 831 612 c 0
 831 55 547 -259 187 -262 c 1
 187 -96 l 1
 483 -95 671 232 671 612 c 0
 671 992 534 1326 195 1326 c 0
 192 1326 189 1326 186 1326 c 1
EndSplineSet
Validated: 1
EndChar

StartChar: hyphen
Encoding: 45 45 100
Width: 1120
VWidth: 6
Flags: W
HStem: 448 152<148 979>
LayerCount: 2
Fore
SplineSet
142 591 m 5
 278 598 434 600 536 600 c 4
 577 600 616 600 655 600 c 4
 737 600 854 599 961 598 c 5
 979 598 l 5
 979 445 l 5
 961 445 l 5
 826 448 659 448 534 448 c 4
 467 448 300 446 148 438 c 5
 148 522 l 5
 142 591 l 5
EndSplineSet
Validated: 1
EndChar

StartChar: plus
Encoding: 43 43 101
Width: 1120
VWidth: 6
Flags: W
HStem: 443 155<101 476 636 1010>
VStem: 479 154<2 445 601 984>
LayerCount: 2
Fore
SplineSet
101 589 m 1
 158 600 226 601 319 601 c 0
 365 601 418 601 479 601 c 1
 479 985 l 1
 633 984 l 1
 633 593 l 1
 636 600 l 1
 763 598 866 598 929 598 c 0
 956 598 983 598 1010 598 c 1
 1010 443 l 1
 995 443 l 2
 989 443 846 443 636 446 c 1
 637 0 l 1
 476 2 l 1
 476 445 l 1
 277 445 169 444 101 434 c 1
 101 589 l 1
EndSplineSet
Validated: 1
EndChar

StartChar: less
Encoding: 60 60 102
Width: 1120
VWidth: 4
Flags: W
LayerCount: 2
Fore
SplineSet
914 75 m 1
 789 -30 l 1
 765 6 721 42 673 80 c 1
 578 159 197 435 171 453 c 1
 171 573 l 1
 328 702 645 957 778 1035 c 0
 808 1052 829 1066 864 1077 c 1
 911 920 l 1
 750 835 515 640 356 517 c 1
 499 416 822 207 914 75 c 1
EndSplineSet
Validated: 1
EndChar

StartChar: greater
Encoding: 62 62 103
Width: 1120
VWidth: 6
Flags: W
LayerCount: 2
Fore
SplineSet
824 577 m 1
 824 460 l 1
 728 391 308 21 130 -44 c 1
 62 95 l 1
 237 189 498 399 639 512 c 1
 513 602 269 780 155 886 c 0
 128 911 106 930 87 960 c 1
 205 1062 l 1
 311 936 737 644 824 577 c 1
EndSplineSet
Validated: 1
EndChar

StartChar: slash
Encoding: 47 47 104
Width: 1120
VWidth: 60
Flags: W
HStem: 1418 20G<725 830.034>
LayerCount: 2
Fore
SplineSet
140 -80 m 1
 146 -67 174 -10 192 32 c 1
 288 257 671 1152 779 1438 c 1
 927 1380 l 1
 789 1028 408 141 288 -141 c 1
 140 -80 l 1
EndSplineSet
Validated: 1
EndChar

StartChar: one
Encoding: 49 49 105
Width: 1120
VWidth: 0
Flags: W
HStem: -9 21G<569.962 734> -9 21G<569.962 734> 1302 20G<561 640.111>
VStem: 570 164<-9 1055>
LayerCount: 2
Fore
SplineSet
565 1322 m 1xb0
 734 1277 l 1
 734 -9 l 1
 570 -9 l 1
 568 1055 l 1
 500 970 361 867 231 794 c 1
 148 932 l 1
 455 1086 557 1307 565 1322 c 1xb0
EndSplineSet
Validated: 1
EndChar

StartChar: two
Encoding: 50 50 106
Width: 1120
VWidth: 0
Flags: W
HStem: 2 153<335 920> 1150 156<398.75 673.001>
VStem: 170 158<857.53 1072.55> 742 159<796.407 1078.03>
LayerCount: 2
Fore
SplineSet
341 857 m 1
 191 821 l 1
 182 850 173 897 171 933 c 0
 171 942 170 950 170 958 c 0
 170 1180 335 1306 533 1306 c 0
 772 1306 901 1188 901 928 c 0
 901 801 822 688 742 603 c 1
 657 518 538 432 436 332 c 0
 365 262 337 191 335 155 c 1
 920 157 l 1
 920 2 l 1
 161 2 l 1
 161 32 159 64 159 97 c 0
 159 123 160 150 165 178 c 0
 183 275 229 360 337 461 c 0
 443 559 543 625 621 701 c 1
 698 774 742 865 742 926 c 0
 742 1042 686 1150 541 1150 c 0
 411 1150 328 1080 328 920 c 0
 328 899 337 868 341 857 c 1
EndSplineSet
Validated: 1
EndChar

StartChar: three
Encoding: 51 51 107
Width: 1120
VWidth: 0
Flags: W
HStem: -22 155<354.29 665.013> 666 158<380 596.412> 1163 157<375.153 634.077>
VStem: 118 158<209.514 335> 683 158<900.028 1115.44> 760 160<227.609 539.03>
LayerCount: 2
Fore
SplineSet
118 335 m 1xf4
 276 336 l 1
 277 220 359 133 506 133 c 0
 664 133 760 226 760 374 c 0xf4
 760 484 727 561 630 615 c 0
 539 666 460 666 380 666 c 1
 380 824 l 1
 396 824 l 2
 434 824 484 826 556 850 c 1
 640 880 683 927 683 1028 c 0
 683 1106 598 1163 497 1163 c 0
 370 1163 312 1046 294 1010 c 1
 152 1089 l 1
 157 1104 244 1320 487 1320 c 2
 498 1320 l 2
 677 1320 841 1224 841 1033 c 0xf8
 841 905 790 798 699 757 c 1
 860 679 920 546 920 376 c 0
 920 291 891 180 824 101 c 0
 758 24 665 -22 506 -22 c 0
 265 -22 118 131 118 335 c 1xf4
EndSplineSet
Validated: 1
EndChar

StartChar: four
Encoding: 52 52 108
Width: 1120
VWidth: 0
Flags: W
HStem: -2 21G<645 801> 413 157<327 645 801 929> 1286 20G<627 801>
VStem: 645 156<-2 413 570 990 1216.54 1306>
LayerCount: 2
Fore
SplineSet
645 570 m 1
 645 990 l 1
 572 861 419 667 327 570 c 1
 645 570 l 1
118 543 m 1
 152 589 616 1143 638 1306 c 1
 801 1306 l 1
 801 570 l 1
 929 570 l 1
 929 416 l 1
 801 416 l 1
 801 -2 l 1
 645 -2 l 1
 645 413 l 1
 178 413 l 1
 118 543 l 1
EndSplineSet
Validated: 1
EndChar

StartChar: five
Encoding: 53 53 109
Width: 1120
VWidth: 0
Flags: W
HStem: -2 156<382.269 668.971> 731 158<373.708 676.53> 1132 156<357 815>
VStem: 774 158<264.988 633.537>
LayerCount: 2
Fore
SplineSet
525 731 m 0
 394 731 313 640 296 623 c 1
 170 677 l 1
 216 1288 l 1
 815 1286 l 1
 815 1132 l 1
 357 1132 l 1
 334 835 l 1
 381 863 444 889 522 889 c 0
 579 889 647 879 715 846 c 1
 826 787 932 651 932 450 c 0
 932 150 752 0 512 -2 c 1
 510 -2 l 2
 335 -2 216 114 146 231 c 1
 279 319 l 1
 331 233 401 154 513 154 c 0
 680 154 774 259 774 448 c 0
 774 596 723 669 645 705 c 0
 603 725 561 731 525 731 c 0
EndSplineSet
Validated: 1
EndChar

StartChar: six
Encoding: 54 54 110
Width: 1120
VWidth: 0
Flags: W
HStem: -3 153<393.177 685.085> 591 155<408.702 698.271> 1175 147<624.475 717.803>
VStem: 778 159<237.413 508.992>
LayerCount: 2
Fore
SplineSet
753 1175 m 1
 544 1137 423 995 357 838 c 0
 332 776 321 714 312 654 c 1
 366 700 413 746 563 746 c 0
 785 746 937 599 937 368 c 0
 937 115 763 -3 527 -3 c 0
 266 -3 134 207 134 481 c 0
 134 600 153 752 211 900 c 0
 287 1092 425 1265 714 1322 c 1
 753 1175 l 1
297 403 m 1
 315 238 395 150 527 150 c 0
 671 150 778 232 778 368 c 0
 778 504 693 591 554 591 c 0
 421 591 313 488 297 403 c 1
EndSplineSet
Validated: 1
EndChar

StartChar: seven
Encoding: 55 55 111
Width: 1120
VWidth: 0
Flags: W
HStem: 1023 21G<201.738 252.5> 1136 150<267.858 794>
VStem: 353 165<0 346.794>
LayerCount: 2
Fore
SplineSet
191 1292 m 1
 275 1292 383 1286 460 1286 c 0
 611 1286 776 1293 919 1293 c 2
 960 1293 l 1
 1006 1211 l 1
 708 743 518 454 518 0 c 1
 353 0 l 1
 353 407 505 741 794 1140 c 1
 707 1137 594 1136 503 1136 c 0
 440 1136 351 1136 288 1139 c 1
 269 1102 259 1066 246 1023 c 1
 111 1084 l 1
 130 1143 165 1217 191 1292 c 1
EndSplineSet
Validated: 1
EndChar

StartChar: eight
Encoding: 56 56 112
Width: 1120
VWidth: 0
Flags: W
HStem: -9 156<383.993 695.665> 1136 157<388.061 683.382>
VStem: 122 159<244.058 510.52> 183 157<911.264 1090.76> 725 158<906.456 1094.12> 779 158<228.526 519.695>
LayerCount: 2
Fore
SplineSet
281 390 m 0xe4
 281 231 400 147 537 147 c 0
 692 147 779 229 779 388 c 0
 779 510 696 585 534 657 c 1
 402 597 281 521 281 390 c 0xe4
340 989 m 0xd8
 340 923 436 862 539 821 c 1
 633 858 725 917 725 994 c 0
 725 1059 690 1136 538 1136 c 0
 418 1136 340 1084 340 989 c 0xd8
354 739 m 1
 266 778 183 882 183 985 c 0
 183 1173 351 1293 539 1293 c 0
 748 1293 883 1148 883 992 c 0xd8
 883 869 794 781 712 737 c 1
 847 663 937 560 937 373 c 0
 937 152 791 -9 554 -9 c 0
 295 -9 122 141 122 378 c 0xe4
 122 560 239 676 354 739 c 1
EndSplineSet
Validated: 1
EndChar

StartChar: nine
Encoding: 57 57 113
Width: 1120
VWidth: 0
Flags: W
HStem: -2 156<349.076 669.039> 609 155<373.78 676.924> 1152 150<374.678 664.495>
VStem: 105 153<251.68 318.216> 136 159<837.453 1076.54> 790 156<310.315 710>
LayerCount: 2
Fore
SplineSet
544 1152 m 0xec
 414 1152 295 1094 295 952 c 0
 295 822 417 764 537 764 c 0
 665 764 749 859 769 928 c 1
 756 1038 661 1152 544 1152 c 0xec
136 955 m 0
 136 1193 297 1302 519 1302 c 0
 665 1302 756 1255 807 1202 c 0
 928 1076 946 898 946 644 c 0
 946 320 874 -2 527 -2 c 0
 282 -2 170 113 105 314 c 1
 258 359 l 1xf4
 303 214 344 154 527 154 c 0
 748 154 790 375 790 603 c 0
 790 639 788 675 787 710 c 1
 724 646 652 609 523 609 c 0
 309 609 136 730 136 955 c 0
EndSplineSet
Validated: 1
EndChar

StartChar: equal
Encoding: 61 61 114
Width: 1120
VWidth: 6
Flags: W
HStem: 189 160<90 935> 652 162<91.7699 926.013> 667 158<88 429.491 443.172 935>
LayerCount: 2
Fore
SplineSet
90 349 m 5x80
 230 357 342 357 456 357 c 4
 635 357 769 349 937 349 c 5
 935 188 l 5
 761 188 617 193 434 193 c 4
 384 193 334 194 282 194 c 4
 222 194 159 193 90 189 c 5
 90 349 l 5x80
88 825 m 5xa0
 231 816 342 814 436 814 c 4
 628 814 737 823 935 823 c 5
 935 664 l 5
 742 664 631 652 434 652 c 4xc0
 338 652 230 658 85 667 c 5
 85 720 85 774 88 825 c 5xa0
EndSplineSet
Validated: 1
EndChar

StartChar: backslash
Encoding: 92 92 115
Width: 1120
VWidth: 60
Flags: W
HStem: 1418 20G<216.966 322>
LayerCount: 2
Fore
SplineSet
906 -80 m 1
 758 -141 l 1
 638 141 258 1028 120 1380 c 1
 268 1438 l 1
 376 1152 758 257 856 32 c 1
 872 -10 900 -67 906 -80 c 1
EndSplineSet
Validated: 1
EndChar

StartChar: asciicircum
Encoding: 94 94 116
Width: 1120
VWidth: -10
Flags: W
HStem: 467 634
LayerCount: 2
Fore
SplineSet
520 1101 m 1
 978 590 l 1
 858 467 l 1
 522 829 l 1
 167 467 l 1
 52 576 l 1
 520 1101 l 1
EndSplineSet
Validated: 1
EndChar

StartChar: underscore
Encoding: 95 95 117
Width: 1120
VWidth: 41
Flags: W
HStem: -236 152<86 1032>
LayerCount: 2
Fore
SplineSet
86 -84 m 1
 1032 -84 l 1
 1032 -236 l 1
 82 -236 l 1
 86 -84 l 1
EndSplineSet
Validated: 1
EndChar

StartChar: grave
Encoding: 96 96 118
Width: 1120
VWidth: -25
Flags: W
HStem: 784 666
VStem: 299 203<1286.83 1403.53>
LayerCount: 2
Fore
SplineSet
524 1352 m 0
 586 1150 712 966 770 918 c 1
 634 784 l 1
 512 885 403 1027 324 1283 c 0
 312 1324 305 1359 299 1400 c 1
 502 1450 l 1
 508 1417 514 1386 524 1352 c 0
EndSplineSet
Validated: 1
EndChar

StartChar: question
Encoding: 63 63 119
Width: 1120
VWidth: 0
Flags: W
HStem: 0 270<373 623> 1182 155<385.349 670.299>
VStem: 155 157<878.836 1109.3> 373 250<0 270> 407 175<431 598.664> 728 160<876.981 1122.17>
LayerCount: 2
Fore
SplineSet
545 1337 m 0xec
 776 1337 888 1205 888 993 c 0
 888 834 769 736 691 670 c 0
 639 626 582 559 582 477 c 2
 582 431 l 1
 407 431 l 1
 407 475 l 2
 407 595 459 673 543 747 c 0
 643 836 728 883 728 989 c 0
 728 1101 669 1182 537 1182 c 0
 413 1182 314 1121 312 989 c 0
 312 942 341 896 367 864 c 1
 233 774 l 1
 192 834 155 899 155 984 c 0
 155 1227 338 1337 545 1337 c 0xec
373 270 m 1xf4
 623 270 l 1
 623 0 l 1
 373 0 l 1
 373 270 l 1xf4
EndSplineSet
Validated: 1
EndChar

StartChar: asciitilde
Encoding: 126 126 120
Width: 1120
VWidth: -12
Flags: W
HStem: 422 153<648.995 830.693> 596 154<275.74 473.755>
VStem: 889 143<637.125 693.115>
LayerCount: 2
Fore
SplineSet
375 750 m 0
 531 750 658 575 748 575 c 0
 835 575 875 683 889 748 c 1
 1032 687 l 1
 1009 599 947 422 744 422 c 0
 578 422 477 596 365 596 c 0
 309 596 248 538 200 451 c 1
 71 542 l 1
 141 677 219 750 375 750 c 0
EndSplineSet
Validated: 1
EndChar

StartChar: Oslash
Encoding: 216 216 127
Width: 1120
VWidth: 0
Flags: W
HStem: -9 170<418.951 700.754> 1277 170<433.756 680.828>
VStem: 64 167<364.523 964.234> 876 166<400.464 1051.64>
LayerCount: 2
Fore
SplineSet
805 1118 m 1
 683 818 528 455 417 190 c 1
 455 171 499 161 555 161 c 0
 677 161 754 231 801 324 c 1
 843 395 876 575 876 694 c 1
 876 694 872 983 813 1104 c 0
 811 1108 807 1114 805 1118 c 1
292 322 m 1
 398 574 565 967 682 1256 c 1
 653 1271 621 1277 586 1277 c 0
 486 1277 427 1247 366 1162 c 0
 294 1063 231 882 231 638 c 0
 231 542 251 410 292 322 c 1
215 138 m 1
 213 140 211 144 209 146 c 0
 115 268 64 432 64 633 c 0
 64 975 156 1158 230 1264 c 0
 299 1364 417 1444 581 1447 c 0
 622 1447 681 1442 744 1414 c 1
 757 1446 768 1474 777 1500 c 1
 932 1437 l 1
 917 1398 901 1354 882 1307 c 1
 969 1201 1040 1018 1042 703 c 1
 1042 691 l 2
 1042 509 995 343 945 239 c 0
 866 79 728 -9 555 -9 c 0
 486 -9 415 5 351 34 c 1
 339 8 330 -17 321 -39 c 1
 166 27 l 1
 172 40 197 93 215 138 c 1
EndSplineSet
Validated: 1
EndChar

StartChar: multiply
Encoding: 215 215 128
Width: 1120
VWidth: 6
Flags: W
LayerCount: 2
Fore
SplineSet
421 522 m 1
 301 642 211 748 103 848 c 1
 202 971 l 1
 311 870 423 753 536 636 c 1
 714 806 855 945 872 963 c 1
 976 840 l 1
 957 821 820 682 649 515 c 1
 828 324 876 261 976 161 c 1
 856 63 l 1
 776 167 698 239 534 407 c 1
 382 258 272 132 226 82 c 1
 109 180 l 1
 169 252 278 380 421 522 c 1
EndSplineSet
Validated: 1
EndChar

StartChar: oslash
Encoding: 248 248 140
Width: 1120
VWidth: 6
Flags: W
HStem: -9 21G<139.654 179.2> -9 21G<139.654 179.2> 1 155<377.508 670.662> 878 154<392.497 678.732>
VStem: 112 158<358.327 736.885> 783 159<279.587 664.228>
LayerCount: 2
Fore
SplineSet
281 356 m 1x1c
 695 821 l 1
 658 857 607 878 540 878 c 0
 332 878 270 713 270 469 c 0
 270 428 273 390 281 356 c 1x1c
895 804 m 1
 928 727 942 629 942 543 c 0
 942 258 846 1 524 1 c 2
 522 1 l 1x3c
 408 2 318 33 252 91 c 1
 161 -9 l 1x9c
 50 95 l 1
 159 218 l 1
 128 287 112 370 112 464 c 0
 112 756 214 1032 506 1032 c 0
 638 1032 732 1001 800 940 c 1
 913 1067 l 1
 1033 956 l 1
 895 804 l 1
694 215 m 1
 759 276 783 382 783 530 c 0
 783 536 783 542 783 548 c 0
 783 590 780 630 772 667 c 1
 360 212 l 1
 401 176 456 156 524 156 c 0
 600 157 644 173 694 215 c 1
EndSplineSet
Validated: 1
EndChar

StartChar: plusminus
Encoding: 177 177 145
Width: 1120
VWidth: -6
Flags: W
HStem: 186 150<129 464 624 985> 669 150<122 466 626 985>
VStem: 466 160<344 658 811 1171>
LayerCount: 2
Fore
SplineSet
122 822 m 1
 295 812 365 811 466 811 c 1
 468 1172 l 1
 628 1171 l 1
 626 810 l 1
 781 813 779 819 968 819 c 2
 985 819 l 1
 985 669 l 1
 968 669 l 2
 782 669 784 663 626 658 c 1
 626 647 l 2
 626 541 624 433 624 343 c 1
 788 340 802 338 968 335 c 1
 985 334 l 1
 985 184 l 1
 968 185 l 1
 759 188 687 192 466 192 c 0
 334 192 307 191 147 186 c 1
 129 186 l 1
 129 336 l 1
 146 336 l 1
 307 340 343 344 464 344 c 1
 464 437 466 543 466 649 c 2
 466 659 l 1
 359 659 300 662 122 672 c 1
 122 822 l 1
EndSplineSet
Validated: 1
EndChar

StartChar: divide
Encoding: 247 247 146
Width: 1120
VWidth: 6
Flags: W
HStem: -12 270<395 645> 437 157<141 927> 757 269<393 644>
VStem: 395 250<-12 258 757 1026>
LayerCount: 2
Fore
SplineSet
141 437 m 1
 136 594 l 1
 295 599 420 600 498 600 c 0
 636 600 701 597 911 594 c 1
 928 594 l 1
 927 437 l 1
 909 437 l 1
 696 440 632 444 495 444 c 0
 419 444 293 441 141 437 c 1
395 258 m 1
 645 258 l 1
 645 -12 l 1
 395 -12 l 1
 395 258 l 1
393 1026 m 1
 644 1026 l 1
 644 757 l 1
 393 757 l 1
 393 1026 l 1
EndSplineSet
Validated: 1
EndChar

StartChar: OE
Encoding: 338 338 149
Width: 1120
VWidth: 0
Flags: W
HStem: -9 166<307.906 506.342 668 1008.81> 743 167<672 961> 1275 170<352.92 508 672 1031>
VStem: 33 161<286.516 1068.22> 508 164<167 743 910 1275>
LayerCount: 2
Fore
SplineSet
507 159 m 1
 508 1275 l 1
 234 1275 194 1037 194 630 c 0
 194 384 198 162 460 157 c 0
 477 157 493 158 507 159 c 1
873 167 m 1
 935 169 964 178 1011 195 c 1
 1051 36 l 1
 940 4 838 -1 721 -1 c 0
 672 -1 620 0 562 0 c 1
 544 -8 444 -9 428 -9 c 0
 107 4 33 317 33 651 c 0
 33 1126 135 1450 487 1450 c 0
 514 1450 544 1447 571 1442 c 1
 633 1445 699 1445 765 1445 c 0
 854 1445 945 1444 1031 1444 c 1
 1031 1275 l 1
 934 1275 874 1276 799 1276 c 0
 762 1276 721 1276 672 1275 c 1
 672 910 l 1
 961 910 l 1
 961 743 l 1
 672 743 l 1
 672 523 668 253 668 167 c 1
 873 167 l 1
EndSplineSet
Validated: 1
EndChar

StartChar: yen
Encoding: 165 165 150
Width: 1120
VWidth: 0
Flags: W
HStem: -7 21G<440 608> 374 163<117 443 614 962> 694 163<119.697 327 753 963>
VStem: 440 168<-7 372 537 693.298>
LayerCount: 2
Fore
SplineSet
440 -7 m 1
 440 147 l 2
 440 193 441 280 443 373 c 1
 399 373 355 374 309 374 c 0
 249 374 186 373 117 369 c 1
 117 529 l 1
 242 536 344 537 446 537 c 1
 447 582 447 623 447 655 c 1
 440 665 431 679 422 694 c 1
 336 695 238 701 113 709 c 1
 113 762 113 816 116 867 c 1
 195 862 265 859 327 857 c 1
 222 1045 92 1291 56 1370 c 1
 203 1448 l 1
 243 1369 423 1021 520 856 c 1
 532 856 545 856 557 856 c 1
 665 1023 852 1373 890 1462 c 1
 1036 1376 l 1
 987 1274 910 1118 800 935 c 0
 784 910 768 885 753 861 c 1
 816 863 882 865 963 865 c 1
 963 706 l 1
 840 706 750 701 650 697 c 1
 634 671 621 652 615 643 c 1
 615 608 615 573 614 536 c 1
 734 534 839 529 964 529 c 1
 962 368 l 1
 838 368 729 371 611 372 c 1
 609 266 608 170 608 136 c 2
 608 -7 l 1
 440 -7 l 1
EndSplineSet
Validated: 1
EndChar

StartChar: Eth
Encoding: 208 208 152
Width: 1120
VWidth: 0
Flags: W
HStem: -11 165<262 703.178> 773 148<40 100 267 640> 1256 166<269.885 577.506>
VStem: 101 166<157 773 921 1252.71> 872 167<342.739 893.533>
LayerCount: 2
Fore
SplineSet
345 1256 m 2
 314 1256 l 2
 297 1256 285 1257 267 1254 c 1
 268 1227 268 1193 268 1160 c 0
 268 1092 267 1018 267 944 c 0
 267 936 267 929 267 921 c 1
 640 921 l 1
 641 773 l 1
 266 773 l 1
 265 501 263 244 262 157 c 1
 354 154 402 154 465 154 c 0
 642 154 775 182 843 377 c 0
 860 426 872 522 872 581 c 0
 872 754 833 936 765 1040 c 0
 672 1180 577 1256 345 1256 c 2
100 773 m 1
 40 773 l 1
 40 921 l 1
 101 921 l 1
 101 935 101 948 101 962 c 2
 101 1043 l 2
 101 1180 96 1313 87 1407 c 1
 172 1416 219 1422 323 1422 c 0
 608 1422 772 1334 901 1139 c 1
 989 1004 1039 812 1039 619 c 0
 1039 545 1030 472 1016 401 c 0
 966 144 797 16 608 -3 c 0
 550 -8 497 -11 439 -11 c 0
 351 -11 211 -3 91 -3 c 1
 91 33 91 31 94 136 c 1
 94 184 98 479 100 773 c 1
EndSplineSet
Validated: 1
EndChar

StartChar: currency
Encoding: 164 164 153
Width: 1120
VWidth: 6
Flags: W
HStem: 98 157<460.92 666.633>
VStem: 255 165<301.574 671.832> 727 163<322.138 685.398>
LayerCount: 2
Fore
SplineSet
727 522 m 0
 727 650 672 735 587 743 c 1
 572 741 l 1
 467 730 420 626 420 462 c 0
 420 325 461 255 569 255 c 0
 677 255 727 368 727 522 c 0
255 461 m 2
 255 468 l 2
 255 556 275 636 300 697 c 1
 159 849 l 1
 278 955 l 1
 395 828 l 1
 443 878 496 898 566 901 c 1
 583 901 l 2
 666 901 718 880 769 833 c 1
 881 946 l 1
 994 847 l 1
 858 697 l 1
 881 640 890 582 890 520 c 1
 888 417 874 352 839 284 c 1
 984 129 l 1
 866 23 l 1
 741 159 l 1
 691 120 630 98 564 98 c 0
 480 99 427 127 379 167 c 1
 254 43 l 1
 147 142 l 1
 280 299 l 1
 259 354 255 403 255 461 c 2
EndSplineSet
Validated: 1
EndChar

StartChar: sterling
Encoding: 163 163 154
Width: 1120
VWidth: 0
Flags: W
HStem: -13 152<252.292 345.715 622.024 877.099> 687 152<212 341 530 901> 1198 153<505.389 705.633>
VStem: 100 151<141.174 267.198> 317 158<841.301 1170.57> 409 157<335.307 679.073> 738 147<1113.81 1164.47> 879 156<142.143 229>
LayerCount: 2
Fore
SplineSet
348 186 m 1xf0
 315 216 297 254 274 269 c 1
 264 262 251 231 251 201 c 0
 251 199 251 197 251 195 c 0
 253 153 266 139 282 139 c 0
 304 139 332 166 348 186 c 1xf0
901 691 m 1
 827 682 744 682 646 682 c 2
 530 682 l 1
 548 589 565 495 566 385 c 0
 566 333 559 278 547 230 c 1
 641 169 694 137 783 137 c 0
 876 137 879 154 879 214 c 0
 879 219 879 224 879 229 c 1
 1035 231 l 1
 1035 190 l 1
 1031 54 950 -15 809 -16 c 0
 691 -16 591 25 482 95 c 1
 434 29 349 -13 262 -13 c 0
 162 -13 100 80 100 192 c 0
 100 293 131 370 203 412 c 0
 220 421 239 424 254 424 c 0
 257 424 260 424 263 424 c 0
 322 424 374 369 407 334 c 1
 409 354 409 375 409 397 c 0xf5
 408 503 390 589 371 685 c 1
 319 687 274 687 229 687 c 2
 212 687 l 1
 212 839 l 1
 341 839 l 1
 328 910 317 977 317 1043 c 0
 317 1248 429 1351 618 1351 c 0
 765 1351 854 1245 885 1118 c 1
 738 1075 l 1
 722 1137 699 1196 618 1198 c 0
 616 1198 614 1198 612 1198 c 0
 495 1198 475 1116 475 1051 c 0xfa
 475 997 490 900 501 834 c 1
 648 837 l 1
 667 837 687 837 705 837 c 0
 779 837 845 838 901 844 c 1
 901 691 l 1
EndSplineSet
Validated: 1
EndChar

StartChar: cent
Encoding: 162 162 155
Width: 1120
VWidth: 6
Flags: W
HStem: -9 293<465.51 620.879> 720 313<463 622.347>
VStem: 182 162<353.688 651.195> 462 162<-9 142.125 858.461 1033>
LayerCount: 2
Fore
SplineSet
546 284 m 0
 547 284 547 284 548 284 c 0
 640 284 715 318 741 354 c 1
 752 370 l 1
 889 287 l 1
 877 271 l 1
 825 194 730 147 622 135 c 1
 622 -9 l 1
 462 -9 l 1
 462 139 l 1
 416 148 366 164 321 194 c 0
 217 264 182 356 182 490 c 2
 182 501 l 2
 182 624 220 705 261 753 c 0
 317 817 389 851 462 865 c 1
 462 1033 l 1
 624 1033 l 1
 624 867 l 1
 741 850 808 786 841 695 c 1
 683 638 l 1
 679 661 l 1
 668 714 632 720 553 720 c 0
 492 720 428 702 391 657 c 0
 372 635 344 596 344 514 c 0
 344 384 404 283 529 283 c 0
 535 283 540 284 546 284 c 0
EndSplineSet
Validated: 1
EndChar

StartChar: percent
Encoding: 37 37 156
Width: 1120
VWidth: 0
Flags: W
HStem: -3 135<714.373 867.008> 358 153<750.087 886.782> 730 155<244.471 390.848> 1094 153<264.101 422.437> 1354 20G<722.5 834.97>
VStem: 95 135<899.761 1058.49> 429 147<922.223 1082.51> 557 150<139.341 319.221> 905 136<169.63 343.02>
LayerCount: 2
Fore
SplineSet
707 225 m 2xfd80
 707 215 l 1
 711 156 730 135 787 132 c 1
 791 132 l 2
 841 132 905 199 905 247 c 2
 905 254 l 2
 905 310 867 356 816 358 c 1
 814 358 l 2
 768 358 707 277 707 225 c 2xfd80
557 226 m 2
 557 241 l 1
 566 370 666 505 807 511 c 1
 815 511 l 1
 938 506 1041 399 1041 266 c 2
 1041 254 l 2
 1041 136 935 -3 790 -3 c 0
 659 -3 557 93 557 226 c 2
324 885 m 0
 367 885 429 958 429 1008 c 0xfe80
 429 1068 402 1091 341 1094 c 0
 340 1094 339 1094 338 1094 c 0
 295 1094 230 1025 230 981 c 0
 230 928 270 885 324 885 c 0
324 730 m 0
 196 730 95 844 95 980 c 0
 95 1121 209 1244 342 1247 c 0
 344 1247 346 1247 348 1247 c 0
 478 1247 576 1148 576 1019 c 0
 576 1017 576 1015 576 1013 c 0
 573 873 470 730 324 730 c 0
208 24 m 1
 336 301 656 1022 789 1374 c 1
 943 1307 l 5
 805 955 481 234 361 -48 c 5
 208 24 l 1
EndSplineSet
Validated: 1
EndChar

StartChar: guillemotleft
Encoding: 171 171 157
Width: 1120
VWidth: 6
Flags: W
VStem: 427 152<103.907 161.156> 441 156<871.117 942.4>
LayerCount: 2
Fore
SplineSet
461 576 m 1x00
 606 676 727 845 767 978 c 1
 920 921 l 1
 873 779 782 633 652 516 c 1
 774 410 853 287 898 134 c 1
 904 116 l 1
 749 63 l 1
 701 226 617 343 461 450 c 1
 461 576 l 1x00
111 574 m 1
 255 704 418 836 441 976 c 1
 597 939 l 1x40
 557 750 421 627 296 518 c 1
 424 400 534 281 579 109 c 1
 427 55 l 1x80
 389 204 269 318 111 459 c 1
 111 574 l 1
EndSplineSet
Validated: 1
EndChar

StartChar: section
Encoding: 167 167 159
Width: 1120
VWidth: 4
Flags: W
HStem: -322 155<438.184 682.221> 1213 155<415.43 654.296>
VStem: 160 158<567.294 710.649> 203 156<923.488 1159.18> 238 155<-129.895 -31> 696 151<1081 1178.04> 735 161<-114.133 113.863> 775 163<327.508 479.299>
LayerCount: 2
Fore
SplineSet
719 319 m 1xd0
 767 339 775 358 775 392 c 2
 775 409 l 1
 772 430 763 452 738 475 c 0
 637 567 500 640 384 722 c 1
 323 697 318 679 318 637 c 0xe1
 318 617 334 591 359 569 c 0
 460 476 603 399 719 319 c 1xd0
203 1040 m 0xd0
 203 1258 381 1368 534 1368 c 0
 706 1368 843 1271 847 1081 c 1
 696 1080 l 1xd4
 693 1142 680 1155 648 1183 c 1
 622 1203 586 1213 534 1213 c 1
 445 1211 359 1152 359 1055 c 0
 359 933 405 915 532 827 c 0
 624 763 746 698 846 594 c 1
 897 544 938 477 938 405 c 0xd1
 938 300 903 246 839 198 c 1
 874 148 894 83 896 6 c 0
 896 3 896 0 896 -3 c 0
 896 -223 711 -322 556 -322 c 0
 381 -322 243 -225 238 -31 c 1
 393 -30 l 1xca
 402 -90 410 -111 442 -135 c 0
 467 -154 505 -167 555 -167 c 1
 647 -164 735 -112 735 -9 c 0
 735 9 733 30 727 55 c 0
 715 101 654 159 560 220 c 1
 464 281 344 348 243 450 c 1
 194 503 160 568 160 641 c 0xe2
 160 745 203 794 266 841 c 1
 230 893 203 971 203 1040 c 0xd0
EndSplineSet
Validated: 1
EndChar

StartChar: braceleft
Encoding: 123 123 160
Width: 1120
VWidth: 66
Flags: W
HStem: -262 166<726.5 929> 1326 158<720.374 929>
VStem: 499 173<-45.0254 197.683 1025.46 1280.54> 570 169<146.654 428.774 784.381 1074.66>
LayerCount: 2
Fore
SplineSet
929 1484 m 1xe0
 934 1326 l 1
 807 1320 741 1314 695 1260 c 0
 676 1238 669 1221 669 1199 c 0
 669 1190 670 1181 672 1171 c 0xe0
 684 1089 740 995 740 893 c 0
 740 878 738 864 736 849 c 0
 714 719 642 631 548 609 c 1
 645 580 723 479 737 359 c 0
 738 347 739 335 739 324 c 0xd0
 739 222 688 146 675 62 c 0
 673 52 672 43 672 34 c 0
 672 12 679 -5 698 -27 c 0
 744 -81 808 -90 935 -96 c 1
 929 -262 l 1
 796 -256 647 -244 554 -136 c 0
 513 -88 499 -39 499 11 c 0xe0
 499 82 528 153 551 219 c 0
 564 256 570 288 570 316 c 0xd0
 570 455 427 496 324 528 c 1
 324 690 l 1
 445 724 573 765 573 899 c 0
 573 929 566 963 552 1003 c 1
 528 1068 499 1140 499 1211 c 0
 499 1261 514 1311 554 1358 c 0
 647 1466 796 1478 929 1484 c 1xe0
EndSplineSet
Validated: 1
EndChar

StartChar: bar
Encoding: 124 124 161
Width: 1120
VWidth: 66
Flags: W
VStem: 431 162<-194.108 1492>
LayerCount: 2
Fore
SplineSet
430 152 m 4
 430 517 421 1111 421 1399 c 6
 421 1492 l 5
 581 1492 l 5
 581 1347 l 6
 581 1070 593 558 593 224 c 6
 593 74 l 6
 593 -41 592 -97 587 -198 c 5
 426 -197 l 5
 430 -135 431 -92 431 -37 c 4
 431 10 430 66 430 152 c 4
EndSplineSet
Validated: 1
EndChar

StartChar: braceright
Encoding: 125 125 162
Width: 1120
VWidth: 66
Flags: W
HStem: -262 166<190 392.5> 1326 158<189 397.626>
VStem: 380 168<148.269 428.633 784.259 1074.51> 446 174<-45.1572 195.685 1027 1280.09>
LayerCount: 2
Fore
SplineSet
189 1484 m 1xe0
 322 1478 471 1466 564 1358 c 0
 605 1310 619 1260 619 1210 c 0
 619 1139 590 1068 567 1003 c 1
 552 963 546 928 546 898 c 0
 546 765 674 724 795 690 c 1
 795 528 l 1
 692 496 548 455 548 315 c 0xe0
 548 288 554 256 567 219 c 0
 591 153 620 82 620 11 c 0
 620 -39 605 -89 565 -136 c 0
 472 -244 323 -256 190 -262 c 1
 184 -96 l 1
 310 -90 375 -81 421 -27 c 0
 440 -5 446 13 446 35 c 0xd0
 446 43 445 52 444 62 c 0
 431 146 380 222 380 324 c 0
 380 335 381 347 382 359 c 0
 396 479 474 580 571 609 c 1
 477 631 405 719 383 849 c 0
 381 864 379 878 379 893 c 0
 379 995 435 1089 447 1171 c 0
 448 1181 449 1190 449 1198 c 0
 449 1220 443 1238 424 1260 c 0
 378 1314 311 1320 185 1326 c 1
 189 1484 l 1xe0
EndSplineSet
Validated: 1
EndChar

StartChar: at
Encoding: 64 64 163
Width: 1120
VWidth: 6
Flags: W
HStem: -362 150<435.063 712.196> 6 158<465.926 598.401 790.694 889.48> 510 153<479.285 615.385> 872 153<462.707 599.523> 1238 148<424.064 676.41>
VStem: 57 160<129.741 915.742> 290 154<182.576 481.286> 616 144<188.091 508.365 651 863.384> 855 147<173.32 987.456>
LayerCount: 2
Fore
SplineSet
688 105 m 1
 671 69 639 6 550 6 c 0
 488 6 451 19 397 57 c 0
 316 114 290 211 290 309 c 0
 290 476 343 663 530 663 c 0
 570 663 601 662 625 651 c 1
 625 748 623 872 538 872 c 2
 530 872 l 2
 484 872 460 844 424 750 c 1
 294 816 l 1
 343 957 411 1025 538 1025 c 0
 746 1025 760 790 760 621 c 2
 760 267 l 1
 788 206 812 171 829 171 c 0
 845 171 855 206 855 288 c 2
 855 288 855 582 855 705 c 3
 855 936 779 1238 539 1238 c 0
 391 1238 217 1027 217 550 c 0
 217 97 328 -212 583 -212 c 0
 626 -212 661 -199 693 -178 c 1
 765 -313 l 1
 719 -342 660 -362 583 -362 c 0
 196 -362 57 0 57 550 c 0
 57 1095 281 1386 540 1386 c 0
 927 1386 1002 943 1002 721 c 0
 1002 564 1002 427 1002 270 c 3
 1002 76 929 3 849 3 c 0
 831 3 813 7 795 14 c 0
 748 32 698 84 688 105 c 1
444 324 m 0
 444 216 478 164 540 164 c 0
 610 164 605 248 616 276 c 1
 616 489 l 1
 597 508 569 510 540 510 c 1
 484 510 444 425 444 324 c 0
EndSplineSet
Validated: 1
EndChar

StartChar: brokenbar
Encoding: 166 166 164
Width: 1120
VWidth: 66
Flags: W
VStem: 421 160<786.676 1492> 434 163<-194 528 775 1277.55>
LayerCount: 2
Fore
SplineSet
593 528 m 1x40
 595 417 597 243 597 155 c 0
 597 -46 597 -65 590 -195 c 1
 429 -194 l 1
 433 -120 434 -90 434 -29 c 2
 434 118 l 2
 434 216 432 404 430 528 c 1
 593 528 l 1x40
428 775 m 1
 424 1042 421 1239 421 1399 c 2
 421 1492 l 1
 581 1492 l 1
 581 1366 l 2x80
 581 1217 586 1025 590 775 c 1
 428 775 l 1
EndSplineSet
Validated: 1
EndChar

StartChar: copyright
Encoding: 169 169 165
Width: 1120
VWidth: 6
Flags: W
HStem: -336 155<427.115 650.91> -17 152<487.62 613.105> 859 174<490.844 600.197> 1202 153<431.498 630.866>
VStem: 74 136<166.256 850.907> 277 148<215.464 776.084> 645 127<164.445 238.402> 863 143<163.794 831.031>
LayerCount: 2
Fore
SplineSet
521 1033 m 0
 522 1033 523 1033 524 1033 c 0
 531 1033 537 1035 549 1035 c 0
 625 1032 714 962 764 810 c 1
 623 753 l 1
 605 810 597 859 551 859 c 0
 475 859 425 689 425 510 c 0
 425 387 457 135 540 135 c 0
 602 135 625 182 645 273 c 1
 772 234 l 1
 732 93 673 -17 549 -17 c 0
 315 -17 277 328 277 487 c 0
 277 688 320 812 349 874 c 0
 385 952 448 1019 521 1033 c 0
536 1202 m 0
 370 1202 210 905 210 512 c 0
 210 120 356 -181 536 -181 c 0
 721 -181 863 118 863 510 c 2
 863 527 l 2
 863 912 673 1202 536 1202 c 0
536 1355 m 0
 840 1355 1006 962 1006 506 c 0
 1006 51 826 -336 536 -336 c 0
 237 -336 74 58 74 513 c 0
 74 969 248 1355 536 1355 c 0
EndSplineSet
Validated: 1
EndChar

StartChar: registered
Encoding: 174 174 166
Width: 1120
VWidth: 6
Flags: W
HStem: -336 155<427.115 650.91> 891 153<496 589.506> 1202 153<431.498 630.866>
VStem: 74 136<166.256 850.907> 347 149<12 381 528.507 891> 623 135<536.373 855.717> 863 143<163.794 831.031>
LayerCount: 2
Fore
SplineSet
621 722 m 0
 614 851 568 891 505 891 c 0
 502 891 499 891 496 891 c 1
 496 538 l 1
 518 531 537 528 552 528 c 0
 610 528 623 576 623 657 c 0
 623 677 622 698 621 722 c 0
658 0 m 1
 616 82 554 316 528 378 c 1
 508 381 511 377 496 381 c 1
 496 254 497 203 497 148 c 0
 497 111 497 73 495 10 c 1
 347 12 l 1
 347 321 345 1007 345 1007 c 1
 387 1042 441 1039 493 1043 c 0
 501 1044 509 1044 517 1044 c 0
 688 1044 752 866 758 684 c 1
 758 570 738 433 672 392 c 1
 713 298 770 112 798 92 c 1
 658 0 l 1
536 1202 m 0
 370 1202 210 905 210 512 c 0
 210 120 356 -181 536 -181 c 0
 721 -181 863 118 863 510 c 2
 863 527 l 2
 863 912 673 1202 536 1202 c 0
536 1355 m 0
 840 1355 1006 962 1006 506 c 0
 1006 51 826 -336 536 -336 c 0
 237 -336 74 58 74 513 c 0
 74 969 248 1355 536 1355 c 0
EndSplineSet
Validated: 1
EndChar

StartChar: germandbls
Encoding: 223 223 167
Width: 1120
VWidth: 0
Flags: W
HStem: -2 167<522.941 791.441> 729 167<329 583.658> 1282 166<328.995 589.842>
VStem: 105 161<98.5092 1212.43> 326 164<203.594 350> 652 161<955.99 1218.43> 850 162<225.884 603.25>
LayerCount: 2
Fore
SplineSet
105 1093 m 0
 105 1263 221 1448 430 1448 c 0
 643 1448 813 1344 813 1102 c 0
 813 991 783 907 724 849 c 1
 910 796 1012 652 1012 415 c 0
 1012 186 907 -2 676 -2 c 0
 480 -2 326 103 326 324 c 0
 326 333 327 341 327 350 c 1
 490 350 l 1
 492 209 520 165 676 165 c 0
 818 165 850 285 850 431 c 0
 850 715 631 729 329 729 c 1
 329 896 l 1
 502 896 652 896 652 1095 c 0
 652 1218 574 1282 430 1282 c 1
 329 1281 266 1180 266 1082 c 0
 266 912 271 694 271 490 c 0
 271 355 267 227 259 121 c 0
 252 33 199 -9 140 -40 c 1
 59 98 l 1
 80 109 98 111 101 140 c 0
 111 249 114 367 114 488 c 0
 114 692 105 903 105 1093 c 0
EndSplineSet
Validated: 1
EndChar

StartChar: ampersand
Encoding: 38 38 168
Width: 1120
VWidth: 0
Flags: W
HStem: -22 155<337.294 614.075> 1194 153<376.737 567.919>
VStem: 87 159<228.763 529.103> 172 158<921.771 1150.11> 593 157<972.767 1168.98> 800 149<401.282 647>
LayerCount: 2
Fore
SplineSet
695 245 m 1xec
 588 387 491 521 391 648 c 1
 313 579 246 491 246 376 c 0
 246 227 349 133 464 133 c 0
 564 133 643 185 695 245 c 1xec
593 1069 m 0
 593 1157 540 1194 465 1194 c 0
 397 1194 330 1121 330 1044 c 0xdc
 330 972 378 912 423 859 c 1
 497 911 533 950 556 981 c 0
 582 1016 593 1041 593 1069 c 0
1025 64 m 1
 903 -32 l 1
 888 -12 842 47 790 116 c 1
 699 18 589 -22 459 -22 c 0
 251 -22 87 129 87 367 c 0xec
 87 546 179 681 293 771 c 1
 245 829 172 921 172 1037 c 0
 172 1206 305 1347 466 1347 c 0
 611 1347 750 1257 750 1085 c 0
 750 923 631 827 514 741 c 1
 601 628 687 517 775 398 c 1
 797 468 800 539 800 648 c 1
 949 647 l 1
 949 480 928 336 877 255 c 1
 917 204 1002 95 1025 64 c 1
EndSplineSet
Validated: 1
EndChar

StartChar: uni00B5
Encoding: 181 181 169
Width: 1120
VWidth: 6
Flags: W
HStem: -10 21G<917.5 960.017> -10 21G<917.5 960.017> 2 154<360.683 625.04> 1001 20G<172.481 302>
VStem: 149 157<-400 22 181.338 701.424> 779 158<276.783 1001>
LayerCount: 2
Fore
SplineSet
946 -10 m 1x9c
 889 31 835 72 813 158 c 1
 729 72 632 5 482 2 c 1
 473 2 l 2
 425 2 363 2 309 22 c 1
 306 -400 l 1
 149 -400 l 1
 154 214 l 1
 151 482 158 911 131 994 c 1
 291 1021 l 1
 313 929 308 616 310 250 c 1
 316 216 338 190 360 174 c 0
 374 164 425 156 466 156 c 1x3c
 533 159 574 167 625 198 c 0
 672 226 741 256 779 344 c 1
 780 1001 l 1
 938 1001 l 1
 937 239 l 1
 939 187 988 139 1028 107 c 1
 946 -10 l 1x9c
EndSplineSet
Validated: 1
EndChar

StartChar: paragraph
Encoding: 182 182 170
Width: 1120
VWidth: 0
Flags: W
HStem: -10 21G<797 949> -10 21G<797 949> 1169 159<661 795>
VStem: 76 585<679.203 1130.78> 509 155<22.0462 476.365> 795 154<-9 1169>
LayerCount: 2
Fore
SplineSet
795 1041 m 2xb4
 795 1169 l 1
 754 1170 714 1173 661 1174 c 1xb4
 662 844 661 512 664 184 c 1
 664 45 622 -30 622 -30 c 1
 468 22 l 1
 468 22 509 85 509 229 c 1xac
 507 473 l 1
 339 485 222 526 143 641 c 0
 83 730 76 831 76 924 c 0
 76 1016 95 1108 149 1174 c 0
 264 1315 435 1328 660 1328 c 0
 793 1328 831 1320 949 1320 c 1
 949 -9 l 1
 797 -10 l 1
 797 325 795 597 795 1041 c 2xb4
EndSplineSet
Validated: 1
EndChar

StartChar: dieresis
Encoding: 168 168 173
Width: 1120
VWidth: -28
Flags: W
HStem: 1090 225<179 414 585 820>
VStem: 179 235<1090 1312> 585 235<1087 1309>
LayerCount: 2
Fore
SplineSet
179 1315 m 1
 414 1312 l 1
 414 1087 l 1
 179 1090 l 1
 179 1315 l 1
585 1312 m 1
 820 1309 l 1
 820 1084 l 1
 585 1087 l 1
 585 1312 l 1
EndSplineSet
Validated: 1
EndChar

StartChar: acute
Encoding: 180 180 174
Width: 1120
VWidth: -43
Flags: W
HStem: 1201 416
VStem: 261 543
LayerCount: 2
Fore
SplineSet
261 1349 m 1
 404 1397 579 1509 694 1617 c 1
 804 1470 l 1
 693 1358 471 1248 328 1201 c 1
 261 1349 l 1
EndSplineSet
Validated: 1
EndChar

StartChar: degree
Encoding: 176 176 175
Width: 1120
VWidth: -26
Flags: W
HStem: 922 125<416.828 573.277> 1188 124<413.557 574.087>
VStem: 279 129<1057.22 1177.63> 580 132<1056.77 1178.04>
LayerCount: 2
Fore
SplineSet
408 1119 m 0
 408 1084 444 1047 495 1047 c 0
 546 1047 580 1084 580 1119 c 0
 580 1154 547 1188 495 1188 c 0
 443 1188 408 1154 408 1119 c 0
279 1117 m 0
 279 1228 381 1312 496 1312 c 0
 611 1312 712 1228 712 1117 c 0
 712 1006 611 922 496 922 c 0
 381 922 279 1006 279 1117 c 0
EndSplineSet
Validated: 1
EndChar

StartChar: macron
Encoding: 175 175 176
Width: 1120
VWidth: -34
Flags: W
HStem: 1182 154<268 722>
VStem: 268 454<1185 1335>
LayerCount: 2
Fore
SplineSet
268 1340 m 1
 304 1336 347 1335 393 1335 c 0
 439 1335 490 1336 541 1336 c 0
 601 1336 662 1336 722 1336 c 1
 722 1184 l 1
 705 1184 l 1
 647 1182 577 1182 503 1182 c 0
 476 1182 449 1182 422 1182 c 0
 369 1182 317 1182 268 1185 c 1
 268 1340 l 1
EndSplineSet
Validated: 1
EndChar

StartChar: dotlessi
Encoding: 305 305 177
Width: 1120
VWidth: 0
Flags: W
HStem: -18 142<587.434 950.467> 857 156<164.467 418>
VStem: 418 160<133.613 857>
LayerCount: 2
Fore
SplineSet
457 1013 m 2
 577 1013 l 1
 577 740 578 210 578 210 c 1
 583 128 623 124 715 124 c 0
 808 124 932 145 1001 197 c 1
 1069 83 l 1
 983 12 840 -18 716 -18 c 0
 631 -18 555 -4 511 20 c 0
 426 67 418 147 418 206 c 2
 418 857 l 1
 369 857 255 851 160 829 c 1
 131 971 l 1
 243 997 353 1013 457 1013 c 2
EndSplineSet
Validated: 1
EndChar

StartChar: asterisk
Encoding: 42 42 191
Width: 1120
VWidth: 0
Flags: W
VStem: 474 163<774 1199>
LayerCount: 2
Fore
SplineSet
474 774 m 1
 470 1199 l 1
 639 1200 l 1
 637 773 l 1
 963 919 l 1
 1037 781 l 1
 674 628 l 1
 946 307 l 1
 820 196 l 1
 562 563 l 1
 317 197 l 1
 185 302 l 1
 441 628 l 1
 88 770 l 1
 154 914 l 1
 474 774 l 1
EndSplineSet
Validated: 1
EndChar

StartChar: ordfeminine
Encoding: 170 170 192
Width: 1120
VWidth: 6
Flags: W
HStem: 467 116<255 708> 668 96<328.323 519.323> 931 95<347.318 568.633> 1022 21G<273.5 326.5> 1125 95<345.799 551.895>
VStem: 232 90<771.273 902.562> 572 91<814.732 921.265 1010 1106.91>
LayerCount: 2
Fore
SplineSet
404 764 m 0xee
 475 764 553 830 572 853 c 1
 572 905 l 1
 545 920 506 928 460 931 c 0
 458 931 456 931 454 931 c 0
 392 931 322 887 322 837 c 0
 322 796 351 764 404 764 c 0xee
661 658 m 1
 634 680 600 698 584 739 c 1
 543 703 484 668 408 668 c 0
 314 668 232 744 232 839 c 0
 232 882 248 925 283 959 c 0
 339 1012 398 1026 461 1026 c 0xee
 501 1026 541 1019 570 1010 c 1
 561 1099 530 1125 454 1125 c 0
 383 1125 347 1098 306 1022 c 1xde
 228 1070 l 1
 238 1088 l 1
 292 1179 363 1218 452 1220 c 1
 572 1220 652 1143 660 1018 c 0
 663 986 664 938 664 918 c 0
 664 877 663 863 663 841 c 0
 663 821 665 780 671 770 c 0
 673 768 707 743 720 735 c 1
 661 658 l 1
708 583 m 1
 709 469 l 1
 692 469 l 1
 634 467 564 467 490 467 c 0
 463 467 436 467 409 467 c 0
 356 467 304 467 255 470 c 1
 254 585 l 1
 273 585 l 1
 338 583 435 583 527 583 c 0
 587 583 648 583 708 583 c 1
EndSplineSet
Validated: 1
EndChar

StartChar: logicalnot
Encoding: 172 172 193
Width: 1120
VWidth: 6
Flags: W
HStem: 448 152<193 794>
VStem: 794 154<174 444>
LayerCount: 2
Fore
SplineSet
187 592 m 1
 323 599 434 600 536 600 c 0
 577 600 616 600 655 600 c 0
 737 600 822 599 929 598 c 1
 948 598 l 1
 948 457 948 315 948 174 c 1
 794 174 l 1
 794 444 l 1
 659 447 659 448 534 448 c 0
 467 448 345 447 193 439 c 1
 193 523 l 1
 187 592 l 1
EndSplineSet
Validated: 1
EndChar

StartChar: uni00AD
Encoding: 173 173 194
Width: 1120
VWidth: 6
Flags: W
HStem: 448 152<193 947>
LayerCount: 2
Fore
SplineSet
187 592 m 1
 323 599 434 600 536 600 c 0
 577 600 616 600 655 600 c 0
 737 600 822 599 929 598 c 1
 947 598 l 1
 947 445 l 1
 929 445 l 1
 794 448 659 448 534 448 c 0
 467 448 345 447 193 439 c 1
 193 523 l 1
 187 592 l 1
EndSplineSet
Validated: 1
EndChar

StartChar: cedilla
Encoding: 184 184 197
Width: 1120
VWidth: 12
Flags: W
HStem: -358 125<475.445 680.66> -136 188<520 595.783> -119 175<521.294 664.524>
VStem: 520 145<-25.4613 52> 684 136<-226.217 -127.936>
LayerCount: 2
Fore
SplineSet
666 56 m 1xb8
 665 48 665 -16 665 -19 c 1
 762 -24 820 -86 820 -190 c 0
 820 -291 720 -358 636 -358 c 0
 570 -358 498 -333 442 -297 c 1
 480 -191 l 1
 513 -209 553 -233 604 -233 c 0
 640 -233 681 -213 684 -175 c 1
 684 -173 l 2
 684 -144 646 -119 598 -119 c 0xb8
 550 -119 548 -126 520 -136 c 1
 520 52 l 1xd8
 666 56 l 1xb8
EndSplineSet
Validated: 1
EndChar

StartChar: ordmasculine
Encoding: 186 186 199
Width: 1120
VWidth: 6
Flags: W
HStem: 467 116<255 708> 671 117<363.203 591.109> 1101 117<375.708 596.964>
VStem: 205 126<815.284 1055.19> 635 125<831.251 1063.17>
LayerCount: 2
Fore
SplineSet
482 788 m 0
 578 788 635 857 635 954 c 0
 635 1028 588 1101 490 1101 c 2
 488 1101 l 2
 382 1101 331 1027 331 921 c 0
 331 838 376 788 479 788 c 0
 480 788 481 788 482 788 c 0
205 918 m 0
 205 1082 305 1218 479 1218 c 0
 602 1218 665 1173 714 1103 c 0
 743 1061 760 1011 760 958 c 0
 760 937 756 909 751 889 c 0
 724 772 651 672 481 671 c 1
 478 671 l 2
 307 671 205 766 205 918 c 0
708 583 m 1
 709 469 l 1
 692 469 l 1
 634 467 564 467 490 467 c 0
 463 467 436 467 409 467 c 0
 356 467 304 467 255 470 c 1
 254 585 l 1
 273 585 l 1
 338 583 435 583 527 583 c 0
 587 583 648 583 708 583 c 1
EndSplineSet
Validated: 1
EndChar

StartChar: onequarter
Encoding: 188 188 200
Width: 1120
VWidth: 0
Flags: W
HStem: -3 21G<266.851 366 803 887> 221 85<631 803 887 956> 1354 20G<345 424.391 742 837.818>
VStem: 350 86<672 1234> 803 84<-3 221 306 533 620.037 703>
LayerCount: 2
Fore
SplineSet
347 1374 m 1
 436 1351 l 1
 436 672 l 1
 350 672 l 1
 349 1234 l 1
 313 1189 240 1135 171 1096 c 1
 127 1169 l 1
 289 1250 343 1366 347 1374 c 1
803 306 m 1
 803 533 l 1
 764 463 681 358 631 306 c 1
 803 306 l 1
518 291 m 1
 536 316 787 615 799 703 c 1
 887 703 l 1
 887 306 l 1
 956 306 l 1
 956 223 l 1
 887 223 l 1
 887 -3 l 1
 803 -3 l 1
 803 221 l 1
 551 221 l 1
 518 291 l 1
214 41 m 1
 220 54 247 111 264 153 c 1
 361 378 688 1106 796 1392 c 1
 888 1348 l 1
 750 996 426 276 306 -6 c 1
 214 41 l 1
EndSplineSet
Validated: 1
EndChar

StartChar: onehalf
Encoding: 189 189 201
Width: 1120
VWidth: 0
Flags: W
HStem: -2 21G<231.851 331> 5 84<658 978> 633 85<676.72 858.149> 1363 20G<306 385.391 707 802.818>
VStem: 311 86<681 1243> 562 96<89 173.018> 568 86<470.373 608.734> 881 87<413.131 612.603>
LayerCount: 2
Fore
SplineSet
308 1383 m 1x39
 397 1360 l 1
 397 681 l 1
 311 681 l 1
 310 1243 l 1
 274 1198 201 1144 132 1105 c 1
 88 1178 l 1
 250 1259 304 1375 308 1383 c 1x39
662 472 m 1
 580 453 l 1
 575 469 570 494 569 514 c 0
 569 519 568 524 568 528 c 0x7b
 568 649 658 718 766 718 c 0
 897 718 968 653 968 511 c 0
 968 442 925 380 881 334 c 1
 835 288 769 240 713 185 c 0
 674 147 659 109 658 89 c 1
 978 90 l 1
 978 5 l 1
 563 5 l 1
 563 21 562 39 562 57 c 0x7d
 562 71 562 86 565 101 c 0
 575 154 600 201 659 256 c 0
 717 310 772 345 815 387 c 0
 857 427 881 477 881 510 c 0
 881 573 850 633 771 633 c 0
 700 633 654 594 654 507 c 0x7b
 654 496 660 478 662 472 c 1
179 45 m 1
 185 58 213 115 230 157 c 1
 327 382 653 1110 761 1396 c 1
 853 1352 l 1
 715 1000 391 280 271 -2 c 1xb9
 179 45 l 1
EndSplineSet
Validated: 1
EndChar

StartChar: threequarters
Encoding: 190 190 202
Width: 1120
VWidth: 0
Flags: W
HStem: 227 85<643 815 899 968> 655 84<198.08 403.455> 1028 86<229 370.753> 1298 85<208.607 382.786> 1384 20G<786 881.818>
VStem: 87 86<763.212 849> 393 85<1141.44 1283.78> 435 86<770.732 979.301> 815 84<3 227 312 539 626.037 709>
LayerCount: 2
Fore
SplineSet
87 849 m 1xfd80
 173 849 l 1
 174 786 217 739 297 739 c 0
 383 739 435 790 435 870 c 0xfd80
 435 930 416 971 364 1000 c 0
 315 1028 272 1028 229 1028 c 1
 229 1114 l 1
 232 1114 235 1114 238 1114 c 0
 259 1114 285 1115 324 1128 c 0
 369 1144 393 1169 393 1224 c 0
 393 1266 347 1298 292 1298 c 0
 223 1298 192 1235 182 1215 c 1
 106 1257 l 1
 109 1265 156 1383 287 1383 c 0
 289 1383 291 1383 293 1383 c 0
 390 1383 478 1331 478 1227 c 0xfe80
 478 1158 451 1099 402 1077 c 1
 489 1035 521 963 521 871 c 0
 521 825 505 765 469 722 c 0
 433 680 383 655 297 655 c 0
 167 655 87 738 87 849 c 1xfd80
815 312 m 1
 815 539 l 1
 776 469 693 364 643 312 c 1
 815 312 l 1
530 297 m 1
 548 322 799 621 811 709 c 1
 899 709 l 1
 899 312 l 1
 968 312 l 1
 968 229 l 1
 899 229 l 1
 899 3 l 1
 815 3 l 1
 815 227 l 1
 563 227 l 1
 530 297 l 1
258 53 m 1
 264 66 292 123 309 165 c 1
 406 390 732 1118 840 1404 c 1
 932 1360 l 1
 794 1008 470 288 350 6 c 1
 258 53 l 1
EndSplineSet
Validated: 1
EndChar

StartChar: Aogonek
Encoding: 260 260 206
Width: 1120
VWidth: 32
Flags: W
HStem: -388 111<861.429 1064.17> 355 178<384.946 732> 1395 20G<498.498 629.344>
VStem: 718 136<-264.728 -110.394>
LayerCount: 2
Fore
SplineSet
732 534 m 1
 564 1070 l 1
 382 512 l 1
 445 526 498 529 585 533 c 1
 732 534 l 1
505 1415 m 1
 623 1415 l 1
 1068 12 l 1
 967 -48 854 -119 854 -203 c 2
 854 -205 l 2
 854 -248 900 -277 944 -277 c 0
 1002 -277 1050 -263 1083 -245 c 1
 1117 -312 l 1
 1061 -348 993 -388 902 -388 c 0
 818 -388 718 -321 718 -220 c 0
 718 -92 807 -1 871 68 c 1
 792 355 l 1
 644 352 439 353 322 324 c 1
 215 -26 l 1
 45 0 l 1
 505 1415 l 1
EndSplineSet
Validated: 1
EndChar

StartChar: aogonek
Encoding: 261 261 207
Width: 1120
VWidth: 32
Flags: HW
HStem: -335 111<819.429 1022.17> -6 152<315.367 581.736> 504 153<364.522 699.622> 877 151<356.149 659.625>
VStem: 118 156<186.95 423.616> 676 136<-211.728 -61.5171> 736 157<285.558 463.324 597 791.012>
LayerCount: 2
Fore
SplineSet
274 311 m 0xfa
 274 206 330 146 423 146 c 0
 603 146 710 304 736 345 c 1
 736 440 l 1
 679 475 599 504 529 504 c 0
 393 504 274 429 274 311 c 0xfa
893 318 m 2
 893 283 893 190 906 173 c 0
 919 155 956 132 985 109 c 1
 902 -10 l 1
 880 -27 812 -102 812 -150 c 2
 812 -152 l 2
 812 -195 858 -224 902 -224 c 0
 960 -224 1008 -210 1041 -192 c 1
 1075 -259 l 1
 1019 -295 951 -335 860 -335 c 0
 776 -335 676 -268 676 -167 c 0xfc
 676 -48 774 49 774 135 c 0
 774 141 774 146 773 152 c 0
 773 153 772 155 772 156 c 1
 694 81 605 -6 423 -6 c 0
 252 -6 118 135 118 301 c 0
 118 377 148 466 207 527 c 0
 302 624 412 657 530 657 c 0
 615 657 681 630 735 597 c 1
 735 792 668 877 516 877 c 0
 378 877 323 828 243 685 c 1
 113 767 l 1
 209 949 336 1025 514 1028 c 1
 739 1028 889 878 889 657 c 1
 893 318 l 2
EndSplineSet
Validated: 1
EndChar

StartChar: dcaron
Encoding: 271 271 208
Width: 1120
VWidth: 32
Flags: W
HStem: -7 154<290.142 589.56> 858 155<331.251 605.98> 1391 20<667 831.5> 1395 20G<916.5 1007.83>
VStem: 46 158<241.806 717.436> 683 157<241.719 785.775 949 1399.8> 860 152<1025.79 1147.75>
LayerCount: 2
Fore
SplineSet
1121 1367 m 5xde
 1083 1255 1057 1146 1012 995 c 5
 860 1029 l 5
 878 1171 906 1312 927 1415 c 5
 1121 1367 l 5xde
EndSplineSet
Refer: 3 100 N 1 0 0 1 -78 0 2
Validated: 1
EndChar

StartChar: Dcroat
Encoding: 272 272 209
Width: 1120
VWidth: 0
Flags: W
HStem: -10 154<270 697.626> 773 148<44 116 274 640> 1176 155<274 579.421>
VStem: 116 158<147 773 921 1173.17> 850 159<312.146 850.696>
LayerCount: 2
Fore
SplineSet
116 921 m 1
 116 977 l 2
 116 1106 112 1229 103 1317 c 1
 184 1325 229 1331 328 1331 c 0
 599 1331 755 1249 878 1066 c 1
 962 939 1009 761 1009 580 c 0
 1009 511 1001 442 988 376 c 0
 940 135 779 14 599 -3 c 0
 544 -8 493 -10 438 -10 c 0
 354 -10 221 -3 107 -3 c 1
 107 31 107 30 110 128 c 1
 110 176 115 483 116 773 c 1
 44 773 l 1
 44 921 l 1
 116 921 l 1
349 1176 m 2
 319 1176 l 2
 303 1176 291 1176 274 1173 c 1
 275 1147 275 1117 275 1086 c 0
 275 1034 274 978 274 921 c 1
 396 921 518 921 640 921 c 1
 641 773 l 1
 274 773 l 1
 273 501 271 233 270 147 c 1
 358 144 403 144 463 144 c 0
 632 144 758 170 823 353 c 0
 839 399 850 489 850 544 c 0
 850 706 814 876 749 973 c 0
 660 1104 570 1176 349 1176 c 2
EndSplineSet
Validated: 1
EndChar

StartChar: dcroat
Encoding: 273 273 210
Width: 1120
VWidth: -2
Flags: W
HStem: -7 154<367.869 667.56> 858 155<403.119 683.98> 1118 152<440 756 918 1010> 1391 20G<745 906.5>
VStem: 124 156<249.683 713.724> 761 156<241.719 785.775 949 1118 1270 1401.17>
LayerCount: 2
Fore
SplineSet
917 267 m 1
 917 241 l 2
 917 158 925 72 935 7 c 1
 772 -12 l 1
 767 20 762 42 761 84 c 1
 698 28 617 -7 505 -7 c 0
 230 -7 124 191 124 459 c 0
 124 795 251 1013 574 1013 c 0
 674 1013 712 980 760 949 c 1
 760 1118 l 1
 440 1118 l 1
 440 1270 l 1
 756 1270 l 1
 753 1319 749 1364 745 1403 c 1
 904 1411 l 1
 909 1369 913 1321 915 1270 c 1
 1010 1270 l 1
 1010 1118 l 1
 918 1118 l 1
 917 267 l 1
280 478 m 0
 280 274 335 147 505 147 c 0
 642 147 690 193 761 307 c 1
 761 744 l 1
 709 795 651 858 560 858 c 0
 397 858 280 761 280 478 c 0
EndSplineSet
Validated: 1
EndChar

StartChar: Eogonek
Encoding: 280 280 215
Width: 1120
VWidth: 32
Flags: W
HStem: -397 111<790.429 993.172> -3 163<291 752> 726 164<294 754> 1247 167<294 954>
VStem: 128 166<160 726 890 1247> 647 136<-273.728 -115.159>
LayerCount: 2
Fore
SplineSet
128 1409 m 1
 187 1413 260 1414 342 1414 c 0
 375 1414 409 1414 445 1414 c 2
 561 1414 l 2
 717 1414 860 1410 938 1410 c 2
 954 1410 l 1
 954 1247 l 1
 294 1247 l 1
 294 890 l 1
 754 890 l 1
 754 726 l 1
 294 726 l 1
 294 693 l 2
 294 472 291 244 291 160 c 1
 842 162 l 2
 901 162 965 191 965 191 c 1
 1011 29 l 1
 982 21 958 12 928 5 c 1
 870 -81 783 -132 783 -212 c 2
 783 -214 l 2
 783 -257 829 -286 873 -286 c 0
 931 -286 979 -272 1012 -254 c 1
 1046 -321 l 1
 990 -357 922 -397 831 -397 c 0
 747 -397 647 -330 647 -229 c 0
 647 -113 696 -62 752 -3 c 1
 128 -3 l 1
 128 1409 l 1
EndSplineSet
Validated: 1
EndChar

StartChar: eogonek
Encoding: 281 281 216
Width: 1120
VWidth: 32
Flags: W
HStem: -413 111<477.429 680.172> 460 150<480.379 804> 869 152<401.998 691.11>
VStem: 118 158<258.9 429.895 580 738.031> 334 136<-289.728 -130.285> 804 159<611 749.303>
LayerCount: 2
Fore
SplineSet
276 580 m 1
 384 591 626 606 769 610 c 2
 804 611 l 1
 798 767 686 869 550 869 c 0
 380 869 277 734 276 580 c 1
549 1021 m 0
 926 1021 963 641 963 503 c 0
 963 483 963 468 962 460 c 1
 677 456 441 439 276 427 c 1
 276 274 359 143 545 143 c 0
 702 143 790 230 825 286 c 1
 946 183 l 1
 934 163 842 22 618 -5 c 1
 560 -94 470 -147 470 -228 c 2
 470 -230 l 2
 470 -273 516 -302 560 -302 c 0
 618 -302 666 -288 699 -270 c 1
 733 -337 l 1
 677 -373 609 -413 518 -413 c 0
 434 -413 334 -346 334 -245 c 0
 334 -118 391 -70 454 -3 c 1
 227 36 118 236 118 516 c 0
 118 802 266 1021 549 1021 c 0
EndSplineSet
Validated: 1
EndChar

StartChar: Iogonek
Encoding: 302 302 235
Width: 1120
VWidth: 32
Flags: W
HStem: -400 111<764.429 967.172> 5 160<162 464 632 737 871.262 912> 1247 168<166 464 632 917>
VStem: 464 168<165 1255> 621 136<-276.728 -115.977>
LayerCount: 2
Fore
SplineSet
160 1415 m 1xf0
 324 1419 429 1419 530 1419 c 0
 640 1419 746 1418 917 1416 c 1
 917 1250 l 1
 788 1250 733 1256 632 1256 c 1
 632 165 l 1xf0
 680 165 707 167 761 167 c 0
 808 167 857 165 912 162 c 1
 912 -1 l 1
 908 -1 904 -0 900 -0 c 1
 842 -85 757 -136 757 -215 c 2
 757 -217 l 2
 757 -260 803 -289 847 -289 c 0
 905 -289 953 -275 986 -257 c 1
 1020 -324 l 1
 964 -360 896 -400 805 -400 c 0
 721 -400 621 -333 621 -232 c 0xe8
 621 -108 676 -60 737 5 c 1
 722 5 707 5 692 5 c 0
 643 5 591 4 529 4 c 0
 451 4 325 -3 162 -3 c 1
 162 159 l 1
 251 163 325 165 385 165 c 2
 464 165 l 1
 464 1255 l 1
 395 1254 277 1254 166 1247 c 1
 160 1415 l 1xf0
EndSplineSet
Validated: 1
EndChar

StartChar: iogonek
Encoding: 303 303 236
Width: 1120
VWidth: 32
Flags: W
HStem: -388 111<851.429 1054.17> -18 142<627.434 788.477> 857 156<204.467 458> 1178 225<394 629>
VStem: 394 235<1178 1400> 458 160<133.613 857> 708 136<-264.728 -105.778>
LayerCount: 2
Fore
SplineSet
497 1013 m 2xf6
 617 1013 l 1
 617 740 618 210 618 210 c 1
 623 128 663 124 755 124 c 0
 848 124 972 145 1041 197 c 1
 1109 83 l 1
 1077 56 1036 36 992 20 c 1
 934 -69 844 -122 844 -203 c 2
 844 -205 l 2
 844 -248 890 -277 934 -277 c 0
 992 -277 1040 -263 1073 -245 c 1
 1107 -312 l 1
 1051 -348 983 -388 892 -388 c 0
 808 -388 708 -321 708 -220 c 0
 708 -119 744 -68 791 -17 c 1
 779 -18 768 -18 756 -18 c 0
 671 -18 595 -4 551 20 c 0
 466 67 458 147 458 206 c 2
 458 857 l 1
 409 857 295 851 200 829 c 1
 171 971 l 1
 283 997 393 1013 497 1013 c 2xf6
394 1403 m 1xfa
 629 1400 l 1
 629 1175 l 1
 394 1178 l 1
 394 1403 l 1xfa
EndSplineSet
Validated: 1
EndChar

StartChar: Lcaron
Encoding: 317 317 247
Width: 1120
VWidth: 32
Flags: W
HStem: -3 168<338 1009.86> 1389 20G<828.5 919.833> 1395 20<169 338>
VStem: 169 169<165 1415> 772 152<1019.79 1141.75>
LayerCount: 2
Fore
SplineSet
1033 1361 m 5xd8
 995 1249 969 1140 924 989 c 5
 772 1023 l 5
 790 1165 818 1306 839 1409 c 5
 1033 1361 l 5xd8
EndSplineSet
Refer: 35 76 N 1 0 0 1 0 0 2
Validated: 1
EndChar

StartChar: lcaron
Encoding: 318 318 248
Width: 1120
VWidth: 32
Flags: W
HStem: -16 142<568.434 931.467> 1020 21G<826.588 938.5> 1273 155<143.466 396> 1420 20G<821.5 912.833>
VStem: 399 160<135.613 1273> 764 152<1050.79 1172.75>
LayerCount: 2
Fore
SplineSet
1026 1392 m 1xdc
 988 1280 961 1171 916 1020 c 1
 764 1054 l 1
 782 1196 811 1337 832 1440 c 1
 1026 1392 l 1xdc
EndSplineSet
Refer: 12 108 N 1 0 0 1 0 0 2
Validated: 1
EndChar

StartChar: Eng
Encoding: 330 330 257
Width: 1120
VWidth: 0
Flags: W
HStem: -391 169<433 670.051> -3 21G<100 267> 1246 167<430.406 707.534> 1414 20G<169.419 232>
VStem: 100 167<-3 1078.07> 815 164<-93.0946 1122.33>
LayerCount: 2
Fore
SplineSet
588 1413 m 0
 892 1413 974 1200 974 937 c 0
 974 685 979 436 979 180 c 2
 979 143 l 2
 979 -136 926 -391 468 -391 c 2
 433 -391 l 1
 433 -222 l 1
 796 -215 815 -63 815 116 c 2
 815 929 l 2
 815 1130 715 1246 590 1246 c 0
 386 1246 305 1072 267 998 c 1
 267 -3 l 1
 100 -3 l 1
 100 1154 l 2
 100 1279 59 1372 59 1372 c 1
 222 1434 l 1
 242 1391 258 1357 265 1273 c 1
 328 1384 445 1413 588 1413 c 0
EndSplineSet
Validated: 1
EndChar

StartChar: eng
Encoding: 331 331 258
Width: 1120
VWidth: 6
Flags: W
HStem: -368 156<472 656.766> 872 150<449.07 710.196>
VStem: 153 158<0 778.144> 737 159<-124.65 841.083>
LayerCount: 2
Fore
SplineSet
311 927 m 1
 437 993 497 1022 607 1022 c 0
 728 1022 896 945 896 796 c 2
 896 211 l 2
 896 -88 894 -368 476 -368 c 2
 472 -368 l 1
 469 -212 l 2
 470 -212 471 -212 472 -212 c 0
 703 -212 737 -114 737 149 c 0
 737 354 737 560 737 765 c 0
 737 839 652 872 585 872 c 0
 522 872 457 830 312 760 c 1
 311 0 l 1
 153 -1 l 1
 153 705 l 2
 153 883 145 909 121 1003 c 1
 281 1040 l 1
 291 1016 304 976 311 927 c 1
EndSplineSet
Validated: 1
EndChar

StartChar: Scedilla
Encoding: 350 350 275
Width: 1120
VWidth: 32
Flags: W
HStem: -410 125<440.445 645.66> -6 161<362.772 485 631 747.433> 1251 168<336.832 723.64>
VStem: 66 166<276.975 450> 97 167<968.253 1182.26> 485 145<-77.4613 -2.61438> 649 136<-278.217 -179.936> 810 167<1104.34 1165.79> 849 168<254.498 561.312>
LayerCount: 2
Fore
SplineSet
280 773 m 1xf680
 184 820 97 919 97 1078 c 0
 97 1313 292 1419 514 1419 c 0
 517 1419 521 1419 524 1419 c 0
 758 1416 937 1333 977 1107 c 1
 810 1076 l 1
 770 1214 682 1251 520 1251 c 0
 413 1251 348 1228 300 1179 c 1
 275 1152 264 1120 264 1083 c 0xef
 264 994 312 951 371 923 c 0
 494 862 658 863 797 798 c 1
 910 741 1017 613 1017 423 c 0
 1017 155 852 15 631 -7 c 1
 630 -28 630 -69 630 -71 c 1
 727 -76 785 -138 785 -242 c 0
 785 -343 685 -410 601 -410 c 0
 535 -410 463 -385 407 -349 c 1
 445 -243 l 1
 478 -261 518 -285 569 -285 c 0
 605 -285 646 -265 649 -227 c 1
 649 -225 l 2
 649 -196 611 -171 563 -171 c 0
 515 -171 513 -178 485 -188 c 1
 485 -6 l 1
 165 25 66 221 66 450 c 1
 232 450 l 1
 232 277 319 155 554 155 c 0
 769 155 849 258 849 414 c 0
 849 531 788 605 705 642 c 0
 583 696 420 708 280 773 c 1xf680
EndSplineSet
Validated: 1
EndChar

StartChar: scedilla
Encoding: 351 351 276
Width: 1120
VWidth: 32
Flags: W
HStem: -420 125<398.445 603.66> -16 139<353.688 443 589 684.31> 881 148<353.448 689.835>
VStem: 132 157<190.518 329> 166 160<706.04 850.139> 443 145<-87.4613 -11.9371> 607 136<-288.217 -189.936> 755 155<188.544 389.011>
LayerCount: 2
Fore
SplineSet
283 571 m 0xf7
 218 606 166 672 166 783 c 0
 167 956 329 1029 504 1029 c 0
 626 1029 802 989 884 888 c 1
 771 777 l 1
 718 839 604 881 518 881 c 0
 412 881 326 847 326 787 c 0xef
 326 739 343 716 383 698 c 1
 648 586 910 565 910 281 c 0
 910 119 796 28 689 0 c 0
 656 -8 623 -13 589 -16 c 1
 588 -36 588 -79 588 -81 c 1
 685 -86 743 -148 743 -252 c 0
 743 -353 643 -420 559 -420 c 0
 493 -420 421 -395 365 -359 c 1
 403 -253 l 1
 436 -271 476 -295 527 -295 c 0
 563 -295 604 -275 607 -237 c 1
 607 -235 l 2
 607 -206 569 -181 521 -181 c 0
 473 -181 471 -188 443 -198 c 1
 443 -16 l 1
 236 8 132 137 132 330 c 1
 289 329 l 1
 289 195 358 123 513 123 c 0
 636 123 755 176 755 286 c 0
 755 359 724 385 669 426 c 1
 592 481 388 516 283 571 c 0xf7
EndSplineSet
Validated: 1
EndChar

StartChar: Tcommaaccent
Encoding: 354 354 279
Width: 1120
VWidth: 32
Flags: W
HStem: -410 125<410.445 615.66> 1247 169<62 444 612 975.953>
VStem: 444 168<-80.9766 1247> 619 136<-278.217 -179.936>
LayerCount: 2
Fore
SplineSet
444 -10 m 1
 444 1247 l 1
 236 1247 142 1246 62 1246 c 1
 62 1415 l 1
 190 1415 667 1416 864 1416 c 0
 941 1416 992 1403 1011 1400 c 1
 976 1234 l 1
 976 1234 911 1247 859 1247 c 2
 612 1247 l 1
 612 -10 l 1
 601 -10 l 1
 601 -31 600 -69 600 -71 c 1
 697 -76 755 -138 755 -242 c 0
 755 -343 655 -410 571 -410 c 0
 505 -410 433 -385 377 -349 c 1
 415 -243 l 1
 448 -261 488 -285 539 -285 c 0
 575 -285 616 -265 619 -227 c 1
 619 -225 l 2
 619 -196 581 -171 533 -171 c 0
 485 -171 483 -178 455 -188 c 1
 455 -10 l 1
 444 -10 l 1
EndSplineSet
Validated: 1
EndChar

StartChar: tcommaaccent
Encoding: 355 355 280
Width: 1120
VWidth: 32
Flags: W
HStem: -406 125<472.445 677.66> -5 154<662 800.142> 872 145<172 200>
VStem: 202 159<209.621 865 1017 1245> 517 145<-73.4613 -5> 681 136<-274.217 -175.936>
LayerCount: 2
Fore
SplineSet
361 437 m 1
 361 397 l 2
 361 264 397 163 508 152 c 0
 526 150 603 149 616 149 c 0
 681 149 745 159 770 173 c 0
 827 203 845 258 852 277 c 1
 978 221 l 1
 968 193 945 102 833 37 c 0
 785 9 728 -2 662 -5 c 1
 662 -26 662 -65 662 -67 c 1
 759 -72 817 -134 817 -238 c 0
 817 -339 717 -406 633 -406 c 0
 567 -406 495 -381 439 -345 c 1
 477 -239 l 1
 510 -257 550 -281 601 -281 c 0
 637 -281 678 -261 681 -223 c 1
 681 -221 l 2
 681 -192 643 -167 595 -167 c 0
 547 -167 545 -174 517 -184 c 1
 517 -3 l 1
 388 6 298 42 241 161 c 0
 206 233 202 308 202 394 c 2
 202 437 l 1
 206 541 208 672 214 865 c 1
 200 865 l 2
 172 865 144 861 118 854 c 1
 98 1000 l 1
 122 1009 167 1012 200 1012 c 2
 215 1012 l 1
 215 1082 216 1176 216 1246 c 1
 374 1245 l 1
 374 1179 373 1085 372 1017 c 1
 494 1017 l 1
 639 1018 793 1019 793 1019 c 1
 811 1019 l 1
 811 872 l 1
 494 872 l 2
 448 872 421 869 375 869 c 1
 366 665 365 537 361 437 c 1
EndSplineSet
Validated: 1
EndChar

StartChar: tcaron
Encoding: 357 357 282
Width: 1120
VWidth: 32
Flags: W
HStem: -6 155<423.71 798.905> 872 145<172 200>
VStem: 202 159<209.621 865 1017 1245> 623 152<1106.79 1228.75>
LayerCount: 2
Fore
SplineSet
884 1448 m 1
 846 1336 820 1227 775 1076 c 1
 623 1110 l 1
 641 1252 669 1393 690 1496 c 1
 884 1448 l 1
EndSplineSet
Refer: 19 116 N 1 0 0 1 0 0 2
Validated: 1
EndChar

StartChar: Uogonek
Encoding: 370 370 293
Width: 1120
VWidth: 32
Flags: W
HStem: -414 111<474.429 677.172> 1411 8G<91 260 832 1002>
VStem: 85 167<304.484 1419> 331 136<-290.728 -132.533> 823 169<307.281 1417.39>
LayerCount: 2
Fore
SplineSet
837 1431 m 1
 1002 1417 l 1
 993 1352 992 1305 992 1246 c 0
 992 1088 994 949 994 828 c 2
 994 765 l 2
 994 512 991 271 873 130 c 0
 804 47 717 10 616 -4 c 1
 558 -95 467 -147 467 -229 c 2
 467 -231 l 2
 467 -274 513 -303 557 -303 c 0
 615 -303 663 -289 696 -271 c 1
 730 -338 l 1
 674 -374 606 -414 515 -414 c 0
 431 -414 331 -347 331 -246 c 0
 331 -121 387 -72 449 -6 c 1
 195 25 109 201 92 487 c 0
 87 569 85 702 85 849 c 0
 85 1036 88 1247 94 1419 c 1
 260 1419 l 1
 256 1239 252 996 252 794 c 0
 252 660 254 544 259 479 c 0
 278 250 364 154 524 154 c 1
 635 159 690 184 747 245 c 1
 817 326 828 550 828 765 c 0
 828 899 823 1059 823 1244 c 0
 823 1321 827 1363 837 1431 c 1
EndSplineSet
Validated: 1
EndChar

StartChar: uogonek
Encoding: 371 371 294
Width: 1120
VWidth: 32
Flags: HW
HStem: -405 111<845.429 1048.17> 2 154<360.683 625.04> 1001 20G<172.481 302>
VStem: 154 156<180.892 701.424> 702 136<-281.728 -101.938> 779 158<276.783 1001>
LayerCount: 2
Fore
SplineSet
813 158 m 1xf8
 729 72 632 5 482 2 c 1
 473 2 l 2
 411 2 326 3 266 44 c 0
 221 75 154 132 154 214 c 0
 151 482 158 911 131 994 c 1
 291 1021 l 1
 313 929 308 616 310 250 c 1
 316 216 338 190 360 174 c 0
 374 164 425 156 466 156 c 1
 533 159 574 167 625 198 c 0
 672 226 741 256 779 344 c 1
 780 1001 l 1
 938 1001 l 1
 937 239 l 1xf4
 939 187 988 139 1028 107 c 1
 946 -10 l 1
 888 -105 838 -136 838 -220 c 2
 838 -222 l 2
 838 -265 884 -294 928 -294 c 0
 986 -294 1034 -280 1067 -262 c 1
 1101 -329 l 1
 1045 -365 977 -405 886 -405 c 0
 802 -405 702 -338 702 -237 c 0
 702 -110 813 9 813 152 c 0
 813 154 813 156 813 158 c 1xf8
EndSplineSet
Validated: 1
EndChar

StartChar: longs
Encoding: 383 383 306
Width: 1120
VWidth: -2
Flags: W
HStem: 859 153<152 295> 1266 152<488.036 864.583>
VStem: 152 300<859 1012> 295 157<0 859 1012 1231.57>
LayerCount: 2
Fore
SplineSet
452 1013 m 1xd0
 453 859 455 4 455 0 c 1
 298 0 l 1
 298 25 297 712 295 859 c 1xd0
 152 859 l 1
 152 1012 l 1xe0
 296 1012 l 1
 296 1028 295 1045 295 1064 c 0
 295 1207 323 1418 600 1418 c 0
 819 1418 967 1392 1051 1225 c 1
 925 1148 l 1
 875 1246 813 1266 608 1266 c 0
 461 1266 452 1168 452 1060 c 2
 452 1013 l 1xd0
EndSplineSet
Validated: 1
EndChar

StartChar: Euro
Encoding: 8364 8364 307
Width: 1120
VWidth: 0
Flags: W
HStem: -31 155<495.909 758.308> 431 152<104 200 366 687> 676 151<101 201 371 772> 1180 163<521.603 762.464>
VStem: 200 152<315.292 431 584 676> 217 154<829 979.375>
LayerCount: 2
Fore
SplineSet
823 833 m 1xf4
 772 682 l 1
 760 682 l 0
 703 680 672 676 596 676 c 0
 539 676 454 676 354 676 c 1
 353 653 352 631 352 609 c 0
 352 601 352 593 352 584 c 1
 382 583 400 583 438 583 c 0
 524 583 624 584 713 585 c 0
 739 585 l 1
 687 435 l 1
 366 431 l 1
 393 253 491 124 607 124 c 1
 626 124 l 2
 725 124 805 181 853 287 c 1
 984 200 l 1
 910 26 760 -31 621 -31 c 0
 542 -31 422 3 338 113 c 0
 272 198 228 309 209 432 c 1
 180 433 156 433 131 433 c 0
 112 433 93 433 68 432 c 1
 44 431 l 1
 50 456 l 0
 58 493 81 525 100 572 c 0
 104 583 l 1
 115 583 l 0
 157 584 181 584 200 584 c 1
 200 601 200 617 200 632 c 0xf8
 200 647 200 662 201 676 c 1
 138 677 95 677 66 679 c 0
 41 681 l 1
 51 707 l 1
 68 753 88 790 101 821 c 0
 106 833 l 1
 118 832 l 0
 135 831 171 830 217 829 c 1
 236 942 265 1026 299 1102 c 0
 381 1281 539 1343 638 1343 c 0
 746 1343 851 1287 943 1184 c 1
 878 999 l 1
 824 1102 736 1180 635 1180 c 0
 503 1180 408 1023 371 827 c 1
 414 827 439 827 480 827 c 0
 562 827 634 827 668 827 c 1
 720 829 755 831 797 832 c 0
 823 833 l 1xf4
EndSplineSet
Validated: 1
EndChar

StartChar: uniE000
Encoding: 57344 57344 308
Width: 1120
VWidth: 6
Flags: W
HStem: 390 154<458.981 613.371> 486 158<248.671 409.117>
VStem: 107 635
LayerCount: 2
Fore
SplineSet
116 491 m 2x60
 175 603 238 644 302 644 c 0x60
 406 644 501 544 559 544 c 0
 582 544 606 560 629 624 c 0
 638 650 l 1
 742 546 l 1
 735 532 l 0
 680 430 620 390 559 390 c 0xa0
 455 390 367 486 309 486 c 0
 282 486 259 475 234 409 c 0
 226 387 l 1
 107 475 l 1
 116 491 l 2x60
EndSplineSet
Validated: 1
EndChar

StartChar: uniE001
Encoding: 57345 57345 309
Width: 1120
VWidth: 6
Flags: W
HStem: -312 150<387.529 615.23> -11 152<410.059 530.911> 513 151<443.205 590.976> 894 150<435.333 572.135> 1191 152<385.927 606.731>
VStem: 63 123<166.673 870.319> 259 129<151.289 456.948> 605 117<224.252 496.71> 814 114<148.623 863.075>
LayerCount: 2
Fore
SplineSet
446 -11 m 1
 315 -5 259 154 259 299 c 0
 259 300 259 302 259 303 c 1
 259 380 276 461 311 524 c 1
 369 628 443 661 512 664 c 0
 515 664 517 664 520 664 c 0
 556 664 585 652 604 641 c 1
 595 806 586 894 502 894 c 0
 443 894 436 860 380 727 c 0
 372 709 l 1
 268 770 l 1
 274 787 l 0
 329 963 404 1041 502 1044 c 1
 543 1044 601 1025 642 967 c 1
 684 907 722 805 722 663 c 0
 722 229 l 1
 725 155 730 157 749 133 c 1
 750 131 754 128 757 126 c 1
 767 132 773 149 779 169 c 0
 811 267 814 386 814 515 c 0
 814 900 675 1191 496 1191 c 0
 318 1191 186 901 186 515 c 0
 186 129 326 -162 496 -162 c 0
 556 -162 614 -129 664 -72 c 0
 676 -57 l 1
 753 -153 l 1
 742 -166 l 0
 679 -239 582 -312 496 -312 c 0
 249 -312 63 68 63 515 c 0
 63 962 249 1343 496 1343 c 0
 743 1343 928 962 928 515 c 0
 928 364 906 222 870 98 c 1
 861 71 829 -26 762 -26 c 0
 761 -26 760 -26 759 -26 c 0
 757 -26 l 1
 756 -25 l 0
 737 -20 708 -9 688 16 c 0
 687 16 l 0
 675 34 649 59 636 110 c 1
 613 80 593 65 564 38 c 1
 532 11 491 -11 446 -11 c 1
445 141 m 0
 471 141 499 155 516 170 c 1
 581 229 594 299 605 334 c 1
 605 367 604 433 604 452 c 1
 573 495 543 513 512 513 c 0
 511 513 510 513 509 513 c 0
 454 511 388 415 388 310 c 0
 388 308 388 307 388 305 c 1
 391 201 422 141 445 141 c 0
EndSplineSet
Validated: 1
EndChar

StartChar: uniE002
Encoding: 57346 57346 310
Width: 1120
VWidth: 6
Flags: W
HStem: -310 150<454.529 682.23> -9 153<531.048 649.012> 702 152<540.409 689.08> 1198 153<449.668 648.797>
VStem: 130 123<169.451 874.351> 355 129<193.676 639.402> 723 117<227.653 665.965>
LayerCount: 2
Fore
SplineSet
840 703 m 0
 840 703 840 678 840 666 c 0
 840 231 l 1
 843 159 862 126 894 98 c 0
 911 83 l 1
 816 4 l 1
 805 20 l 1
 792 39 767 63 754 113 c 1
 731 83 711 68 682 41 c 1
 650 14 610 -9 564 -9 c 1
 429 -2 355 233 355 378 c 0
 355 379 355 380 355 381 c 1
 355 393 355 407 355 422 c 0
 355 496 359 600 408 711 c 0
 458 823 543 851 611 854 c 0
 613 854 615 854 617 854 c 0
 660 854 698 835 720 821 c 1
 718 854 717 882 715 903 c 0
 706 1031 695 1198 549 1198 c 0
 392 1198 253 905 253 518 c 0
 253 132 393 -160 563 -160 c 0
 623 -160 681 -126 731 -69 c 0
 743 -54 l 1
 819 -150 l 1
 809 -163 l 0
 746 -236 649 -310 563 -310 c 0
 316 -310 130 71 130 518 c 0
 130 964 302 1351 549 1351 c 0
 814 1351 840 996 840 703 c 0
564 144 m 0
 590 144 617 158 634 173 c 1
 699 232 712 301 723 336 c 1
 723 621 l 1
 691 665 636 702 607 702 c 0
 507 702 484 498 484 375 c 0
 484 370 484 365 484 360 c 1
 487 256 543 144 564 144 c 0
EndSplineSet
Validated: 1
EndChar

StartChar: gravecomb
Encoding: 768 768 311
Width: 1120
VWidth: -43
Flags: W
HStem: 1280 416
VStem: 248 544
LayerCount: 2
Fore
SplineSet
792 1428 m 5
 724 1280 l 5
 581 1327 359 1438 248 1550 c 5
 360 1696 l 5
 475 1588 649 1476 792 1428 c 5
EndSplineSet
Validated: 1
EndChar

StartChar: acutecomb
Encoding: 769 769 312
Width: 1120
VWidth: -43
Flags: W
HStem: 1280 416
VStem: 264 544
LayerCount: 2
Fore
SplineSet
264 1428 m 1
 407 1476 583 1588 698 1696 c 1
 808 1550 l 1
 697 1438 475 1327 332 1280 c 1
 264 1428 l 1
EndSplineSet
Validated: 1
EndChar

StartChar: uni0302
Encoding: 770 770 313
Width: 1120
VWidth: -10
Flags: W
HStem: 1265 405
LayerCount: 2
Fore
SplineSet
561 1670 m 1
 915 1388 l 1
 827 1265 l 1
 561 1468 l 1
 295 1265 l 1
 209 1388 l 1
 561 1670 l 1
EndSplineSet
Validated: 1
EndChar

StartChar: tildecomb
Encoding: 771 771 314
Width: 1120
VWidth: -12
Flags: W
HStem: 1401 153<575.243 757.863> 1431 21G<244.628 283.5> 1522 153<301.244 502.376>
LayerCount: 2
Fore
SplineSet
381 1675 m 0x60
 529 1675 587 1554 677 1554 c 0
 741 1554 764 1598 789 1661 c 1
 925 1585 l 1
 879 1497 823 1401 691 1401 c 0x80
 551 1401 494 1522 393 1522 c 0
 334 1522 294 1485 273 1431 c 1
 151 1517 l 1
 209 1620 271 1675 381 1675 c 0x60
EndSplineSet
Validated: 1
EndChar

StartChar: uni0304
Encoding: 772 772 315
Width: 1120
VWidth: -34
Flags: W
HStem: 1473 152<296 750>
VStem: 296 454<1474 1625>
LayerCount: 2
Fore
SplineSet
750 1625 m 1
 750 1473 l 1
 733 1473 l 0
 675 1471 605 1471 531 1471 c 0
 457 1471 382 1471 314 1473 c 0
 296 1474 l 1
 296 1629 l 1
 315 1627 l 0
 380 1625 477 1625 569 1625 c 0
 630 1625 688 1625 733 1625 c 0
 750 1625 l 1
EndSplineSet
Validated: 1
EndChar

StartChar: uni0305
Encoding: 773 773 316
Width: 1120
VWidth: -34
Flags: W
HStem: 1473 155<127 901>
LayerCount: 2
Fore
SplineSet
901 1625 m 1
 901 1473 l 1
 127 1473 l 1
 127 1628 l 1
 901 1625 l 1
EndSplineSet
Validated: 1
EndChar

StartChar: uni0306
Encoding: 774 774 317
Width: 1120
VWidth: -12
Flags: W
HStem: 1357 153<408.698 688.547>
VStem: 194 156<1571.28 1632.76> 746 166<1566.15 1623.59>
LayerCount: 2
Fore
SplineSet
550 1510 m 0
 658 1510 740 1573 746 1651 c 1
 912 1621 l 5
 888 1444 715 1357 550 1357 c 1
 424 1357 242 1405 194 1630 c 1
 350 1660 l 1
 377 1543 457 1510 550 1510 c 0
EndSplineSet
Validated: 1
EndChar

StartChar: uni0308
Encoding: 776 776 318
Width: 1120
VWidth: -28
Flags: W
HStem: 1413 225<217 452 623 858>
VStem: 217 235<1416 1638> 623 235<1413 1635>
LayerCount: 2
Fore
SplineSet
623 1638 m 1
 858 1635 l 1
 858 1410 l 1
 623 1413 l 1
 623 1638 l 1
217 1641 m 1
 452 1638 l 1
 452 1413 l 1
 217 1416 l 1
 217 1641 l 1
EndSplineSet
Validated: 1
EndChar

StartChar: uni0307
Encoding: 775 775 319
Width: 1120
VWidth: -28
Flags: W
HStem: 1426 225<374 610>
VStem: 374 236<1426 1648>
LayerCount: 2
Fore
SplineSet
374 1651 m 5
 610 1648 l 5
 610 1423 l 5
 374 1426 l 5
 374 1651 l 5
EndSplineSet
Validated: 1
EndChar

StartChar: uni030A
Encoding: 778 778 320
Width: 1120
VWidth: -8
Flags: W
HStem: 1286 116<477.049 642.948> 1543 125<477.396 644.026>
VStem: 332 138<1413.79 1533.01> 651 139<1413.61 1532.57>
LayerCount: 2
Fore
SplineSet
560 1543 m 4
 505 1543 470 1508 470 1473 c 4
 470 1438 506 1402 560 1402 c 4
 614 1402 651 1438 651 1473 c 4
 651 1508 615 1543 560 1543 c 4
332 1473 m 4
 332 1584 438 1668 561 1668 c 4
 684 1668 790 1584 790 1473 c 4
 790 1363 694 1286 561 1286 c 4
 434 1286 332 1364 332 1473 c 4
EndSplineSet
Validated: 1
EndChar

StartChar: uni0237
Encoding: 567 567 321
Width: 1120
VWidth: 0
Flags: W
HStem: -387 156<366.311 631.621> 864 155<414.191 666>
VStem: 667 156<-196.669 864>
LayerCount: 2
Fore
SplineSet
667 -114 m 1
 666 864 l 1
 660 864 656 864 650 864 c 0
 552 864 500 856 410 835 c 1
 382 977 l 1
 494 1003 602 1019 706 1019 c 2
 823 1019 l 1
 823 -118 l 0
 823 -263 762 -387 524 -387 c 3
 401 -387 257 -365 131 -160 c 1
 257 -62 l 1
 356 -224 440 -231 503 -231 c 0
 509 -231 515 -231 520 -231 c 3
 632 -231 665 -149 667 -114 c 1
EndSplineSet
Validated: 1
EndChar

StartChar: uni030B
Encoding: 779 779 322
Width: 1120
VWidth: -43
Flags: W
HStem: 1158 517
LayerCount: 2
Fore
SplineSet
485 1273 m 5
 602 1368 728 1534 798 1675 c 5
 952 1575 l 5
 887 1431 718 1252 600 1158 c 5
 485 1273 l 5
149 1280 m 5
 266 1375 392 1541 462 1682 c 5
 616 1583 l 5
 551 1439 381 1259 263 1165 c 5
 149 1280 l 5
EndSplineSet
Validated: 1
EndChar

StartChar: uni030C
Encoding: 780 780 323
Width: 1120
VWidth: -10
Flags: W
HStem: 1218 405
LayerCount: 2
Fore
SplineSet
561 1218 m 1
 209 1500 l 1
 295 1623 l 1
 561 1420 l 1
 827 1623 l 1
 915 1500 l 1
 561 1218 l 1
EndSplineSet
Validated: 1
EndChar

StartChar: uni030F
Encoding: 783 783 324
Width: 1120
VWidth: -43
Flags: W
HStem: 1162 563
LayerCount: 2
Fore
SplineSet
943 1295 m 5
 818 1191 l 5
 710 1296 559 1493 508 1642 c 5
 672 1725 l 5
 728 1578 836 1401 943 1295 c 5
617 1266 m 5
 492 1162 l 5
 384 1267 233 1464 182 1613 c 5
 346 1696 l 5
 402 1549 510 1372 617 1266 c 5
EndSplineSet
Validated: 1
EndChar

StartChar: hookabovecomb
Encoding: 777 777 325
Width: 1120
VWidth: 12
Flags: W
HStem: 953 175<521.294 664.524> 957 188<520 595.783> 1242 125<475.445 680.66>
VStem: 520 146<957 1034.46> 684 136<1136.94 1235.22>
LayerCount: 2
Fore
SplineSet
666 953 m 5xb8
 520 957 l 5
 520 1145 l 5x78
 548 1135 550 1128 598 1128 c 4
 646 1128 684 1153 684 1182 c 6
 684 1184 l 5
 681 1222 640 1242 604 1242 c 4
 553 1242 513 1218 480 1200 c 5
 442 1306 l 5
 498 1342 570 1367 636 1367 c 4
 720 1367 820 1300 820 1199 c 4
 820 1095 762 1033 665 1028 c 5
 665 1025 665 961 666 953 c 5xb8
EndSplineSet
Validated: 1
EndChar

StartChar: uni030D
Encoding: 781 781 326
Width: 1120
VWidth: -34
Flags: W
HStem: 1280 348<463 622>
VStem: 463 159<1280 1628>
LayerCount: 2
Fore
SplineSet
463 1628 m 1
 622 1628 l 1
 622 1280 l 1
 463 1280 l 1
 463 1628 l 1
EndSplineSet
Validated: 1
EndChar

StartChar: uni0191
Encoding: 401 401 328
Width: 1120
VWidth: 0
Flags: W
HStem: -267 180<47 159.74> 728 164<394 766.161> 1248 167<394 968.737>
VStem: 230 164<-11.6147 726 889 1247>
LayerCount: 2
Fore
SplineSet
39 -87 m 1
 143 -87 231 -1 231 107 c 1
 230 1416 l 1
 862 1415 l 1
 943 1412 993 1396 1029 1377 c 1
 970 1218 l 1
 943 1233 920 1247 817 1248 c 1
 743 1248 l 2
 634 1248 586 1248 394 1247 c 1
 394 889 l 1
 520 889 503 892 631 892 c 0
 723 892 785 876 786 876 c 2
 805 871 l 1
 768 713 l 1
 729 723 675 728 628 728 c 0
 584 728 555 728 530 728 c 0
 492 728 462 728 394 726 c 1
 394 594 399 200 399 99 c 0
 399 -110 241 -258 47 -267 c 1
 39 -87 l 1
EndSplineSet
Validated: 1
EndChar

StartChar: florin
Encoding: 402 402 329
Width: 1120
VWidth: -2
Flags: W
HStem: -313 147<139 274.166> 859 153<224 366 523 854.016> 1266 152<559.822 867.743>
VStem: 366 157<-67.5453 859 1013 1224.24>
LayerCount: 2
Fore
SplineSet
370 152 m 0
 370 177 368 712 366 859 c 5
 224 859 l 5
 224 1012 l 5
 368 1012 l 5
 368 1028 366 1045 366 1064 c 0
 366 1207 395 1418 672 1418 c 0
 833 1418 967 1392 1051 1225 c 1
 925 1148 l 1
 875 1246 812 1266 680 1266 c 0
 533 1266 523 1168 523 1060 c 2
 523 1013 l 5
 591 1013 650 1012 723 1012 c 5
 827 1009 854 1001 884 992 c 5
 855 846 l 5
 834 853 813 859 757 859 c 6
 523 859 l 5
 524 705 526 156 526 152 c 0
 526 -105 458 -313 128 -313 c 0
 139 -166 l 0
 312 -166 370 -24 370 152 c 0
EndSplineSet
Validated: 1
EndChar

StartChar: alpha
Encoding: 945 945 330
Width: 1120
VWidth: 4
Flags: W
HStem: -7 157<336.047 523.007> 865 153<328.334 524.274>
VStem: 71 159<280 745.984>
LayerCount: 2
Fore
SplineSet
230 527 m 0
 230 157 419 150 437 150 c 2
 450 150 l 2
 535 150 599 298 663 494 c 1
 589 745 541 865 424 865 c 0
 346 865 230 766 230 527 c 0
823 493 m 1
 847 416 873 329 905 232 c 0
 924 174 948 134 1014 108 c 1
 946 -32 l 1
 818 0 774 120 756 180 c 0
 749 203 742 226 735 248 c 1
 670 100 585 -7 454 -7 c 0
 166 -7 71 259 71 527 c 0
 71 894 260 1018 435 1018 c 0
 600 1018 669 940 741 743 c 1
 772 842 804 941 840 1034 c 1
 986 964 l 1
 921 838 875 661 823 493 c 1
EndSplineSet
Validated: 1
EndChar

StartChar: beta
Encoding: 946 946 331
Width: 1120
VWidth: 0
Flags: W
HStem: -0 153<385.659 715.182> 669 153<293 546.391> 1176 152<288.318 547.771>
VStem: 80 153<-284.195 112 307.561 1117.88> 601 153<877.064 1123.57> 790 154<232.652 553.369>
LayerCount: 2
Fore
SplineSet
599 153 m 0
 721 153 790 261 790 395 c 0
 790 656 581 669 293 669 c 1
 293 822 l 1
 458 822 601 822 601 1005 c 0
 601 1118 527 1176 390 1176 c 1
 294 1175 233 1083 233 993 c 0
 233 893 236 609 237 367 c 1
 334 192 430 153 599 153 c 0
238 112 m 1
 238 83 238 59 238 39 c 0
 238 -85 235 -203 227 -300 c 1
 76 -283 l 1
 86 -183 89 -74 89 37 c 0
 89 224 80 829 80 1003 c 0
 80 1159 191 1328 390 1328 c 0
 593 1328 754 1233 754 1011 c 0
 754 909 726 832 670 779 c 1
 847 730 944 598 944 381 c 0
 944 171 851 2 599 0 c 0
 597 0 594 0 592 -0 c 0
 438 0 328 39 238 112 c 1
EndSplineSet
Validated: 1
EndChar

StartChar: gamma
Encoding: 947 947 332
Width: 1120
VWidth: 14
Flags: W
HStem: 889 152<20 95.2925>
VStem: 491 159<-376 115.021>
LayerCount: 2
Fore
SplineSet
491 -376 m 1
 491 -269 488 -10 470 68 c 0
 413 315 274 627 180 784 c 0
 145 843 108 873 96 880 c 0
 81 889 60 889 35 889 c 0
 30 889 25 888 20 888 c 1
 20 1041 l 1
 53 1041 92 1040 120 1036 c 0
 183 1026 233 976 293 883 c 0
 390 731 492 488 562 287 c 1
 636 504 810 1060 810 1060 c 1
 964 1004 l 1
 964 1004 739 388 643 16 c 1
 649 -66 650 -174 650 -290 c 0
 650 -319 650 -349 650 -378 c 1
 491 -376 l 1
EndSplineSet
Validated: 1
EndChar

StartChar: delta
Encoding: 948 948 333
Width: 1120
VWidth: 6
Flags: W
HStem: 1 155<343.159 630.662> 1227 152<312.954 750.382>
VStem: 72 158<272.944 645.668> 119 159<1053.25 1188.2> 745 157<273.541 630.398>
LayerCount: 2
Fore
SplineSet
902 504 m 0xd8
 902 244 806 1 484 1 c 2
 482 1 l 1
 210 2 72 184 72 464 c 0xe8
 72 655 133 804 317 879 c 1
 272 901 232 921 205 942 c 0
 159 979 119 1034 119 1110 c 0
 119 1129 122 1149 127 1171 c 0
 167 1330 307 1379 472 1379 c 0
 596 1379 735 1351 856 1322 c 1
 818 1164 l 1
 685 1201 562 1227 466 1227 c 0
 377 1227 312 1204 285 1147 c 0
 280 1136 278 1126 278 1117 c 0
 278 1089 299 1069 326 1050 c 1
 568 894 902 838 902 504 c 0xd8
506 786 m 1
 341 754 230 664 230 469 c 0
 230 274 317 156 484 156 c 1
 560 157 604 173 654 215 c 1
 723 279 745 365 745 506 c 0
 745 631 632 717 506 786 c 1
EndSplineSet
Validated: 1
EndChar

StartChar: epsilon
Encoding: 949 949 334
Width: 1120
VWidth: 0
Flags: W
HStem: -4 154<281.879 739.193> 510 151<329.985 636> 871 153<306.665 767.822>
VStem: 64 157<206.569 417.619> 123 157<710.3 840.612>
LayerCount: 2
Fore
SplineSet
929 131 m 1xf0
 858 78 715 -4 492 -4 c 0
 310 -4 229 31 154 90 c 0
 77 151 64 236 64 301 c 0xf0
 64 431 129 548 281 584 c 1
 171 608 123 691 123 789 c 0
 123 935 296 1024 501 1024 c 2
 514 1024 l 2
 747 1024 819 972 837 960 c 1
 769 830 l 1
 745 845 648 871 503 871 c 0
 388 871 280 846 280 783 c 0xe8
 280 662 502 661 613 661 c 2
 618 661 l 1
 636 661 l 1
 636 509 l 1
 610 509 584 510 558 510 c 0
 495 510 433 506 359 478 c 0
 248 437 221 366 221 299 c 0
 221 206 312 150 493 150 c 0
 661 150 792 206 843 252 c 1
 929 131 l 1xf0
EndSplineSet
Validated: 1
EndChar

StartChar: zeta
Encoding: 950 950 335
Width: 1120
VWidth: 0
Flags: W
HStem: -306 138<598.507 725.68> 0 150<343.921 746.161> 1191 161<173.899 676.852> 1408 20G<120.906 157 804.5 878.228>
VStem: 82 159<264.24 659.875> 755 156<-130.969 -9.887>
LayerCount: 2
Fore
SplineSet
137 1428 m 1
 177 1386 223 1352 304 1352 c 0
 469 1352 739 1358 870 1376 c 1
 935 1218 l 1
 794 1020 241 871 241 480 c 0
 241 255 331 150 481 150 c 0
 484 150 601 151 604 151 c 0
 779 151 911 91 911 -66 c 0
 911 -274 691 -296 601 -306 c 1
 577 -168 l 1
 661 -155 755 -139 755 -77 c 0
 755 -3 704 0 616 0 c 0
 609 0 603 0 596 0 c 0
 592 0 437 0 433 0 c 0
 232 0 82 177 82 504 c 0
 82 861 441 1027 685 1200 c 1
 555 1193 451 1191 324 1191 c 0
 209 1191 111 1218 34 1300 c 1
 137 1428 l 1
EndSplineSet
Validated: 1
EndChar

StartChar: eta
Encoding: 951 951 336
Width: 1120
VWidth: 6
Flags: W
HStem: 872 150<437.027 707.196>
VStem: 113 158<0 758.239> 734 159<-327.685 841.083>
LayerCount: 2
Fore
SplineSet
271 900 m 1
 379 979 494 1022 604 1022 c 0
 725 1022 893 945 893 796 c 2
 893 -79 l 2
 893 -145 906 -282 924 -330 c 1
 766 -362 l 1
 748 -283 734 -215 734 -86 c 2
 734 765 l 2
 734 839 649 872 582 872 c 0
 519 872 403 820 272 733 c 1
 271 0 l 1
 113 -1 l 1
 113 705 l 2
 113 883 105 909 81 1003 c 1
 241 1040 l 1
 251 1016 264 949 271 900 c 1
EndSplineSet
Validated: 1
EndChar

StartChar: theta
Encoding: 952 952 337
Width: 1120
VWidth: 0
Flags: W
HStem: -16 153<355.938 639.042> 595 158<213.538 810> 1170 153<391.707 649.237>
VStem: 41 160<336.789 578.122 732 893.719> 812 160<363.79 590.421 745 957.457>
LayerCount: 2
Fore
SplineSet
288 247 m 0
 337 182 402 137 510 137 c 0
 626 137 697 224 742 307 c 1
 777 363 805 484 812 585 c 1
 768 592 712 595 646 595 c 0
 524 595 369 585 201 576 c 1
 206 470 237 314 288 247 c 0
522 1323 m 0
 632 1323 972 1233 972 632 c 2
 972 621 l 2
 972 457 926 324 878 231 c 0
 803 87 675 -16 510 -16 c 0
 388 -16 263 32 182 132 c 0
 92 242 41 410 41 590 c 0
 41 867 130 1059 200 1154 c 0
 266 1244 380 1323 522 1323 c 0
810 745 m 1
 802 839 781 939 743 1014 c 0
 685 1128 599 1170 527 1170 c 0
 449 1170 388 1138 330 1062 c 0
 276 992 227 879 208 732 c 1
 427 747 571 753 667 753 c 0
 735 753 780 750 810 745 c 1
EndSplineSet
Validated: 1
EndChar

StartChar: iota
Encoding: 953 953 338
Width: 1120
VWidth: 0
Flags: W
HStem: -18 142<555.188 806.718> 857 156<124.467 378>
VStem: 378 160<141.544 857>
LayerCount: 2
Fore
SplineSet
417 1013 m 2
 537 1013 l 1
 537 740 538 259 538 259 c 2
 538 141 583 124 675 124 c 0
 768 124 860 185 910 299 c 1
 1024 221 l 1
 954 71 860 -18 676 -18 c 0
 591 -18 515 -4 471 20 c 0
 386 67 378 196 378 255 c 2
 378 857 l 1
 329 857 215 851 120 829 c 1
 91 971 l 1
 203 997 313 1013 417 1013 c 2
EndSplineSet
Validated: 1
EndChar

StartChar: kappa
Encoding: 954 954 339
Width: 1120
VWidth: 0
Flags: W
HStem: 1000 20G<116 272>
VStem: 116 156<0 375.744 550 1020>
LayerCount: 2
Fore
SplineSet
558 605 m 1
 668 478 933 185 984 50 c 1
 850 -26 l 1
 804 83 565 364 446 501 c 1
 446 501 327 399 272 324 c 1
 272 0 l 1
 116 0 l 1
 116 1020 l 1
 272 1020 l 1
 272 550 l 1
 365 642 470 725 577 819 c 1
 784 997 862 1030 885 1049 c 1
 982 920 l 1
 789 804 624 673 558 605 c 1
EndSplineSet
Validated: 1
EndChar

StartChar: lambda
Encoding: 955 955 340
Width: 1120
VWidth: 14
Flags: W
HStem: -17 21G<142.667 265> 0 156<860.931 967.39> 1234 155<241.02 372.064>
VStem: 66 156<1122 1219.41>
LayerCount: 2
Fore
SplineSet
176 -17 m 1xb0
 36 67 l 1
 133 171 346 724 465 975 c 1
 427 1081 384 1234 310 1234 c 0
 258 1234 222 1186 222 1122 c 1
 66 1122 l 1
 66 1124 l 0
 66 1252 147 1389 306 1389 c 0
 455 1389 527 1280 568 1184 c 0
 676 931 768 596 808 408 c 0
 822 342 857 156 891 156 c 0
 917 156 937 197 937 197 c 1
 1038 87 l 1
 979 22 962 0 876 0 c 0x70
 710 0 680 268 662 348 c 0
 626 507 601 626 557 756 c 1
 408 480 354 273 176 -17 c 1xb0
EndSplineSet
Validated: 1
EndChar

StartChar: mu
Encoding: 956 956 341
Width: 1120
VWidth: 6
Flags: W
HStem: -10 21G<877.5 920.017> -10 21G<877.5 920.017> 2 154<320.683 585.04> 1001 20G<132.481 262>
VStem: 109 157<-400 22 181.338 701.424> 739 158<276.783 1001>
LayerCount: 2
Fore
SplineSet
906 -10 m 1x9c
 849 31 795 72 773 158 c 1
 689 72 592 5 442 2 c 1
 433 2 l 2
 385 2 323 2 269 22 c 1
 266 -400 l 1
 109 -400 l 1
 114 214 l 1
 111 482 118 911 91 994 c 1
 251 1021 l 1
 273 929 268 616 270 250 c 1
 276 216 298 190 320 174 c 0
 334 164 385 156 426 156 c 1x3c
 493 159 534 167 585 198 c 0
 632 226 701 256 739 344 c 1
 740 1001 l 1
 898 1001 l 1
 897 239 l 1
 899 187 948 139 988 107 c 1
 906 -10 l 1x9c
EndSplineSet
Validated: 1
EndChar

StartChar: nu
Encoding: 957 957 342
Width: 1120
VWidth: 6
Flags: W
HStem: -3 21G<367 487>
VStem: 790 156<367.045 977.938>
LayerCount: 2
Fore
SplineSet
153 1048 m 1
 223 973 250 935 276 860 c 0
 321 734 490 256 501 152 c 1
 789 251 790 483 790 733 c 2
 790 738 l 2
 790 830 768 932 736 1002 c 1
 896 1046 l 1
 932 962 946 820 946 754 c 0
 946 750 946 746 946 742 c 0
 946 724 946 706 946 688 c 0
 946 504 939 313 771 138 c 0
 708 72 607 0 367 -3 c 1
 367 137 166 685 104 839 c 0
 96 860 50 927 24 952 c 1
 153 1048 l 1
EndSplineSet
Validated: 1
EndChar

StartChar: xi
Encoding: 958 958 343
Width: 1120
VWidth: 0
Flags: W
HStem: -320 153<595.126 729.334> 0 150<285.13 746.161> 695 154<586.4 742> 1191 161<174.294 529.462> 1408 20G<122.906 159 686.5 760.354>
VStem: 80 159<195.393 456.211> 263 174<894.745 1043.63> 755 156<-131.01 -9.887>
LayerCount: 2
Fore
SplineSet
139 1428 m 1
 179 1386 225 1352 306 1352 c 0
 471 1352 621 1358 752 1376 c 1
 818 1218 l 1
 737 1144 437 1096 437 964 c 0
 437 871 592 849 742 849 c 1
 742 695 l 1
 479 629 239 547 239 301 c 0
 239 181 331 150 481 150 c 0
 484 150 601 151 604 151 c 0
 779 151 911 91 911 -66 c 0
 911 -274 687 -310 597 -320 c 1
 577 -167 l 1
 661 -154 755 -139 755 -77 c 0
 755 -3 704 0 616 0 c 0
 609 0 603 0 596 0 c 0
 592 0 437 0 433 0 c 0
 232 0 80 58 80 325 c 0
 80 577 300 721 416 757 c 1
 374 768 263 793 263 967 c 0
 263 1122 402 1162 534 1212 c 1
 474 1203 422 1191 326 1191 c 0
 211 1191 113 1218 36 1300 c 1
 139 1428 l 1
EndSplineSet
Validated: 1
EndChar

StartChar: omicron
Encoding: 959 959 344
Width: 1120
VWidth: 6
Flags: W
HStem: 1 155<343.159 630.662> 878 154<352.497 639.881>
VStem: 72 158<272.944 736.885> 743 159<279.587 758.636>
LayerCount: 2
Fore
SplineSet
482 1 m 1
 210 2 72 184 72 464 c 0
 72 756 174 1032 466 1032 c 0
 663 1032 773 963 843 831 c 0
 884 752 902 639 902 543 c 0
 902 258 806 1 484 1 c 2
 482 1 l 1
654 215 m 1
 719 276 743 382 743 530 c 0
 743 536 743 542 743 548 c 0
 741 732 677 878 500 878 c 0
 292 878 230 713 230 469 c 0
 230 274 317 156 484 156 c 1
 560 157 604 173 654 215 c 1
EndSplineSet
Validated: 1
EndChar

StartChar: pi
Encoding: 960 960 345
Width: 1120
VWidth: 6
Flags: W
HStem: -12 21G<166 335> 0 148<811.767 938.911> 861 159<356 630.819 785 867.216>
VStem: 196 160<11.189 853> 652 158<150.732 858.861>
LayerCount: 2
Fore
SplineSet
804 1020 m 0xb8
 845 1020 860 1038 884 1088 c 1
 1034 1014 l 1
 1002 940 948 861 816 861 c 2
 785 861 l 1
 803 816 810 758 810 626 c 2
 810 217 l 2
 810 166 828 148 850 148 c 0
 875 148 904 169 922 188 c 1
 992 70 l 1
 955 42 899 0 842 0 c 0x78
 765 0 652 49 652 204 c 2
 652 622 l 2
 652 794 633 815 610 861 c 1
 525 861 441 860 356 860 c 1
 356 215 l 2
 356 142 342 45 328 -12 c 1
 166 8 l 1
 184 76 196 146 196 219 c 2
 196 853 l 1
 150 844 109 827 76 800 c 1
 12 956 l 1
 62 988 160 1019 260 1019 c 2
 260 1019 592 1020 804 1020 c 0xb8
EndSplineSet
Validated: 1
EndChar

StartChar: rho
Encoding: 961 961 346
Width: 1120
VWidth: -2
Flags: W
HStem: 0 156<460.865 707.372> 878 154<415.643 706.881>
VStem: 138 158<-358.499 168 351.625 747.702> 810 159<279.335 758.636>
LayerCount: 2
Fore
SplineSet
139 562 m 2
 139 854 295 1032 533 1032 c 0
 730 1032 840 963 910 831 c 0
 951 752 969 639 969 543 c 0
 969 258 896 0 574 0 c 2
 572 0 l 2
 435 0 345 80 296 168 c 1
 296 -75 l 2
 296 -206 328 -335 353 -396 c 1
 198 -438 l 1
 170 -376 138 -209 138 -70 c 2
 139 562 l 2
810 530 m 0
 810 536 810 542 810 548 c 0
 808 732 744 878 567 878 c 0
 424 878 297 793 297 549 c 0
 297 328 441 156 586 156 c 1
 763 158 810 329 810 530 c 0
EndSplineSet
Validated: 1
EndChar

StartChar: sigma1
Encoding: 962 962 347
Width: 1120
VWidth: 4
Flags: W
HStem: -351 152<602 729.011> 865 153<353.88 699.499>
VStem: 71 159<291.76 736.59> 760 156<-166.09 -48.8317>
LayerCount: 2
Fore
SplineSet
230 527 m 0
 230 150 442 155 508 150 c 0
 770 129 916 79 916 -95 c 0
 916 -191 866 -343 602 -351 c 1
 580 -199 l 1
 694 -185 760 -168 760 -99 c 0
 760 -33 597 -16 512 -7 c 0
 204 24 71 187 71 527 c 0
 71 894 249 1018 564 1018 c 0
 659 1018 733 994 793 948 c 0
 854 901 885 841 907 789 c 1
 753 729 l 1
 742 770 713 865 553 865 c 0
 332 865 230 766 230 527 c 0
EndSplineSet
Validated: 1
EndChar

StartChar: sigma
Encoding: 963 963 348
Width: 1120
VWidth: 6
Flags: W
HStem: 1 155<343.159 601.698> 874 149<372.001 658.295 796 1003.86>
VStem: 72 158<272.944 715.201> 710 159<291.004 816.704>
LayerCount: 2
Fore
SplineSet
625 874 m 1
 617 874 610 874 603 874 c 0
 581 874 566 874 562 874 c 0
 306 874 230 713 230 469 c 0
 230 274 317 156 484 156 c 0
 655 156 710 342 710 530 c 0
 710 536 710 542 710 548 c 0
 708 674 694 807 625 874 c 1
796 872 m 1
 804 864 812 853 819 840 c 0
 860 761 869 639 869 543 c 0
 869 258 761 1 484 1 c 2
 482 1 l 1
 210 2 72 184 72 464 c 0
 72 756 180 1019 533 1022 c 0
 550 1022 609 1023 681 1023 c 0
 808 1023 975 1021 1026 1012 c 1
 1006 859 l 1
 961 866 878 870 796 872 c 1
EndSplineSet
Validated: 1
EndChar

StartChar: tau
Encoding: 964 964 349
Width: 1120
VWidth: 0
Flags: W
HStem: -3 155<578.618 797.23> 875 145<127.204 400 561 986>
VStem: 390 159<185.361 875>
LayerCount: 2
Fore
SplineSet
560 1020 m 1
 682 1020 l 2
 730 1020 779 1020 821 1020 c 0
 968 1020 l 1
 986 1020 l 1
 986 873 l 1
 682 875 l 1
 561 875 l 1
 552 671 553 540 549 440 c 1
 549 400 l 2
 549 204 561 152 705 152 c 0
 775 152 822 210 850 286 c 1
 982 228 l 1
 962 172 904 -3 707 -3 c 0
 444 -3 390 109 390 397 c 2
 390 440 l 1
 394 544 394 683 400 876 c 1
 380 875 266 874 266 874 c 2
 196 873 138 839 88 807 c 1
 20 933 l 1
 70 977 165 1019 261 1019 c 2
 560 1020 l 1
EndSplineSet
Validated: 1
EndChar

StartChar: upsilon
Encoding: 965 965 350
Width: 1120
VWidth: 6
Flags: W
HStem: -4 156<334.513 604.023> 1012 20G<132.481 259.5>
VStem: 114 156<217.662 1001.91> 790 156<372.78 977.938>
LayerCount: 2
Fore
SplineSet
114 366 m 0
 114 426 114 489 114 549 c 0
 114 753 112 941 91 1005 c 1
 251 1032 l 1
 268 960 270 778 270 573 c 0
 270 517 270 459 270 402 c 0
 270 223 334 152 467 152 c 0
 525 152 636 193 692 273 c 0
 779 398 790 500 790 738 c 0
 790 830 768 932 736 1002 c 1
 896 1046 l 1
 932 962 946 820 946 754 c 0
 946 750 946 746 946 742 c 0
 946 730 946 717 946 705 c 0
 946 514 941 303 768 123 c 0
 705 57 585 -4 422 -4 c 0
 229 -4 114 167 114 366 c 0
EndSplineSet
Validated: 1
EndChar

StartChar: phi
Encoding: 966 966 351
Width: 1120
VWidth: 0
Flags: W
HStem: -11 156<579 667.183> 894 146<610.215 773.587>
VStem: 41 157<320.826 846.774> 420 158<-396 -2.52826 148 863.528> 816 156<339.325 855.219>
LayerCount: 2
Fore
SplineSet
578 145 m 1
 657 165 712 218 748 284 c 1
 788 348 815 517 816 624 c 1
 816 643 l 2
 816 812 788 894 677 894 c 2
 676 894 l 2
 649 894 576 893 576 644 c 0
 576 502 577 318 578 145 c 1
579 -11 m 1
 581 -215 583 -377 584 -398 c 1
 422 -396 l 1
 420 -375 420 -211 420 -8 c 1
 328 9 240 52 179 127 c 0
 89 237 41 389 41 569 c 0
 41 797 95 963 188 1044 c 1
 314 954 l 1
 233 870 198 765 198 573 c 0
 198 469 228 315 284 242 c 0
 318 197 361 164 420 148 c 1
 420 640 l 2
 420 955 531 1040 675 1040 c 0
 814 1040 972 1010 972 632 c 2
 972 621 l 2
 972 457 928 304 880 211 c 0
 816 88 711 9 579 -11 c 1
EndSplineSet
Validated: 1
EndChar

StartChar: chi
Encoding: 967 967 352
Width: 1120
VWidth: 14
Flags: W
HStem: -398 156<858.01 979.917> 888 153<20 162.48>
LayerCount: 2
Fore
SplineSet
424 289 m 1
 371 465 323 631 211 792 c 0
 153 876 98 888 20 888 c 1
 20 1041 l 1
 167 1041 235 1032 331 913 c 0
 435 784 541 466 541 466 c 1
 634 667 810 1060 810 1060 c 1
 964 1004 l 1
 964 1004 796 606 635 273 c 1
 678 100 839 -242 914 -242 c 0
 945 -242 943 -223 951 -211 c 1
 1043 -270 l 1
 1037 -308 1013 -398 911 -398 c 0
 693 -398 559 -6 517 114 c 1
 286 -410 l 1
 109 -338 l 1
 424 289 l 1
EndSplineSet
Validated: 1
EndChar

StartChar: psi
Encoding: 968 968 353
Width: 1120
VWidth: 6
Flags: W
HStem: -4 158<308.006 427> 1012 8G<90.4815 217.5 433 593>
VStem: 72 156<233.567 1001.91> 428 162<-392.108 -4 168 1020> 842 156<372.78 977.938>
LayerCount: 2
Fore
SplineSet
72 366 m 0
 72 426 72 489 72 549 c 0
 72 753 70 941 49 1005 c 1
 209 1032 l 1
 226 960 228 778 228 573 c 0
 228 517 228 459 228 402 c 0
 228 240 304 166 428 154 c 1
 429 438 433 693 433 927 c 2
 433 1020 l 1
 593 1020 l 1
 593 875 l 2
 593 639 591 431 590 168 c 1
 656 187 708 222 744 273 c 0
 831 398 842 500 842 738 c 0
 842 830 820 932 788 1002 c 1
 948 1046 l 1
 984 962 998 820 998 754 c 0
 998 750 998 746 998 742 c 0
 998 730 998 717 998 705 c 0
 998 514 993 303 820 123 c 0
 774 75 715 29 590 8 c 1
 590 -124 l 2
 590 -239 589 -295 584 -396 c 1
 423 -395 l 1
 427 -333 428 -290 428 -235 c 0
 428 -188 427 -132 427 -46 c 0
 427 -32 427 -18 427 -4 c 1
 425 -4 424 -4 422 -4 c 0
 202 -4 72 167 72 366 c 0
EndSplineSet
Validated: 1
EndChar

StartChar: omega
Encoding: 969 969 354
Width: 1120
VWidth: 6
Flags: W
HStem: -10 155<247.366 396.525 640.099 796.103> 1013 20G<834.939 935>
VStem: 35 162<200.065 835.613> 436 155<195.231 684> 842 157<189.339 805.891>
LayerCount: 2
Fore
SplineSet
434 684 m 1
 593 703 l 1
 591 618 592 524 591 431 c 0
 592 423 592 414 592 405 c 0
 594 224 644 144 725 144 c 0
 814 144 842 270 842 420 c 0
 842 633 814 835 729 967 c 1
 881 1033 l 1
 989 852 999 582 999 441 c 0
 999 218 946 -12 701 -12 c 0
 626 -12 559 33 512 104 c 1
 462 34 393 -10 317 -10 c 0
 91 -10 35 220 35 444 c 0
 35 612 41 858 151 1041 c 1
 303 975 l 1
 222 848 197 675 197 468 c 0
 197 299 230 145 310 145 c 0
 380 145 425 196 438 321 c 1
 437 337 436 352 436 368 c 0
 435 474 436 584 434 684 c 1
EndSplineSet
Validated: 1
EndChar

StartChar: Alpha
Encoding: 913 913 357
Width: 1120
VWidth: 0
Flags: W
HStem: 326 163<366.805 697>
LayerCount: 2
Fore
SplineSet
481 1298 m 1
 593 1298 l 1
 1017 11 l 1
 853 -19 l 1
 754 326 l 1
 613 323 418 324 307 297 c 1
 205 -24 l 1
 43 0 l 1
 481 1298 l 1
697 490 m 1
 537 982 l 1
 364 470 l 1
 424 483 474 485 557 489 c 1
 697 490 l 1
EndSplineSet
Validated: 1
EndChar

StartChar: Beta
Encoding: 914 914 358
Width: 1120
VWidth: 0
Flags: W
HStem: 3 150<271 705.455> 647 156<277 549.155> 1150 149<275 550.519>
VStem: 117 158<153 647 803 1143.26> 611 157<858.454 1093.57> 803 159<255.577 547.611>
LayerCount: 2
Fore
SplineSet
728 578 m 0
 655 639 594 649 499 649 c 0
 450 649 392 647 319 647 c 2
 275 647 l 1
 273 410 272 229 271 153 c 1
 379 153 419 146 494 146 c 0
 534 146 569 148 604 153 c 0
 710 166 803 265 803 409 c 0
 803 488 780 535 728 578 c 0
611 992 m 2
 611 1105 514 1150 377 1150 c 2
 360 1150 l 2
 321 1150 305 1148 275 1145 c 1
 278 1108 279 1064 279 1017 c 0
 279 950 277 877 277 803 c 1
 423 806 473 799 563 854 c 0
 590 870 611 925 611 984 c 2
 611 992 l 2
117 823 m 0
 117 996 114 1158 105 1285 c 1
 186 1291 235 1299 348 1299 c 0
 354 1299 360 1299 366 1299 c 0
 572 1299 768 1218 768 1002 c 0
 768 906 743 823 682 767 c 1
 837 715 962 583 962 393 c 0
 962 168 813 23 646 3 c 0
 607 -2 566 -5 527 -5 c 0
 442 -5 352 3 244 3 c 2
 108 3 l 1
 108 197 117 407 117 823 c 0
EndSplineSet
Validated: 1
EndChar

StartChar: Gamma
Encoding: 915 915 359
Width: 1120
VWidth: 0
Flags: W
HStem: 1147 154<292 931.956>
VStem: 131 161<0 1147>
LayerCount: 2
Fore
SplineSet
131 1301 m 1
 815 1301 l 2
 890 1301 928 1287 975 1271 c 1
 934 1125 l 1
 890 1140 872 1144 813 1147 c 1
 292 1147 l 1
 292 0 l 1
 131 0 l 1
 131 1301 l 1
EndSplineSet
Validated: 1
EndChar

StartChar: Epsilon
Encoding: 917 917 360
Width: 1120
VWidth: 0
Flags: W
HStem: -3 150<277 918.956> 666 150<280 718> 1144 153<280 909>
VStem: 122 158<147 666 816 1144>
LayerCount: 2
Fore
SplineSet
122 1293 m 1
 178 1297 248 1297 326 1297 c 0
 357 1297 390 1297 424 1297 c 2
 534 1297 l 2
 683 1297 819 1294 893 1294 c 2
 909 1294 l 1
 909 1144 l 1
 280 1144 l 1
 280 816 l 1
 718 816 l 1
 718 666 l 1
 280 666 l 1
 280 636 l 2
 280 433 277 224 277 147 c 1
 802 149 l 2
 858 149 919 175 919 175 c 1
 963 27 l 1
 915 14 880 -3 804 -3 c 2
 122 -3 l 1
 122 1293 l 1
EndSplineSet
Validated: 1
EndChar

StartChar: Zeta
Encoding: 918 918 361
Width: 1120
VWidth: 0
Flags: W
HStem: -3 153<283 943.981> 1150 152<109 775>
LayerCount: 2
Fore
SplineSet
143 -5 m 1
 48 83 l 1
 775 1150 l 1
 561 1150 223 1145 109 1145 c 1
 108 1298 l 1
 228 1298 650 1302 838 1302 c 0
 913 1302 959 1289 978 1286 c 1
 975 1253 964 1172 960 1149 c 1
 283 151 l 1
 770 150 l 2
 855 150 882 154 947 175 c 1
 987 27 l 1
 942 11 904 -3 829 -3 c 2
 586 -3 l 2
 374 -3 198 -5 150 -5 c 2
 143 -5 l 1
EndSplineSet
Validated: 1
EndChar

StartChar: Eta
Encoding: 919 919 362
Width: 1120
VWidth: 0
Flags: W
HStem: 625 152<244.549 774>
VStem: 80 159<0 604.438 749 1294> 774 158<0 625 777 1291>
LayerCount: 2
Fore
SplineSet
240 1296 m 1
 239 749 l 1
 331 770 426 777 546 777 c 2
 774 777 l 1
 774 1051 773 1129 773 1291 c 1
 932 1291 l 1
 932 0 l 1
 774 0 l 1
 774 625 l 1
 731 625 688 625 645 625 c 0
 499 625 357 622 239 597 c 1
 239 254 241 181 241 0 c 1
 80 0 l 1
 80 1294 l 1
 240 1296 l 1
EndSplineSet
Validated: 1
EndChar

StartChar: Theta
Encoding: 920 920 363
Width: 1120
VWidth: 0
Flags: W
HStem: -16 153<369.716 673.474> 572 153<316 730> 1170 153<396.35 674.552>
VStem: 61 159<320.826 920.593> 834 158<350.765 944.703>
LayerCount: 2
Fore
SplineSet
304 242 m 0
 353 177 422 137 530 137 c 0
 646 137 718 204 763 287 c 1
 803 351 833 517 834 624 c 1
 834 643 l 2
 834 758 816 911 763 1014 c 0
 705 1128 635 1170 547 1170 c 0
 452 1170 396 1142 338 1066 c 0
 269 977 220 835 220 573 c 0
 220 469 248 315 304 242 c 0
542 1323 m 1
 666 1323 987 1249 992 632 c 1
 992 621 l 2
 992 457 948 304 900 211 c 0
 825 67 695 -16 530 -16 c 0
 408 -16 280 27 199 127 c 0
 109 237 61 389 61 569 c 0
 61 914 138 1063 208 1158 c 0
 274 1248 386 1320 542 1323 c 1
316 725 m 1
 730 725 l 1
 730 572 l 1
 316 572 l 1
 316 725 l 1
EndSplineSet
Validated: 1
EndChar

StartChar: Iota
Encoding: 921 921 364
Width: 1120
VWidth: 0
Flags: W
HStem: 4 147<154 442 602 869> 1144 154<158 442 602 873>
VStem: 442 160<152 1151>
LayerCount: 2
Fore
SplineSet
152 1298 m 1
 308 1302 409 1302 505 1302 c 0
 610 1302 710 1301 873 1299 c 1
 873 1147 l 1
 750 1147 698 1152 602 1152 c 1
 602 152 l 1
 648 152 674 153 725 153 c 0
 770 153 817 152 869 149 c 1
 869 -1 l 1
 784 4 722 5 659 5 c 0
 612 5 563 4 504 4 c 0
 430 4 309 -3 154 -3 c 1
 154 146 l 1
 239 150 310 151 367 151 c 2
 442 151 l 1
 442 1151 l 1
 376 1150 264 1150 158 1144 c 1
 152 1298 l 1
EndSplineSet
Validated: 1
EndChar

StartChar: Kappa
Encoding: 922 922 365
Width: 1120
VWidth: 0
Flags: W
HStem: -5 9G<136 294 865 923.263> 1288 20G<136 294 871.5 902.943>
VStem: 136 158<-5 508.713 703 1308>
LayerCount: 2
Fore
SplineSet
504 725 m 1
 624 608 971 194 1022 59 c 1
 888 -17 l 1
 842 92 538 474 408 600 c 1
 408 600 324 502 294 431 c 1
 294 -5 l 1
 136 -5 l 1
 136 1308 l 1
 294 1308 l 1
 294 703 l 1
 374 814 445 893 544 996 c 1
 735 1191 861 1289 882 1310 c 1
 993 1204 l 1
 811 1072 564 798 504 725 c 1
EndSplineSet
Validated: 1
EndChar

StartChar: Mu
Encoding: 924 924 366
Width: 1120
VWidth: 31
Flags: W
HStem: -5 21G<81.9542 240 750.957 908> 1293 20G<79 213.5 750.5 907.015>
VStem: 82 158<-5 900> 751 157<-5 920>
LayerCount: 2
Fore
SplineSet
79 1304 m 1
 180 1313 l 1
 247 1216 321 1060 390 938 c 0
 440 848 466 797 485 759 c 1
 568 914 710 1183 791 1313 c 1
 907 1313 l 1
 908 -5 l 1
 751 -5 l 1
 749 920 l 1
 675 779 558 575 547 539 c 1
 425 542 l 1
 417 558 359 668 271 837 c 1
 250 881 255 872 240 900 c 1
 240 -5 l 1
 82 -5 l 1
 79 1304 l 1
EndSplineSet
Validated: 1
EndChar

StartChar: Nu
Encoding: 925 925 367
Width: 1120
VWidth: 0
Flags: W
HStem: -3 18G<95 254 690.5 931>
VStem: 95 158<-3 1001> 770 158<-5 92.9198 357 1297>
LayerCount: 2
Fore
SplineSet
772 -6 m 1
 609 351 455 648 253 1001 c 1
 253 797 l 2
 253 504 254 149 254 -3 c 1
 95 -3 l 1
 95 1298 l 1
 254 1294 l 1
 380 1110 656 605 773 357 c 1
 771 487 770 623 770 757 c 0
 770 943 773 1126 782 1297 c 1
 936 1297 l 1
 930 1184 928 1035 928 872 c 0
 928 646 932 392 932 162 c 0
 932 105 931 48 931 -5 c 1
 772 -6 l 1
EndSplineSet
Validated: 1
EndChar

StartChar: Omicron
Encoding: 927 927 368
Width: 1120
VWidth: 0
Flags: W
HStem: -16 153<369.716 673.474> 1170 153<396.35 674.552>
VStem: 61 159<320.826 920.593> 834 158<350.765 944.703>
LayerCount: 2
Fore
SplineSet
304 242 m 0
 353 177 422 137 530 137 c 0
 646 137 718 204 763 287 c 1
 803 351 833 517 834 624 c 1
 834 643 l 2
 834 758 816 911 763 1014 c 0
 705 1128 635 1170 547 1170 c 0
 452 1170 396 1142 338 1066 c 0
 269 977 220 835 220 573 c 0
 220 469 248 315 304 242 c 0
542 1323 m 1
 666 1323 987 1249 992 632 c 1
 992 621 l 2
 992 457 948 304 900 211 c 0
 825 67 695 -16 530 -16 c 0
 408 -16 280 27 199 127 c 0
 109 237 61 389 61 569 c 0
 61 914 138 1063 208 1158 c 0
 274 1248 386 1320 542 1323 c 1
EndSplineSet
Validated: 1
EndChar

StartChar: Rho
Encoding: 929 929 369
Width: 1120
VWidth: 0
Flags: W
HStem: -10 21G<124 282> -10 21G<124 282> 460 152<283 687.396> 1151 151<284 713.907>
VStem: 124 160<-9 463 613 1146> 835 162<736.562 1049.37>
LayerCount: 2
Fore
SplineSet
282 -10 m 1xbc
 124 -9 l 1
 124 1294 l 1
 242 1294 280 1302 413 1302 c 0
 638 1302 809 1289 924 1151 c 0
 978 1086 997 996 997 906 c 0
 997 815 990 715 930 628 c 0
 832 488 675 460 436 460 c 0
 388 460 337 461 283 463 c 1
 283 200 282 146 282 -10 c 1xbc
835 900 m 0
 835 1108 681 1145 435 1151 c 1
 374 1151 329 1147 284 1146 c 1
 284 1020 l 2
 284 837 283 613 283 613 c 1
 319 612 353 612 386 612 c 0
 672 612 835 672 835 900 c 0
EndSplineSet
Validated: 1
EndChar

StartChar: Tau
Encoding: 932 932 370
Width: 1120
VWidth: 0
Flags: W
HStem: -9 21G<423 583> -9 21G<423 583> 1144 155<59 423 583 929.955>
VStem: 423 160<-9 1144>
LayerCount: 2
Fore
SplineSet
423 -9 m 1xb0
 423 1144 l 1
 225 1144 135 1143 59 1143 c 1
 59 1298 l 1
 181 1298 635 1299 823 1299 c 0
 896 1299 945 1287 963 1284 c 1
 930 1132 l 1
 930 1132 868 1144 818 1144 c 2
 583 1144 l 1
 583 -9 l 1
 423 -9 l 1xb0
EndSplineSet
Validated: 1
EndChar

StartChar: Upsilon
Encoding: 933 933 371
Width: 1120
VWidth: 0
Flags: W
HStem: -6 21G<419 579> 1308 20G<153.563 213 829 883.19>
VStem: 419 160<-6 640.323>
LayerCount: 2
Fore
SplineSet
419 -6 m 1
 419 135 l 2
 419 225 426 482 426 601 c 1
 347 712 104 1151 53 1257 c 1
 193 1328 l 1
 233 1251 425 896 512 759 c 1
 610 898 810 1254 848 1341 c 1
 987 1262 l 1
 940 1168 867 1026 762 858 c 1
 675 727 605 616 586 590 c 1
 586 543 584 495 584 441 c 1
 581 309 579 167 579 125 c 2
 579 -6 l 1
 419 -6 l 1
EndSplineSet
Validated: 1
EndChar

StartChar: Chi
Encoding: 935 935 372
Width: 1120
VWidth: 0
Flags: W
HStem: 1320 11G<141.118 233 802.207 845.529>
LayerCount: 2
Fore
SplineSet
814 1340 m 1
 948 1255 l 1
 588 657 l 1
 759 390 856 214 998 77 c 1
 894 -36 l 1
 742 111 650 266 498 508 c 1
 180 -31 l 1
 48 54 l 1
 400 654 l 1
 280 858 183 1082 43 1238 c 1
 168 1331 l 1
 298 1185 392 971 495 799 c 1
 814 1340 l 1
EndSplineSet
Validated: 1
EndChar

StartChar: Delta
Encoding: 916 916 373
Width: 1120
VWidth: 0
Flags: W
HStem: -5 156<256 811>
LayerCount: 2
Fore
SplineSet
854 0 m 1
 206 -5 l 1
 44 19 l 1
 481 1298 l 1
 593 1298 l 1
 1018 30 l 1
 854 0 l 1
537 982 m 1
 443 698 346 438 256 151 c 1
 811 151 l 1
 730 444 628 699 537 982 c 1
EndSplineSet
Validated: 1
EndChar

StartChar: Lambda
Encoding: 923 923 374
Width: 1120
VWidth: 0
Flags: W
LayerCount: 2
Fore
SplineSet
853 -19 m 1
 743 318 645 651 537 982 c 1
 423 650 329 306 205 -24 c 1
 43 0 l 1
 481 1298 l 1
 593 1298 l 1
 1017 11 l 1
 853 -19 l 1
EndSplineSet
Validated: 1
EndChar

StartChar: Xi
Encoding: 926 926 375
Width: 1120
VWidth: 0
Flags: W
HStem: -3 150<122 918.956> 666 150<280 718> 1144 153<124 909>
LayerCount: 2
Fore
SplineSet
280 816 m 1
 718 816 l 1
 718 666 l 1
 280 666 l 1
 280 816 l 1
122 1293 m 1
 178 1297 248 1297 326 1297 c 0
 357 1297 390 1297 424 1297 c 2
 534 1297 l 2
 683 1297 819 1294 893 1294 c 2
 909 1294 l 1
 909 1144 l 1
 124 1144 l 1
 122 1293 l 1
120 147 m 1
 802 149 l 2
 858 149 919 175 919 175 c 1
 963 27 l 1
 915 14 880 -3 804 -3 c 2
 122 -3 l 1
 120 147 l 1
EndSplineSet
Validated: 1
EndChar

StartChar: Pi
Encoding: 928 928 376
Width: 1120
VWidth: 0
Flags: W
HStem: -4 21G<792.5 956> 1144 152<321.493 773 932 1020>
VStem: 159 161<0 1131> 773 159<14.4902 1144>
LayerCount: 2
Fore
SplineSet
320 0 m 1
 159 0 l 1
 159 1131 l 1
 130 1127 102 1122 72 1116 c 1
 53 1268 l 1
 145 1289 240 1296 360 1296 c 2
 1020 1296 l 1
 1020 1144 l 1
 932 1144 l 1
 932 378 l 2
 932 251 942 126 956 9 c 1
 802 -4 l 1
 783 117 773 255 773 384 c 2
 773 1144 l 1
 441 1144 l 2
 397 1144 357 1144 319 1143 c 1
 320 0 l 1
EndSplineSet
Validated: 1
EndChar

StartChar: Sigma
Encoding: 931 931 377
Width: 1120
VWidth: 0
Flags: W
HStem: -3 150<285 918.956> 1144 153<341 909>
LayerCount: 2
Fore
SplineSet
341 1144 m 1
 765 752 l 1
 758 620 l 1
 285 147 l 1
 802 149 l 2
 858 149 919 175 919 175 c 1
 963 27 l 1
 915 14 880 -3 804 -3 c 2
 122 -3 l 1
 97 172 l 1
 614 687 l 1
 92 1170 l 1
 122 1293 l 1
 178 1297 248 1297 326 1297 c 0
 357 1297 390 1297 424 1297 c 2
 534 1297 l 2
 683 1297 819 1294 893 1294 c 2
 909 1294 l 1
 909 1144 l 1
 341 1144 l 1
EndSplineSet
Validated: 1
EndChar

StartChar: Phi
Encoding: 934 934 378
Width: 1120
VWidth: 0
Flags: W
HStem: 170 165<325.498 435> 984 154<596 709.136> 1287 20G<436 596>
VStem: 61 159<442.682 827.234> 436 160<1 173.904 335 975 1131.33 1307> 834 158<464.347 841.499>
LayerCount: 2
Fore
SplineSet
436 170 m 1
 346 182 259 214 199 268 c 0
 109 348 61 460 61 591 c 0
 61 843 138 952 208 1021 c 0
 258 1071 334 1113 436 1131 c 1
 436 1158 436 1186 436 1214 c 2
 436 1307 l 1
 596 1307 l 1
 596 1162 l 1
 596 1138 l 1
 740 1122 988 1031 992 637 c 1
 992 629 l 2
 992 509 948 397 900 329 c 0
 836 239 731 182 598 168 c 1
 598 142 599 122 599 102 c 0
 599 74 598 46 596 0 c 1
 434 1 l 1
 436 32 436 49 436 64 c 0
 436 79 436 93 436 121 c 0
 436 136 436 152 436 170 c 1
598 332 m 1
 675 345 728 380 763 422 c 1
 803 463 833 570 834 638 c 1
 834 650 l 2
 834 724 816 822 763 888 c 0
 716 947 661 975 596 984 c 1
 597 798 598 639 598 382 c 2
 598 332 l 1
435 335 m 1
 435 585 436 781 436 975 c 1
 400 965 369 947 338 921 c 0
 269 864 220 773 220 605 c 0
 220 538 248 441 304 394 c 0
 337 366 379 345 435 335 c 1
EndSplineSet
Validated: 1
EndChar

StartChar: Psi
Encoding: 936 936 379
Width: 1120
VWidth: 6
Flags: W
HStem: 403 159<368.496 478 643 770.397> 1302 8G<124.481 251.5 485 645 862 1023>
VStem: 106 156<661.793 1291.96> 478 163<1 407.126 562 1310> 876 156<677.08 1298.04>
LayerCount: 2
Fore
SplineSet
106 770 m 0
 106 830 106 886 106 937 c 0
 106 1110 104 1231 83 1295 c 1
 243 1322 l 1
 260 1250 262 1138 262 963 c 0
 262 915 262 863 262 806 c 0
 262 656 361 582 480 562 c 1
 482 782 485 1021 485 1217 c 2
 485 1310 l 1
 645 1310 l 1
 645 1165 l 2
 645 984 645 773 643 561 c 1
 845 586 876 708 876 1028 c 1
 875 1120 871 1220 862 1298 c 1
 1018 1315 l 1
 1028 1233 1032 1132 1032 1066 c 0
 1032 1053 1032 1042 1032 1032 c 0
 1032 681 1000 439 641 404 c 1
 639 264 637 127 634 0 c 1
 473 1 l 1
 477 63 478 220 478 275 c 0
 478 316 478 359 478 403 c 1
 223 426 106 586 106 770 c 0
EndSplineSet
Validated: 1
EndChar

StartChar: Omega
Encoding: 937 937 380
Width: 1120
VWidth: 0
Flags: W
HStem: 1 150<56 221 383.544 414 815 1010.96> 1170 153<375.293 716.908>
VStem: 38 159<417.563 946.374> 868 158<446.006 998.677>
LayerCount: 2
Fore
SplineSet
414 1 m 1
 56 1 l 1
 54 151 l 1
 221 151 l 1
 127 268 38 443 38 620 c 0
 38 965 110 1062 180 1157 c 0
 246 1247 370 1323 542 1323 c 0
 778 1323 1026 1233 1026 683 c 2
 1026 672 l 2
 1026 423 905 250 815 151 c 1
 894 152 l 2
 950 152 1011 178 1011 178 c 1
 1055 30 l 1
 1008 17 974 0 902 0 c 0
 900 0 898 0 896 0 c 2
 628 0 l 1
 599 148 l 1
 672 209 868 383 868 675 c 2
 868 694 l 2
 868 706 868 717 868 729 c 0
 868 831 866 927 818 1020 c 0
 760 1134 635 1170 547 1170 c 0
 452 1170 368 1141 310 1065 c 0
 241 976 197 886 197 624 c 0
 197 413 360 185 441 152 c 1
 414 1 l 1
EndSplineSet
Validated: 1
EndChar

StartChar: tonos
Encoding: 900 900 381
Width: 1120
VWidth: -43
Flags: W
HStem: 1222 464
VStem: 539 171<1544.67 1627.37>
LayerCount: 2
Fore
SplineSet
362 1311 m 1
 457 1428 500 1533 539 1686 c 1
 710 1622 l 1
 677 1468 594 1338 499 1222 c 1
 362 1311 l 1
EndSplineSet
Validated: 1
EndChar

StartChar: uni03D0
Encoding: 976 976 402
Width: 1120
VWidth: 0
Flags: W
HStem: 0 153<402.08 703.535> 1176 152<346.166 566.727>
VStem: 89 158<355.459 652.156 799 1033.21> 621 153<885.75 1123.57> 810 154<256.862 551.414>
LayerCount: 2
Fore
SplineSet
247 644 m 1
 254 382 302 153 563 153 c 0
 703 153 810 261 810 395 c 0
 810 591 672 668 469 668 c 0
 401 668 327 660 247 644 c 1
248 799 m 1
 429 811 621 822 621 1005 c 0
 621 1118 545 1176 434 1176 c 0
 369 1176 262 1110 248 799 c 1
89 736 m 0
 89 1156 248 1328 434 1328 c 0
 617 1328 774 1233 774 1011 c 0
 774 909 746 832 690 779 c 1
 867 730 964 598 964 381 c 0
 964 171 831 0 563 0 c 0
 145 0 89 332 89 736 c 0
EndSplineSet
Validated: 1
EndChar

StartChar: theta1
Encoding: 977 977 403
Width: 1120
VWidth: 0
Flags: W
HStem: -16 153<375.938 659.042> 590 158<335.851 829.976> 1170 153<396.726 669.237>
VStem: 61 159<335.307 590> 124 158<803.102 1057.71> 832 160<363.616 588.282 742 957.254>
LayerCount: 2
Fore
SplineSet
220 603 m 1xf4
 220 499 252 320 308 247 c 0
 357 182 422 137 530 137 c 0
 646 137 717 224 762 307 c 1
 797 363 825 483 832 584 c 1
 789 590 734 591 670 591 c 0
 619 591 562 590 500 590 c 0
 340 590 124 672 124 918 c 0xec
 124 990 137 1069 204 1160 c 0
 270 1250 400 1323 542 1323 c 0
 652 1323 992 1233 992 632 c 2
 992 621 l 2
 992 457 946 324 898 231 c 0
 823 87 695 -16 530 -16 c 0
 408 -16 283 32 202 132 c 0
 112 242 61 410 61 590 c 1
 220 603 l 1xf4
830 742 m 1
 822 837 802 939 763 1014 c 0
 705 1128 619 1170 547 1170 c 0
 469 1170 394 1143 334 1068 c 0
 286 1008 282 957 282 927 c 0
 286 769 396 748 508 748 c 0
 688 748 779 747 830 742 c 1
EndSplineSet
Validated: 1
EndChar

StartChar: Upsilon1
Encoding: 978 978 404
Width: 1120
VWidth: 4
Flags: W
HStem: 1070 298<860 971.443>
VStem: 432 156<1 851.827> 860 157<1070 1211.41>
LayerCount: 2
Fore
SplineSet
502 1020 m 1
 565 1165 710 1368 843 1368 c 0
 1010 1368 1017 1258 1017 1076 c 0
 1017 1074 1017 1072 1017 1070 c 1
 860 1070 l 1
 856 1151 848 1200 841 1212 c 1
 823 1199 588 945 588 684 c 2
 588 0 l 1
 432 1 l 1
 432 683 l 2
 432 864 227 1166 28 1215 c 1
 90 1376 l 1
 264 1328 448 1162 502 1020 c 1
EndSplineSet
Validated: 1
EndChar

StartChar: phi1
Encoding: 981 981 407
Width: 1120
VWidth: 6
Flags: W
HStem: 5 159<366.152 455> 869 156<381.665 447 609 688.524> 1330 20G<446 606>
VStem: 112 158<269.449 734.922> 446 160<-336.108 13.8553 170 865 1019.26 1350> 783 159<277.081 760.228>
LayerCount: 2
Fore
SplineSet
694 215 m 1
 759 276 783 382 783 530 c 0
 783 536 783 542 783 548 c 0
 781 706 734 835 609 869 c 1
 612 642 617 382 618 170 c 1
 645 179 669 194 694 215 c 1
455 164 m 1
 454 380 451 638 449 865 c 1
 314 821 270 673 270 469 c 0
 270 303 333 193 455 164 c 1
618 9 m 1
 618 -68 l 2
 618 -183 617 -239 612 -340 c 1
 451 -339 l 1
 455 -277 456 -234 456 -179 c 0
 456 -133 455 -78 455 5 c 1
 227 34 112 208 112 464 c 0
 112 735 200 993 447 1028 c 1
 446 1115 446 1194 446 1257 c 2
 446 1350 l 1
 606 1350 l 1
 606 1205 l 2
 606 1152 606 1092 607 1025 c 1
 742 1004 826 938 883 831 c 0
 924 752 942 639 942 543 c 0
 942 288 865 55 618 9 c 1
EndSplineSet
Validated: 1
EndChar

StartChar: omega1
Encoding: 982 982 408
Width: 1120
VWidth: 6
Flags: W
HStem: -10 155<247.366 396.525 640.099 796.103> 868 154<40 127 285.238 750.012 909 983>
VStem: 35 162<200.065 730.861> 436 155<195.231 684> 842 157<189.339 716.729>
LayerCount: 2
Fore
SplineSet
434 684 m 1
 593 703 l 1
 591 618 592 524 591 431 c 0
 592 423 592 414 592 405 c 0
 594 224 644 144 725 144 c 0
 814 144 842 270 842 420 c 0
 842 610 798 747 728 868 c 1
 309 868 l 1
 243 759 197 649 197 468 c 0
 197 299 230 145 310 145 c 0
 380 145 425 196 438 321 c 1
 437 337 436 352 436 368 c 0
 435 474 436 584 434 684 c 1
38 1018 m 1
 94 1022 164 1022 242 1022 c 0
 273 1022 306 1022 340 1022 c 2
 450 1022 l 2
 599 1022 893 1018 967 1018 c 2
 983 1018 l 1
 983 868 l 1
 909 868 l 1
 974 715 999 554 999 441 c 0
 999 218 946 -12 701 -12 c 0
 626 -12 559 33 512 104 c 1
 462 34 393 -10 317 -10 c 0
 91 -10 35 220 35 444 c 0
 35 577 62 722 127 868 c 1
 40 868 l 1
 38 1018 l 1
EndSplineSet
Validated: 1
EndChar

StartChar: uni03D7
Encoding: 983 983 409
Width: 1120
VWidth: 0
Flags: W
HStem: -345 150<633 821.834> 0 156<704.258 857.742> 863 157<189.125 332.035>
VStem: 349 158<572.649 852.815> 531 158<166.255 447.636> 890 130<-121.514 65 183.895 191>
LayerCount: 2
Fore
SplineSet
18 828 m 1
 18 828 122 1020 269 1020 c 0
 389 1020 507 920 507 740 c 0
 507 715 492 616 470 570 c 1
 517 604 580 658 643 709 c 1
 660 724 l 1
 722 878 769 1018 916 1018 c 0
 980 1018 1004 969 1004 902 c 0
 1004 792 873 668 771 588 c 1
 742 511 689 377 689 287 c 0
 689 194 721 156 773 156 c 0
 825 156 855 180 879 240 c 1
 1020 191 l 1
 1020 169 l 2
 1020 -122 1015 -345 633 -345 c 1
 633 -195 l 1
 836 -195 890 -127 890 55 c 0
 890 58 890 62 890 65 c 1
 842 30 784 0 727 0 c 0
 631 0 531 99 531 279 c 0
 531 304 546 404 568 450 c 1
 521 416 456 360 393 309 c 1
 378 296 l 1
 316 142 269 1 122 1 c 0
 58 1 35 51 35 118 c 0
 35 249 169 354 271 434 c 1
 300 511 349 642 349 732 c 0
 349 825 317 863 265 863 c 0
 213 863 162 789 106 734 c 1
 18 828 l 1
EndSplineSet
Validated: 1
EndChar

StartChar: uni03CF
Encoding: 975 975 410
Width: 1120
VWidth: 0
Flags: W
HStem: -345 134<653 807.024> -5 21G<136 294> 1288 20G<136 294 871.5 902.943>
VStem: 136 158<-5 508.713 703 1308>
LayerCount: 2
Fore
SplineSet
888 -17 m 1
 842 92 538 474 408 600 c 1
 408 600 324 502 294 431 c 1
 294 -5 l 1
 136 -5 l 1
 136 1308 l 1
 294 1308 l 1
 294 703 l 1
 374 814 445 893 544 996 c 1
 735 1191 861 1289 882 1310 c 1
 993 1204 l 1
 811 1072 564 798 504 725 c 1
 624 608 971 194 1022 59 c 1
 1018 -166 977 -345 653 -345 c 1
 653 -211 l 1
 815 -211 875 -133 888 -17 c 1
EndSplineSet
Validated: 1
EndChar

StartChar: uni03D8
Encoding: 984 984 411
Width: 1120
VWidth: 0
Flags: W
HStem: -315 452<447.707 613.443> 1170 153<396.35 674.552>
VStem: 61 159<320.826 920.593> 446 171<-315 0.137573> 834 158<350.765 944.703>
LayerCount: 2
Fore
SplineSet
304 242 m 0
 353 177 422 137 530 137 c 0
 646 137 718 204 763 287 c 1
 803 351 833 517 834 624 c 1
 834 643 l 2
 834 758 816 911 763 1014 c 0
 705 1128 635 1170 547 1170 c 0
 452 1170 396 1142 338 1066 c 0
 269 977 220 835 220 573 c 0
 220 469 248 315 304 242 c 0
542 1323 m 1
 666 1323 987 1249 992 632 c 1
 992 621 l 2
 992 457 948 304 900 211 c 0
 839 93 741 16 617 -8 c 1
 617 -315 l 1
 446 -315 l 1
 446 -9 l 1
 352 7 261 50 199 127 c 0
 109 237 61 389 61 569 c 0
 61 914 138 1063 208 1158 c 0
 274 1248 386 1320 542 1323 c 1
EndSplineSet
Validated: 1
EndChar

StartChar: uni03D9
Encoding: 985 985 412
Width: 1120
VWidth: 6
Flags: W
HStem: 8 148<336.609 394 565 632.694> 878 154<352.497 639.881>
VStem: 72 158<273.254 736.885> 394 171<-315 13.8993> 743 159<279.969 758.636>
LayerCount: 2
Fore
SplineSet
654 215 m 1
 719 276 743 382 743 530 c 0
 743 536 743 542 743 548 c 0
 741 732 677 878 500 878 c 0
 292 878 230 713 230 469 c 0
 230 274 317 156 484 156 c 1
 560 157 604 173 654 215 c 1
394 8 m 1
 180 45 72 216 72 464 c 0
 72 756 174 1032 466 1032 c 0
 663 1032 773 963 843 831 c 0
 884 752 902 639 902 543 c 0
 902 283 822 47 565 7 c 1
 565 -315 l 1
 394 -315 l 1
 394 8 l 1
EndSplineSet
Validated: 1
EndChar

StartChar: uni03DB
Encoding: 987 987 413
Width: 1120
VWidth: 4
Flags: W
HStem: -351 152<538 665.011> 865 153<354.078 994>
VStem: 71 159<258.222 736.59> 696 156<-166.09 -48.8317>
LayerCount: 2
Fore
SplineSet
230 527 m 0
 230 150 378 155 444 150 c 0
 706 129 852 79 852 -95 c 0
 852 -191 802 -343 538 -351 c 1
 516 -199 l 1
 630 -185 696 -168 696 -99 c 0
 696 -33 533 -16 448 -7 c 0
 140 24 71 187 71 527 c 0
 71 894 249 1018 564 1018 c 0
 670 1018 751 1017 827 1017 c 0
 884 1017 937 1017 994 1020 c 1
 997 855 l 1
 955 859 713 865 553 865 c 0
 332 865 230 766 230 527 c 0
EndSplineSet
Validated: 1
EndChar

StartChar: uni03DA
Encoding: 986 986 414
Width: 1120
VWidth: 4
Flags: W
HStem: -351 152<558 685.011> 1168 153<405.971 1005>
VStem: 91 159<313.558 991.449> 716 156<-166.09 -49.6481>
LayerCount: 2
Fore
SplineSet
250 700 m 0
 250 323 314 181 464 150 c 0
 721 97 872 79 872 -95 c 0
 872 -191 822 -343 558 -351 c 1
 536 -199 l 1
 650 -185 716 -168 716 -99 c 0
 716 -33 552 -20 468 -7 c 0
 104 49 91 360 91 700 c 0
 91 1067 206 1321 574 1321 c 0
 680 1321 762 1320 838 1320 c 0
 895 1320 948 1320 1005 1323 c 1
 1008 1157 l 1
 966 1161 723 1168 563 1168 c 0
 302 1168 250 939 250 700 c 0
EndSplineSet
Validated: 1
EndChar

StartChar: uni03DC
Encoding: 988 988 415
Width: 1120
VWidth: 0
Flags: W
HStem: 668 150<292 729.255> 1145 153<292 922.784>
VStem: 136 156<3 665 815 1143>
LayerCount: 2
Fore
SplineSet
297 -1 m 1
 136 3 l 1
 136 1298 l 1
 821 1298 l 1
 898 1295 946 1280 980 1263 c 1
 924 1117 l 1
 898 1131 876 1144 778 1145 c 1
 708 1145 l 2
 604 1145 475 1144 292 1143 c 1
 292 815 l 1
 412 815 479 818 601 818 c 0
 689 818 748 804 749 804 c 2
 767 799 l 1
 731 654 l 1
 694 663 643 668 598 668 c 0
 492 668 400 668 292 665 c 1
 292 544 297 92 297 -1 c 1
EndSplineSet
Validated: 1
EndChar

StartChar: uni03DD
Encoding: 989 989 416
Width: 1120
VWidth: -2
Flags: W
HStem: -308 146<49.4088 280.364> 859 154<538 868.016> 1266 152<574.521 887.522>
VStem: 384 157<-49.4677 859 1013 1231.57>
LayerCount: 2
Fore
SplineSet
384 152 m 0
 384 275 380 857 380 1064 c 0
 380 1207 409 1418 686 1418 c 0
 703 1418 718 1418 732 1418 c 0
 850 1418 867 1413 1007 1321 c 1
 936 1191 l 1
 844 1251 826 1266 694 1266 c 0
 547 1266 538 1168 538 1060 c 2
 538 1013 l 1
 606 1013 664 1012 737 1012 c 1
 841 1009 868 1001 898 992 c 1
 869 846 l 1
 848 853 827 859 771 859 c 2
 538 859 l 1
 539 705 541 156 541 152 c 0
 541 -84 475 -308 136 -308 c 0
 106 -308 74 -307 40 -303 c 1
 50 -156 l 1
 78 -160 104 -162 128 -162 c 0
 336 -162 384 -6 384 152 c 0
EndSplineSet
Validated: 1
EndChar

StartChar: uni0190
Encoding: 400 400 417
Width: 1120
VWidth: 0
Flags: W
HStem: 0 168<380.967 800.391> 715 165<413.202 689> 1247 167<412.406 852.372>
VStem: 88 165<282.484 591.465> 150 165<963.971 1167.87>
LayerCount: 2
Fore
SplineSet
1054 175 m 1xf0
 979 117 847 0 576 0 c 0
 385 0 286 38 201 116 c 0
 104 206 88 315 88 425 c 0xf0
 88 619 156 757 316 796 c 1
 198 835 150 956 150 1074 c 0
 150 1287 309 1414 613 1414 c 2
 626 1414 l 2
 871 1414 966 1347 1044 1302 c 1
 960 1150 l 1
 884 1196 767 1247 615 1247 c 0
 441 1247 315 1180 315 1074 c 0xe8
 315 894 548 880 665 880 c 2
 670 880 l 1
 689 880 l 1
 689 714 l 1
 662 714 634 715 607 715 c 0
 541 715 476 711 398 680 c 0
 281 635 253 496 253 423 c 0
 253 263 387 168 577 168 c 0
 778 168 894 260 948 310 c 1
 1054 175 l 1xf0
EndSplineSet
Validated: 1
EndChar

StartChar: uni0228
Encoding: 552 552 473
Width: 1120
VWidth: 0
Flags: W
HStem: -403 125<437.445 642.66> -3 164<291 482 628 964.953> 726 164<294 754> 1247 167<294 954>
VStem: 128 166<161 726 890 1247> 482 145<-70.4613 -3> 646 136<-271.217 -172.936>
LayerCount: 2
Fore
SplineSet
128 1409 m 1
 187 1413 260 1414 342 1414 c 0
 375 1414 409 1414 445 1414 c 2
 561 1414 l 2
 717 1414 860 1410 938 1410 c 2
 954 1410 l 1
 954 1247 l 1
 294 1247 l 1
 294 890 l 1
 754 890 l 1
 754 726 l 1
 294 726 l 1
 294 693 l 2
 294 472 291 245 291 161 c 1
 842 162 l 2
 901 162 965 191 965 191 c 1
 1011 29 l 1
 961 15 924 -3 844 -3 c 2
 628 -3 l 1
 628 -24 627 -62 627 -64 c 1
 724 -69 782 -131 782 -235 c 0
 782 -336 682 -403 598 -403 c 0
 532 -403 460 -378 404 -342 c 1
 442 -236 l 1
 475 -254 515 -278 566 -278 c 0
 602 -278 643 -258 646 -220 c 1
 646 -218 l 2
 646 -189 608 -164 560 -164 c 0
 512 -164 510 -171 482 -181 c 1
 482 -3 l 1
 128 -3 l 1
 128 1409 l 1
EndSplineSet
Validated: 1
EndChar

StartChar: uni0229
Encoding: 553 553 474
Width: 1120
VWidth: 0
Flags: W
HStem: -410 125<423.445 628.66> -5 148<388.888 468 614 717.409> 460 150<480.379 804> 869 152<401.998 691.11>
VStem: 118 158<258.732 429.895 580 738.031> 468 145<-77.4613 -1.32291> 632 136<-278.217 -179.936> 804 159<611 749.303>
LayerCount: 2
Fore
SplineSet
276 580 m 1
 384 591 626 606 769 610 c 2
 804 611 l 1
 798 767 686 869 550 869 c 0
 380 869 277 734 276 580 c 1
549 1021 m 0
 926 1021 963 641 963 503 c 0
 963 483 963 468 962 460 c 1
 677 456 441 439 276 427 c 1
 276 274 359 143 545 143 c 0
 702 143 790 230 825 286 c 1
 946 183 l 1
 934 163 841 20 614 -6 c 1
 613 -26 613 -69 613 -71 c 1
 710 -76 768 -138 768 -242 c 0
 768 -343 668 -410 584 -410 c 0
 518 -410 446 -385 390 -349 c 1
 428 -243 l 1
 461 -261 501 -285 552 -285 c 0
 588 -285 629 -265 632 -227 c 1
 632 -225 l 2
 632 -196 594 -171 546 -171 c 0
 498 -171 496 -178 468 -188 c 1
 468 -5 l 1
 232 29 118 231 118 516 c 0
 118 802 266 1021 549 1021 c 0
EndSplineSet
Validated: 1
EndChar

StartChar: uni0311
Encoding: 785 785 483
Width: 1120
VWidth: -12
Flags: W
HStem: 1360 21G<246 363.5 743 856.667> 1510 153<408.698 688.547>
VStem: 194 156<1387.24 1448.72> 746 166<1396.41 1453.85>
LayerCount: 2
Fore
SplineSet
550 1510 m 4
 457 1510 377 1477 350 1360 c 5
 194 1390 l 5
 242 1615 424 1663 550 1663 c 5
 715 1663 888 1576 912 1399 c 5
 746 1369 l 5
 740 1447 658 1510 550 1510 c 4
EndSplineSet
Validated: 1
EndChar

StartChar: uni0312
Encoding: 786 786 485
Width: 1120
VWidth: -43
Flags: W
HStem: 1235 420
VStem: 426 152<1502.25 1624.21>
LayerCount: 2
Fore
SplineSet
317 1283 m 1
 355 1395 381 1504 426 1655 c 1
 578 1621 l 1
 560 1479 532 1338 511 1235 c 1
 317 1283 l 1
EndSplineSet
Validated: 1
EndChar

StartChar: uni0313
Encoding: 787 787 486
Width: 1120
VWidth: 26
Flags: W
HStem: 1099 498
VStem: 468 220<1376 1597> 525 163<1250.63 1376>
LayerCount: 2
Fore
SplineSet
468 1597 m 5xc0
 688 1597 l 5
 688 1382 l 5xc0
 688 1231 621 1155 492 1099 c 5
 439 1226 l 5
 499 1254 525 1277 525 1376 c 5xa0
 468 1376 l 5
 468 1597 l 5xc0
EndSplineSet
Validated: 1
EndChar

StartChar: uni0314
Encoding: 788 788 487
Width: 1120
VWidth: 26
Flags: W
HStem: 1099 498
VStem: 451 220<1376 1597> 451 163<1250.63 1376>
LayerCount: 2
Fore
SplineSet
671 1597 m 5xc0
 671 1376 l 5xc0
 614 1376 l 5xa0
 614 1277 640 1254 700 1226 c 5
 647 1099 l 5
 518 1155 451 1231 451 1382 c 5
 451 1597 l 5
 671 1597 l 5xc0
EndSplineSet
Validated: 1
EndChar

StartChar: ogonek
Encoding: 731 731 502
Width: 1120
VWidth: 12
Flags: W
HStem: -358 111<553.429 756.172>
VStem: 410 136<-234.728 -74.4377>
LayerCount: 2
Fore
SplineSet
534 56 m 5
 700 59 l 5
 642 -36 546 -89 546 -173 c 6
 546 -175 l 5
 546 -218 592 -247 636 -247 c 4
 694 -247 742 -233 775 -215 c 5
 809 -282 l 5
 753 -318 685 -358 594 -358 c 4
 510 -358 410 -291 410 -190 c 4
 410 -61 470 -13 534 56 c 5
EndSplineSet
Validated: 1
EndChar

StartChar: uni01EA
Encoding: 490 490 505
Width: 1120
VWidth: 0
Flags: W
HStem: -421 111<493.429 695.318> 1275 167<422.109 706.308>
VStem: 64 167<352.638 994.501> 350 136<-297.728 -137.969> 876 166<389.013 1008.4>
LayerCount: 2
Fore
SplineSet
319 264 m 0
 370 193 443 149 556 149 c 0
 678 149 754 223 801 313 c 1
 843 383 875 563 876 680 c 1
 876 701 l 2
 876 826 857 993 801 1105 c 0
 740 1229 666 1275 574 1275 c 0
 474 1275 416 1245 355 1162 c 0
 283 1065 231 911 231 625 c 0
 231 512 260 344 319 264 c 0
569 1442 m 1
 699 1442 1037 1362 1042 689 c 1
 1042 677 l 2
 1042 498 995 331 945 230 c 0
 879 98 771 12 635 -11 c 1
 577 -101 486 -154 486 -236 c 2
 486 -238 l 2
 486 -281 532 -310 576 -310 c 0
 634 -310 681 -296 714 -278 c 1
 748 -345 l 1
 692 -381 625 -421 534 -421 c 0
 450 -421 350 -354 350 -253 c 0
 350 -126 407 -77 470 -10 c 1
 371 7 275 53 209 138 c 0
 115 258 64 424 64 620 c 0
 64 996 144 1158 218 1262 c 0
 287 1360 405 1439 569 1442 c 1
EndSplineSet
Validated: 1
EndChar

StartChar: uni01EB
Encoding: 491 491 506
Width: 1120
VWidth: 0
Flags: W
HStem: -402 111<459.429 662.172> 878 154<392.497 679.881>
VStem: 112 158<272.95 736.885> 316 136<-278.728 -119.285> 783 159<278.736 758.636>
LayerCount: 2
Fore
SplineSet
694 215 m 1
 759 276 783 382 783 530 c 0
 783 536 783 542 783 548 c 0
 781 732 717 878 540 878 c 0
 332 878 270 713 270 469 c 0
 270 274 357 156 524 156 c 1
 600 157 644 173 694 215 c 1
601 6 m 1
 543 -84 452 -136 452 -217 c 2
 452 -219 l 2
 452 -262 498 -291 542 -291 c 0
 600 -291 648 -277 681 -259 c 1
 715 -326 l 1
 659 -362 591 -402 500 -402 c 0
 416 -402 316 -335 316 -234 c 0
 316 -107 373 -59 436 8 c 1
 221 44 112 215 112 464 c 0
 112 756 214 1032 506 1032 c 0
 703 1032 813 963 883 831 c 0
 924 752 942 639 942 543 c 0
 942 282 862 44 601 6 c 1
EndSplineSet
Validated: 1
EndChar

StartChar: uni0326
Encoding: 806 806 509
Width: 1120
VWidth: 26
Flags: W
HStem: -494 498
VStem: 470 220<-217 4> 526 164<-342.366 -217>
LayerCount: 2
Fore
SplineSet
470 4 m 1xc0
 690 4 l 1
 690 -211 l 1xc0
 690 -362 623 -438 494 -494 c 1
 440 -367 l 1
 500 -339 526 -316 526 -217 c 1xa0
 470 -217 l 1
 470 4 l 1xc0
EndSplineSet
Validated: 1
EndChar
